<?xml version="1.0" encoding="utf-8"?>
<!-- Generator: Adobe Illustrator 24.3.0, SVG Export Plug-In . SVG Version: 6.00 Build 0)  -->
<svg version="1.1" id="Layer_1" xmlns="http://www.w3.org/2000/svg" xmlns:xlink="http://www.w3.org/1999/xlink" x="0px" y="0px"
	 viewBox="0 0 789 607.9" style="enable-background:new 0 0 789 607.9;" xml:space="preserve">
<style type="text/css">
	.st0{fill:#20A3D5;}
	.st1{fill:#A7BD37;}
	.st2{fill:#3E5409;}
	.st3{fill:#E3EEFD;}
	.st4{fill:#CCDFFE;}
	.st5{fill:#FFFFFF;}
	.st6{fill:#38385C;}
	.st7{fill:#B9D4FD;}
	.st8{fill:#739BFD;}
	.st9{opacity:0.2;fill:#FFFFFF;enable-background:new    ;}
	.st10{fill:#233B4B;}
	.st11{fill:#FAFAFA;}
	.st12{fill:#1A1A35;}
	.st13{fill:#FFB6A6;}
	.st14{fill:#FF8370;}
	.st15{fill:#F85C3D;}
	.st16{fill:#DF4930;}
	.st17{fill:#EECD76;}
	.st18{fill:#EDA26A;}
	.st19{fill:#FF7243;}
</style>
<g>
	<path class="st0" d="M789,607.2V170.7C733.5,101.5,652.2,54,559.7,42.6c1.7,3.1,2.9,6.8,3.5,10.8c10-6,23,4.1,22,14.9H472.1
		c6.4-9.9,17.3-22.6,30.3-18.1c1-3.9,2.5-7.3,4.4-10.2c-43.2,1.2-84.5,10.3-122.4,25.8c16.8,20.9,32.6,44,53.8,57.6
		c-0.9-0.6-1.3-1.9-2-2.6c-0.2-0.2-0.1-0.6,0.1-0.7c0.2-0.2,0.5-0.1,0.7,0.1c0.3,0.8,2.8,2.9,1.3,3.3c11.6,7.4,24.9,11.9,40.8,11.5
		c66.7-9.1,130.3-2.9,143.4,76c0.9,10,0.7,19.4-0.5,28.1c-0.2,1.6-0.5,3.2-0.8,4.8c-0.6,3.3-1.3,6.5-2.2,9.7
		c-0.6,2.2-1.3,4.4-2.1,6.6c-1.2,3.3-2.5,6.6-4,9.7c-19.5,40.6-65.6,63.7-121.2,75.7c-5.5,5.7-11.9,11.3-19.1,16.8
		c-4.9-3.7-9.3-7.4-13.4-11.1c-80.4,11-172.6,3.5-232.3-5.5c-7,5.8-15.4,12.1-23.1,15.1c5.1-1.3,15.3-2.6,30.4,1.3
		c0,0-16.5,6.6-34.8,10.8c-7.5,1.7-15.3,3.1-22.4,3.5l448.9,1.5l-80.4,14.6c-4.3,3.6-17.4,5.7-36.5,6.6L412,416.7l-244.4-28.5
		c0,0.2,0,0.5,0,0.7c0,82.9,28.9,159.1,77.2,218.9h543.6C788.6,607.7,788.8,607.4,789,607.2z M389.9,68.2c-0.1,0.1-0.2,0.2-0.4,0.2
		v0c-0.5-0.2-3.4-2.3-2.7-2.8c0.9-0.6,2.3,1.5,3.1,1.9C390,67.6,390.1,67.9,389.9,68.2z M394.5,72.2c-0.1,0.1-0.2,0.2-0.4,0.2v0
		c-0.5-0.2-3.4-2.5-2.7-2.9c0.9-0.6,2.2,1.6,3,2C394.7,71.7,394.7,72,394.5,72.2z M399,76.4c-0.1,0.1-0.2,0.2-0.4,0.2
		c-0.4-0.1-3.4-2.6-2.6-3c0.9-0.6,2.2,1.6,3,2.1C399.2,75.9,399.2,76.2,399,76.4z M403.4,80.7c-0.1,0.1-0.2,0.1-0.4,0.1c0,0,0,0,0,0
		h0c0,0,0,0,0,0c-1-0.5-1.7-1.6-2.6-2.3c-0.2-0.2-0.2-0.5,0-0.7c0,0,0,0,0,0c0.9-0.6,2.1,1.7,2.9,2.1
		C403.6,80.2,403.6,80.5,403.4,80.7z M407.4,85.3C407.4,85.3,407.4,85.3,407.4,85.3L407.4,85.3C407.4,85.3,407.4,85.3,407.4,85.3
		c-1-0.5-1.6-1.6-2.5-2.4c-0.5-0.5,0.3-1.2,0.7-0.7C406,82.9,409,84.8,407.4,85.3z M412,89.6c-0.1,0.1-0.2,0.1-0.3,0.1c0,0,0,0,0,0
		l0,0c0,0,0,0,0,0c-1-0.5-1.6-1.7-2.5-2.4c-0.2-0.2-0.2-0.5,0-0.7c0,0,0,0,0,0c1-0.5,2.1,1.8,2.8,2.3
		C412.2,89.1,412.2,89.4,412,89.6z M416.1,94.2c-0.1,0.1-0.2,0.1-0.3,0.1c0,0,0,0,0,0l0,0c0,0,0,0,0,0c-1-0.5-1.6-1.7-2.4-2.5
		c-0.2-0.2-0.2-0.5,0-0.7c0,0,0,0,0,0c1-0.5,2,1.8,2.8,2.3C416.3,93.7,416.3,94,416.1,94.2z M419.8,99L419.8,99
		c-1-0.5-1.6-1.8-2.4-2.5c-0.2-0.2-0.2-0.5,0.1-0.7c0.2-0.2,0.5-0.2,0.7,0.1C418.5,96.5,421.4,98.5,419.8,99z M424,103.6
		c-0.1,0.1-0.2,0.1-0.3,0.1c0,0,0,0,0,0h0c0,0,0,0,0,0c-1-0.5-1.5-1.8-2.3-2.6c-0.2-0.2-0.1-0.5,0.1-0.7c1-0.5,1.9,1.9,2.7,2.5
		C424.3,103.1,424.3,103.5,424,103.6z M427.9,108.5c-0.1,0.1-0.2,0.1-0.3,0.1c-1-0.5-1.5-1.8-2.3-2.6c-0.2-0.2-0.1-0.5,0.1-0.7
		c1-0.5,1.9,1.9,2.6,2.5C428.1,108,428.1,108.3,427.9,108.5z M431.3,113.5C431.3,113.5,431.3,113.5,431.3,113.5L431.3,113.5
		C431.3,113.5,431.3,113.5,431.3,113.5c-1-0.5-1.5-1.9-2.3-2.7c-0.2-0.2-0.1-0.6,0.1-0.7c0.2-0.2,0.5-0.1,0.7,0.1
		C430.2,111,432.8,113.1,431.3,113.5z M434.9,118.5C434.9,118.5,434.9,118.5,434.9,118.5L434.9,118.5
		C434.9,118.5,434.9,118.5,434.9,118.5c-1-0.5-1.4-1.9-2.2-2.7c-0.2-0.2-0.1-0.6,0.2-0.7c0.2-0.1,0.5-0.1,0.7,0.1
		C433.8,116,436.4,118.1,434.9,118.5z"/>
	<path class="st0" d="M195.3,338.9C195.3,338.9,195.3,338.9,195.3,338.9c-0.3,0.1-0.6,0.3-0.8,0.4
		C194.5,339.3,194.8,339.1,195.3,338.9z"/>
	<path class="st1" d="M38.3,353.7c2.6,1.3,4.2,1.9,4.2,1.9C41.3,354.9,39.9,354.2,38.3,353.7z"/>
	<path class="st1" d="M42.3,303c-9.2-5.1-18.6-8.3-18.6-8.3c4.9,18.7,13.6,29.9,17.8,34.5c0.9,0.8,1.8,1.6,2.5,2.5
		c0,0-1-0.8-2.5-2.5C30.1,319.3,3.1,313,3.1,313c8.6,24.6,26.9,36.5,35.2,40.7c1.6,0.6,3,1.2,4.2,1.9c0,0-1.6-0.6-4.2-1.9
		C24.9,348.9,0,349.6,0,349.6c11.2,15.6,31.3,22.1,45.9,24.9C49,360.6,43.7,314.3,42.3,303z"/>
	<path class="st1" d="M44,331.7c-0.7-0.8-1.5-1.7-2.5-2.5C43.1,330.9,44,331.7,44,331.7z"/>
	<path class="st2" d="M54.7,368.8L45,304.6c-0.9-0.5-1.8-1.1-2.7-1.6c1.4,11.3,6.7,57.6,3.6,71.5c9.7,1.8,16.9,2,17.7,2
		C59.2,376.4,55.5,373.2,54.7,368.8z"/>
	<path class="st3" d="M212.5,113.3c-0.6,0.6-1,1.2-1.3,1.8C211.6,114.4,212.1,113.8,212.5,113.3z"/>
	<path class="st3" d="M107.1,147.8h73.6v84.7h23.9c1.1-2.3,2.3-4.5,3.5-6.7v-31h18.5c1.8-2.7,3.7-5.4,5.6-8.1l-8.9-22.8l-16.6,1.1
		c-8.7,0.4-16.7-8.7-13.3-16.9c-1.3-2.4-1.2-5.4,0.5-7.8l0.7-1l16.7-24.2l0,0c0,0,0,0,0,0l0,0c0,0,0,0,0,0l0,0l0,0c0,0,0,0,0,0
		l-1.4-4.4c0.6-0.7,1.3-1.3,2-2l-3.4-7.1c-1.2-0.4-6.2-3.5-10.1-7.5c0,0.1,0,0.2,0,0.2c-8-5.4-9.8-13.5-7.1-19.9
		c-0.1-0.5,0-1.2,0.6-2c0.5-0.8,1-1.3,1.5-1.4c2.4-3,6-5.2,10.6-6c1.4-0.2,2.9-0.3,4.5-0.3c0,0,0,0,0,0l9.6-6.9
		c0.1-0.1,0.2-0.1,0.3-0.1c0.6-0.2,1.2,0.1,1.5,0.7c1.6,3.2,1.5,7.3-1.6,9.5l-2.5,1.8c7,1.2,12.3,6.1,12.3,6.1
		c-2.1,1.6-5.1,2.6-8,3.3l4,4.5l6.1,7c0.5,0.6,0.8,1.2,1,1.8c1.6,4.1-3,6.6-6.3,8.8l0.6,1.4c1.2-0.2,2.4-0.3,3.6-0.3l1.3,2.7
		c0,0-0.4,0.1-1.2,0.3c1,0.1,2,0.2,3.1,0.5v-29l43.2-8.3h0h0l73.3,8.3v6.3c11.5-6.3,23.4-12,35.6-17c-1.5-1.8-2.9-3.6-4.4-5.4
		c0,0,0,0,0,0h0h0c-0.5-0.3-3.5-2.1-2.8-2.7c0.2-0.1,0.3-0.2,0.5-0.1c-5.2-6.1-10.5-11.9-16.2-16.9C313,4.2,266.1-5.4,225.1,2.7
		c0.8,0,1.6,0.1,1.7,0.6c0,0.3-0.2,0.5-0.5,0.5l0,0c-1,0-2.1-0.1-3.1-0.1c-0.3,0-0.5-0.3-0.5-0.5C152.6,18.2,100.2,84.9,88.3,156.6
		l18.8,0V147.8z M372.2,54.1c0.8-0.7,2.3,1.4,3.2,1.7c0.2,0.2,0.3,0.5,0.1,0.7c-0.1,0.1-0.2,0.2-0.4,0.2
		C374.5,56.5,371.6,54.7,372.2,54.1z M367.1,50.5c0.8-0.7,2.4,1.3,3.2,1.6c0.2,0.2,0.3,0.5,0.1,0.7c-0.1,0.1-0.2,0.2-0.4,0.2
		C369.5,52.8,366.6,51.2,367.1,50.5z M362,47.1c0.8-0.7,2.4,1.2,3.3,1.6c0.2,0.2,0.3,0.5,0.1,0.7c-0.1,0.1-0.2,0.2-0.4,0.2l0,0
		C364.5,49.3,361.5,47.8,362,47.1z M356.8,43.8c0.8-0.8,2.4,1.2,3.3,1.5c0.2,0.2,0.3,0.5,0.1,0.7c-0.1,0.1-0.2,0.2-0.4,0.2l0,0
		C359.3,45.9,356.3,44.5,356.8,43.8z M351.6,40.6c0.8-0.8,2.5,1.1,3.4,1.4c0.2,0.2,0.3,0.5,0.2,0.7c-0.1,0.1-0.3,0.2-0.4,0.2l0,0
		C354,42.6,351.1,41.4,351.6,40.6z M346.2,37.5c0.8-0.8,2.5,1.1,3.4,1.3c0.2,0.1,0.3,0.5,0.2,0.7c-0.1,0.2-0.3,0.2-0.4,0.2
		c0,0,0,0,0,0l0,0c0,0,0,0,0,0C348.7,39.4,345.8,38.3,346.2,37.5z M340.8,34.6c0.7-0.8,2.5,1,3.4,1.2c0.2,0.1,0.3,0.5,0.2,0.7
		c-0.1,0.2-0.3,0.3-0.4,0.3l0,0C343.3,36.4,340.4,35.4,340.8,34.6z M335.3,31.7c0.1-0.2,0.4-0.3,0.7-0.2c0.6,0.5,4.4,1.6,2.5,2.4
		l0,0c-1-0.4-2-1-3-1.5C335.3,32.3,335.2,32,335.3,31.7z M329.8,29.1c0.7-0.8,2.6,0.9,3.5,1.1c0.3,0.1,0.4,0.4,0.2,0.7
		c-0.1,0.2-0.3,0.3-0.5,0.3l0,0C332.3,30.7,329.4,29.9,329.8,29.1z M324.2,26.5c0.7-0.9,2.6,0.8,3.5,1c0.3,0.1,0.4,0.4,0.2,0.7
		c-0.1,0.2-0.3,0.3-0.5,0.3l0,0C326.8,28.1,323.8,27.4,324.2,26.5z M318.5,24.1c0.7-0.9,2.6,0.8,3.5,0.9c0.3,0.1,0.4,0.4,0.3,0.7
		c-0.1,0.2-0.3,0.3-0.5,0.3l0,0C321.1,25.6,318.2,25,318.5,24.1z M312.8,21.8c0.6-0.9,2.7,0.7,3.5,0.8c0.3,0.1,0.4,0.4,0.3,0.7
		c-0.1,0.2-0.3,0.3-0.5,0.3l0,0C315.4,23.2,312.5,22.8,312.8,21.8z M307,19.6c0.5-0.9,2.7,0.6,3.6,0.8c0.3,0.1,0.4,0.4,0.3,0.7
		c-0.1,0.2-0.3,0.3-0.5,0.3c0,0,0,0,0,0l0,0c0,0,0,0,0,0C309.6,21,306.8,20.6,307,19.6z M301.2,17.6c0.5-0.9,2.7,0.6,3.6,0.7
		c0.3,0.1,0.4,0.4,0.3,0.7c-0.1,0.2-0.3,0.3-0.5,0.3C303.8,18.9,301,18.6,301.2,17.6z M295.3,15.7c0.5-0.9,2.7,0.5,3.6,0.6
		c0.3,0.1,0.4,0.4,0.3,0.7c-0.1,0.2-0.3,0.3-0.5,0.3c0,0,0,0,0,0h0c0,0,0,0,0,0C298,16.9,295.1,16.7,295.3,15.7z M293,14.5
		c0.3,0.1,0.4,0.4,0.3,0.7c-0.1,0.2-0.3,0.3-0.5,0.4c-0.8-0.4-3.6-0.5-3.5-1.5C289.9,13,292.1,14.4,293,14.5z M283.5,12.3
		c0.1-0.3,0.3-0.4,0.6-0.4c0.7,0.3,4.9,0.8,2.8,1.8v0c-1-0.2-2.1-0.6-3.1-0.8C283.6,12.9,283.4,12.6,283.5,12.3z M281.1,11.2
		c0.3,0.1,0.4,0.4,0.3,0.7c-0.1,0.2-0.2,0.3-0.5,0.4v0c-0.8-0.4-3.6-0.4-3.5-1.4C277.9,9.9,280.2,11.2,281.1,11.2z M275.1,9.7
		c0.3,0.1,0.4,0.4,0.3,0.6c-0.1,0.2-0.2,0.3-0.5,0.4v0c-0.8-0.4-3.6-0.3-3.5-1.3C271.9,8.5,274.2,9.7,275.1,9.7z M269.1,8.4
		c0.3,0.1,0.4,0.4,0.4,0.6c-0.1,0.2-0.2,0.4-0.5,0.4v0c-0.8-0.4-3.6-0.2-3.5-1.2C265.9,7.2,268.2,8.4,269.1,8.4z M263,7.2
		c0.3,0.1,0.4,0.4,0.4,0.6c-0.1,0.2-0.2,0.4-0.5,0.4v0c-0.8-0.3-3.6-0.1-3.5-1.2C259.8,6.1,262.1,7.2,263,7.2z M256.9,6.1
		c0.3,0.1,0.4,0.3,0.4,0.6c-0.1,0.2-0.2,0.4-0.5,0.4l0,0c-0.8-0.3-3.5-0.1-3.5-1.1C253.6,5,256.1,6.2,256.9,6.1z M250.8,5.2
		c0.3,0.1,0.5,0.3,0.4,0.6c0,0.2-0.2,0.4-0.5,0.4l0,0c-0.9-0.3-3.5,0.1-3.6-1C247.5,4.2,249.9,5.2,250.8,5.2z M244.7,4.3
		c0.3,0.1,0.5,0.3,0.4,0.6c0,0.2-0.2,0.4-0.5,0.4l0,0c-0.9-0.3-3.5,0.1-3.6-0.9C241.4,3.4,243.8,4.4,244.7,4.3z M238.6,3.7
		c0.3,0,0.5,0.3,0.4,0.6c0,0.2-0.2,0.4-0.5,0.4l0,0c-0.9-0.3-3.5,0.2-3.6-0.8C235.2,2.8,237.7,3.8,238.6,3.7z M229.3,2.9
		c0.9,0.3,3.4-0.3,3.6,0.7c0,0.3-0.2,0.5-0.5,0.5l0,0c-1-0.1-2.1-0.1-3.1-0.2c-0.3,0-0.5-0.3-0.5-0.6C228.8,3.1,229.1,2.9,229.3,2.9
		z"/>
	<path class="st3" d="M232.2,186.7c-1.9,2.7-3.8,5.4-5.6,8.1h8.8L232.2,186.7z"/>
	<rect x="409.2" y="214.4" class="st3" width="4.8" height="0"/>
	<path class="st3" d="M290.5,222.7c-3.5,16.5-5.7,28.4-8,37.1h50.4v-43.1h39.2l-20.2-23.5L290.5,222.7z"/>
	<path class="st3" d="M208.1,225.8c-1.2,2.2-2.3,4.5-3.5,6.7h3.5V225.8z"/>
	<path class="st3" d="M348.8,156.4l-59.6,5.7c2.2,3.1,3.8,5.3,4.5,6l61.2-12.3c4.7-1.1,9.7,0.8,12.5,4.8l37.2,54l1.3-7
		c0.5-3.5,2.9-7.2,6.1-9.7v-34.5h48.8c-0.1-0.2,0-0.5,0.3-0.6c0.3-0.1,0.6,0,0.7,0.2c0,0.1,0.1,0.2,0.1,0.4h47.5v49.2
		c11.8,9.2,19.9,23.7,20,43.5c0,0,0.6,6.2-0.7,16.3h21.2v-33.1h72.2c1.2-8.8,1.4-18.1,0.5-28.1c-13.1-78.9-76.7-85.1-143.4-76
		c-15.9,0.4-29.1-4.1-40.8-11.5c0,0,0,0,0,0c0,0,0,0,0,0h0c0,0,0,0,0,0c-0.1,0-0.1-0.1-0.2-0.1c-21.2-13.5-37-36.6-53.8-57.6
		c-12.2,5-24.1,10.7-35.6,17V156.4z M458.3,157.2c0.3-0.1,0.6,0,0.7,0.2c0.2,0.8,2.3,3.2,0.9,3.5c-1-0.5-1.1-2.1-1.8-3.1
		C458,157.6,458.1,157.3,458.3,157.2z M455.5,151.7c0.3-0.1,0.6,0,0.7,0.2c0.2,0.8,2.4,3.2,1,3.5c-1-0.5-1.2-2.1-1.9-3
		C455.2,152.1,455.3,151.8,455.5,151.7z M452.7,146.3c0.2-0.1,0.5,0,0.7,0.2c0.2,0.9,2.4,3.1,1,3.5l0,0c-1-0.5-1.2-2.1-1.9-3
		C452.3,146.7,452.4,146.4,452.7,146.3z M449.6,140.9c0.2-0.1,0.6-0.1,0.7,0.2c0.2,0.8,2.5,3.1,1.1,3.4l0,0c-1-0.5-1.3-2-2-2.9
		C449.3,141.4,449.3,141,449.6,140.9z M446.5,135.6c1-0.3,1.6,2.2,2.3,2.8c0.1,0.2,0.1,0.6-0.2,0.7c-0.1,0-0.2,0.1-0.3,0.1
		c-1-0.5-1.3-2-2-2.9C446.1,136,446.2,135.7,446.5,135.6z M443.2,130.4c0.2-0.1,0.5-0.1,0.7,0.2c0.2,0.8,2.7,3,1.2,3.4l0,0
		c-1-0.5-1.3-2-2.1-2.9C442.9,130.8,443,130.5,443.2,130.4z M439.9,125.2c0.2-0.1,0.5-0.1,0.7,0.1c0.3,0.8,2.7,3,1.3,3.4l0,0
		c-1-0.5-1.4-2-2.1-2.8C439.5,125.6,439.6,125.3,439.9,125.2z"/>
	<path class="st4" d="M213.8,211.6h2.2c0.6-1,1.2-2,1.8-3H214v-8.7h9.3c1.1-1.7,2.2-3.4,3.3-5h-18.5v31c1.8-3.5,3.7-6.9,5.7-10.3
		V211.6z"/>
	<path class="st4" d="M149.3,164.2L169,294.4c0.7-1.1,1.6-2.3,2.5-3.5c3.2-4,7.6-8.1,13.9-12.1c5.3-16,11.7-31.4,19.2-46.3h-23.9
		v-84.7h-73.6v8.8l33.3,0C144.8,156.7,148.6,159.9,149.3,164.2z M159.8,155.3h11.5v11.5h-11.5V155.3z M159.8,173.2h11.5v11.5h-11.5
		V173.2z M159.8,191h11.5v11.5h-11.5V191z M159.8,208.9h11.5v11.5h-11.5V208.9z"/>
	<path class="st4" d="M549.9,272.3h-21.2c-2.2,17.3-10.2,45.9-36.8,73.3c55.6-12,101.6-35,121.2-75.7h-53.8v-9.7h57.8
		c0.8-2.1,1.4-4.3,2.1-6.6h-59.7V244h61.9c0.3-1.6,0.5-3.2,0.8-4.8h-72.2V272.3z"/>
	<path class="st4" d="M416.1,256.1c0-0.4,0-0.7,0-1.1c-1.5,0.7-3.2,0.9-4.8,0.6c0,0,0,0,0,0c-1,0.1-2.1,0-3.1-0.1
		c-3.5-0.7-6.3-2.9-7.8-5.8l-28.3-32.9h-39.2v43.1h-50.4c-7.6,29.1-15.3,23-67.9,36.9l-6.5-12.1l40.5-28.9l0,0l0,0l-2.6-53.1
		l-0.1-0.2c-1.8,2-3.5,4.2-5,6.3c0,0,0,0,0,0l0,0c0,0,0,0,0,0l0,0c0,0,0,0,0,0l0,0l-2-5.1v4.9h-9.9v-8.7h8.4l-2-5h-8.8
		c-1.1,1.7-2.2,3.3-3.3,5h0.6v8.7h-6.1c-0.6,1-1.2,2-1.8,3h7.7v8.7h-9.9v-4.9c-2,3.4-3.9,6.9-5.7,10.3v6.7h-3.5
		c-7.5,14.9-13.9,30.3-19.2,46.3c3.5-2.2,7.5-4.4,12.1-6.4c0,0-1.4,11.9-4.8,23.7c0.8-0.9,1.5-1.7,2.2-2.3c0,0,6.2-6.7,10.8-7.1
		c0.3,0,0.5,0,0.8,0.1l2-1.3l5.1,9.5l-3.4,1c-0.1,0.2-0.2,0.3-0.3,0.5c0,0.1,0,0.1,0,0.2c-0.7,1.6-1.5,3.5-2.4,5.5
		c4.9-0.8,10.8-1.3,17.8-1.6c0,0-16.9,30.3-30,38.3c0,0,0.1,0,0.1,0c3.3-1.5,17.1-7.1,46.1-6.5c0,0-6.1,6.4-14.3,13.3
		c59.7,9.1,151.9,16.6,232.3,5.5C411.1,306.5,416.1,256.1,416.1,256.1z M228.7,211.6h9.9v8.7h-9.9V211.6z M228.4,223.4h9.9v8.7h-9.9
		V223.4z M213.5,223.4h9.9v8.7h-9.9V223.4z M349.4,300.5h-9.3v-78.4h9.3V300.5z M362.9,283.9h-9.3v-61.8h9.3V283.9z"/>
	
		<rect x="407.6" y="219.6" transform="matrix(0.1875 -0.9823 0.9823 0.1875 117.8505 581.6985)" class="st4" width="5.9" height="0"/>
	<path class="st4" d="M421,194.9v-5.4h13.9v13.9h-4.2c0.8,1.8,1.2,3.6,1.4,5.6h2.7v4.6c5.6-4.6,12-8,18.8-10.1h-11.5v-13.9h13.9
		v13.2c2.4-0.7,4.8-1.2,7.3-1.5v-11.7h13.9v11.2c2.5,0.2,4.9,0.5,7.3,1v-12.2h13.9v13.9h-6.9c6.4,2,12.4,5.1,17.7,9.2v-49.2h-47.5
		c0.5,1,1.9,2.9,0.7,3.1c-1-0.5-1.1-2.2-1.8-3.1c0,0,0,0,0,0H412v34.5C414.7,195.8,417.9,194.5,421,194.9z M484.7,170h13.9v13.9
		h-13.9V170z M471.4,189C471.3,189,471.3,189,471.4,189c-1-0.3-0.5-0.8-1.3-2.7c-0.1-0.3,0.1-0.6,0.3-0.6c0.3-0.1,0.5,0.1,0.6,0.3
		c0.5,1.4,0.7,2.2,0.8,2.4l-0.5,0.1L471.4,189z M463.6,168.4c0.3-0.1,0.6,0,0.7,0.3c0,0.3,0.3,0.8,0.6,1.4h12.5v13.9h-13.9V170h0.3
		c-0.1-0.4-0.3-0.7-0.4-1C463.2,168.8,463.3,168.5,463.6,168.4z M442.2,170h13.9v13.9h-13.9V170z M421,170h13.9v13.9H421V170z"/>
	<path class="st4" d="M412.6,209.1c1-4.9,4.2-9,8.5-11.2v0C416.7,200.1,413.6,204.2,412.6,209.1L412,212v0L412.6,209.1z"/>
	<rect x="159.8" y="155.3" class="st3" width="11.5" height="11.5"/>
	<rect x="159.8" y="173.2" class="st3" width="11.5" height="11.5"/>
	<rect x="159.8" y="191" class="st3" width="11.5" height="11.5"/>
	<rect x="159.8" y="208.9" class="st3" width="11.5" height="11.5"/>
	<path class="st3" d="M214,208.6h3.8c1.8-2.9,3.6-5.8,5.5-8.7H214V208.6z"/>
	<path class="st3" d="M223.9,208.6v-8.7h-0.6c-1.9,2.9-3.7,5.8-5.5,8.7H223.9z"/>
	<polygon class="st3" points="237.3,199.8 228.9,199.8 228.9,208.6 238.8,208.6 238.8,203.6 238.5,202.9 	"/>
	<path class="st3" d="M213.8,215.4c0.7-1.3,1.5-2.6,2.2-3.8h-2.2V215.4z"/>
	<path class="st3" d="M213.8,220.3h9.9v-8.7H216c-0.8,1.3-1.5,2.5-2.2,3.8V220.3z"/>
	<rect x="228.7" y="211.6" class="st3" width="9.9" height="8.7"/>
	<rect x="213.5" y="223.4" class="st3" width="9.9" height="8.7"/>
	<rect x="228.4" y="223.4" class="st3" width="9.9" height="8.7"/>
	<rect x="340.2" y="222.1" class="st3" width="9.3" height="78.4"/>
	<rect x="353.7" y="222.1" class="st3" width="9.3" height="61.8"/>
	<rect x="421" y="170" class="st3" width="13.9" height="13.9"/>
	<rect x="442.2" y="170" class="st3" width="13.9" height="13.9"/>
	<path class="st3" d="M465,172.2c-0.7-0.4-1-1.3-1.3-2.2h-0.3v13.9h13.9V170h-12.5C465.4,171,465.9,172,465,172.2z M468.3,179.8
		c0.3-0.1,0.5,0,0.7,0.3c0.1,0.9,1.9,3.3,0.6,3.6c0,0,0,0,0,0h0c0,0,0,0,0,0c-1-0.5-1-2.3-1.5-3.2
		C467.9,180.2,468,179.9,468.3,179.8z M466,174.1c0.3-0.1,0.5,0,0.6,0.3c0.1,0.8,2,3.3,0.7,3.6c0,0,0,0,0,0h0c0,0,0,0,0,0
		c-1-0.5-1-2.2-1.6-3.2C465.6,174.5,465.8,174.2,466,174.1z"/>
	<rect x="484.7" y="170" class="st3" width="13.9" height="13.9"/>
	<path class="st3" d="M425,196.4c0.1,0.1,0.3,0.2,0.4,0.3c2.5,1.9,4.3,4.2,5.4,6.6h4.2v-13.9H421v5.4
		C422.4,195.1,423.7,195.6,425,196.4c-1.4,0.3-2.7,0.8-3.9,1.4v0C422.3,197.2,423.6,196.8,425,196.4z"/>
	<path class="st3" d="M442.2,189.5v13.9h11.5c0.8-0.2,1.6-0.5,2.4-0.7v-13.2H442.2z"/>
	<path class="st3" d="M463.5,189.5v11.7c4.6-0.7,9.3-0.8,13.9-0.5v-11.2H463.5z"/>
	<path class="st3" d="M498.6,189.5h-13.9v12.2c2.4,0.4,4.7,1,7,1.8h6.9V189.5z"/>
	<path class="st3" d="M432.2,209c0.2,2.3,0.1,4.7-0.3,7.2c1-0.9,2-1.8,3-2.7V209H432.2z"/>
	<path class="st3" d="M559.4,253.7h59.7c0.9-3.1,1.6-6.4,2.2-9.7h-61.9V253.7z"/>
	<path class="st3" d="M559.3,269.9H613c1.5-3.1,2.8-6.3,4-9.7h-57.8V269.9z"/>
	<path class="st3" d="M167.8,378.3c0-0.6,0-1.2,0.1-1.8l-46.7,0L167.8,378.3z"/>
	<path class="st3" d="M96.8,376.5l-29.6,0l100.5,11.7c0-2.3,0-4.6,0.1-6.8C132.2,378.6,105.9,376.6,96.8,376.5z"/>
	<path class="st3" d="M173.6,376.5C173.6,376.5,173.6,376.5,173.6,376.5L173.6,376.5l-5.7,0c0,0.6,0,1.2-0.1,1.8l377.9,14.2
		c0,0,0,0,0,0l80.4-14.6l-448.9-1.5c-1,0.1-2,0.1-3,0.1C174.1,376.5,173.9,376.5,173.6,376.5z"/>
	<path class="st3" d="M509.3,399.1c-75.1,3.7-243.6-10-341.5-17.7c0,2.3-0.1,4.6-0.1,6.8L412,416.7L509.3,399.1z"/>
	<path class="st5" d="M545.8,392.5l-36.5,6.6C528.4,398.1,541.4,396,545.8,392.5z"/>
	<path class="st5" d="M121.2,376.5l-24.4,0c9.1,0.1,35.4,2.1,71,4.9c0-1,0-2.1,0.1-3.1L121.2,376.5z"/>
	<path class="st5" d="M167.8,378.3c0,1-0.1,2.1-0.1,3.1c98,7.7,266.4,21.4,341.5,17.7l36.5-6.6c0,0,0,0,0,0L167.8,378.3z"/>
	<path class="st1" d="M195.3,338.9c-0.5,0.2-0.8,0.4-0.8,0.4C194.8,339.2,195,339,195.3,338.9c-5.2-2-10.1-4.1-14.8-6.3l4.5,20.9
		c1.7,8.6,7.3,15.2,14.6,19.5c18.3-4.3,34.8-10.8,34.8-10.8c-15.1-3.9-25.3-2.6-30.4-1.3c-1.3,0.5-2.5,1-3.8,1.3
		c0,0,1.3-0.6,3.8-1.3c7.6-3.1,16.1-9.3,23.1-15.1c-8.9-1.4-17.1-2.7-24.5-4.1C200.1,340.7,197.7,339.8,195.3,338.9z"/>
	<path class="st1" d="M204,360.8c-2.5,0.6-3.8,1.3-3.8,1.3C201.5,361.8,202.7,361.3,204,360.8z"/>
	<path class="st1" d="M171.5,290.9l4.6,21.3c2.6-11.4,5.7-22.5,9.3-33.4C179.2,282.8,174.7,286.9,171.5,290.9z"/>
	<path class="st1" d="M183.7,315.1c0.3-0.3,0.6-0.7,1-1.1c0-0.6,0.1-1.3,0.2-1.9C183.7,313.9,183.7,315.1,183.7,315.1z"/>
	<path class="st1" d="M180.5,332.6c4.7,2.2,9.6,4.3,14.7,6.3c13.1-8.1,30-38.3,30-38.3c-7.1,0.2-13,0.8-17.8,1.6
		c-3.3,7.8-7.9,17.5-16.8,19.4c-2.6,0.4-5.1-1.4-5.6-4c-0.2-0.7-0.4-1.4-0.4-2.2c0-0.4,0-0.8,0-1.2c-0.3,0.4-0.6,0.8-1,1.1
		c0,0,0-1.2,1.1-3c0.9-5.6,4.6-12.2,7.9-16.1c3.4-11.7,4.8-23.7,4.8-23.7c-4.6,2.1-8.6,4.2-12.1,6.4c-3.6,10.9-6.7,22.1-9.3,33.4
		L180.5,332.6z"/>
	<path class="st1" d="M241.4,332.4c-29-0.6-42.8,4.9-46.1,6.5c2.4,0.9,4.8,1.8,7.3,2.7c7.3,1.4,15.5,2.8,24.5,4.1
		C235.3,338.8,241.4,332.4,241.4,332.4z"/>
	<path class="st2" d="M185.1,353.4l-4.5-20.9c-2.1-1-4.2-2-6.2-3.1l5.9,39.3c0.1,0.5,0.1,1,0.1,1.5c-0.1,3.1-2.4,5.6-5.3,6.1l2.2,0
		c7.1-0.4,14.9-1.7,22.4-3.5C192.4,368.7,186.8,362,185.1,353.4z"/>
	<path class="st2" d="M176.1,312.2l-4.6-21.3c-0.9,1.2-1.8,2.4-2.5,3.5l4.6,30.2C174.4,320.5,175.2,316.3,176.1,312.2z"/>
	<path class="st2" d="M173.6,324.6l0.7,4.9c2,1.1,4.1,2.1,6.2,3.1l-4.4-20.4C175.2,316.3,174.4,320.5,173.6,324.6z"/>
	<polygon class="st2" points="173.6,376.5 173.6,376.5 173.6,376.5 173.6,376.5 	"/>
	<path class="st2" d="M174.3,376.5c1,0,2,0,3-0.1l-2.2,0C174.8,376.4,174.6,376.5,174.3,376.5z"/>
	<path class="st6" d="M163.6,323.6l4.3,28.2l1.1,7.1c0.2-2.7,0.5-5.3,0.8-8l-4-26C165,324.4,164.3,324,163.6,323.6z"/>
	<path class="st6" d="M107.1,376.3l6.7-0.1l1.9,0.1l16-0.1l36.1,0.1c0.2-5.4,0.5-10.7,0.9-16l-9,0l-37.9,0l-31.3,0l-13.9,0l-13.5,0
		l-1.5-9.8l-3.9-26.1l-1.6-10.6l7.5,62.6c0,0,0,0-0.1,0c0,0,0.1,0,0.1,0l3.5,0l0,0L107.1,376.3z"/>
	<path class="st6" d="M56.2,313.7l-3.6-24l-4.1-27.2l-5.3-34.8l-8.3-54.9l51.4,0c0.1-1.8,0.3-3.6,0.5-5.4l-10.5,0
		c-1,0-1.8-0.7-2-1.7c-0.1-0.8,0.4-1.5,1.2-1.7c0.1,0,0.2,0,0.3,0l11.4,0c0.3-2.4,0.7-4.9,1.1-7.3l-57.9,0c-3.6-0.1-6.6,2.7-6.7,6.2
		c0,0.5,0,1,0.1,1.5L45,304.6C49.4,307.2,53.5,310.3,56.2,313.7z"/>
	<path class="st6" d="M169.7,350.9c-0.3,2.7-0.5,5.3-0.8,8l0.2,1.5l-0.3,0c-0.4,5.3-0.7,10.7-0.9,16l5.7,0L169.7,350.9z"/>
	<path class="st6" d="M56.2,313.9l0-0.2c-2.7-3.4-6.8-6.4-11.2-9.1l9.7,64.3c0.8,4.3,4.5,7.5,8.9,7.7c0,0,0.1,0,0.1,0L56.2,313.9z"
		/>
	<path class="st6" d="M95.8,163.9c1,0,1.8,0.7,2,1.7c0.1,0.8-0.4,1.5-1.2,1.7c-0.1,0-0.2,0-0.3,0l-9.5,0c-0.2,1.8-0.4,3.6-0.5,5.4
		l8.9,0l11.9,0v-16.2l-18.8,0c-0.4,2.4-0.8,4.9-1.1,7.3L95.8,163.9z"/>
	<path class="st6" d="M140.8,172.7L140.8,172.7l3.1,20.5l5.2,34.4l4,26.5l5.2,34.4l4.4,28.8l0.9,6.3c0.7,0.4,1.4,0.9,2.2,1.3
		L164,313c0,0-1.5-8.3,5.1-18.6l-19.7-130.2c-0.8-4.4-4.5-7.6-9-7.7l-33.3,0v16.2l25.9,0L140.8,172.7z"/>
	<path class="st6" d="M96.7,376.5l10.4-0.2l-39.9,0.2l0,0l29.6,0C96.7,376.5,96.7,376.5,96.7,376.5z"/>
	<path class="st6" d="M167.9,376.5c0,0,0-0.1,0-0.1l-36.1-0.1l-16,0.1l5.4,0.2L167.9,376.5z"/>
	<path class="st6" d="M173.6,376.5l0-0.1l-5.7,0c0,0,0,0.1,0,0.1L173.6,376.5z"/>
	<polygon class="st6" points="113.8,376.2 107.1,376.3 115.7,376.3 	"/>
	<path class="st6" d="M115.7,376.3l-8.7,0l-10.4,0.2c0,0,0.1,0,0.1,0l24.4,0L115.7,376.3z"/>
	<path class="st6" d="M165.8,324.8l4,26c0.8-7.5,1.9-14.8,3.1-22.1C170.4,327.5,168.1,326.2,165.8,324.8z"/>
	<path class="st6" d="M169.7,350.9l3.9,25.5l1.5,0c2.9-0.6,5.2-3,5.3-6.1c0-0.5,0-1-0.1-1.5l-5.9-39.3c-0.5-0.3-1-0.5-1.5-0.8
		C171.6,336,170.5,343.4,169.7,350.9z"/>
	<path class="st6" d="M173.6,324.6l-4.6-30.2c-6.6,10.3-5.1,18.6-5.1,18.6l1.8,11.9c2.3,1.3,4.7,2.6,7.1,3.9
		C173.1,327.4,173.3,326,173.6,324.6z"/>
	<path class="st6" d="M172.8,328.7c0.5,0.3,1,0.5,1.5,0.8l-0.7-4.9C173.3,326,173.1,327.4,172.8,328.7z"/>
	<path class="st6" d="M173.6,376.5L173.6,376.5C173.6,376.5,173.6,376.5,173.6,376.5c0.2,0,0.5,0,0.7,0c0.3,0,0.5-0.1,0.8-0.1
		l-1.5,0L173.6,376.5z"/>
	<path class="st7" d="M86,177l-40.4,3.1l6.6,38.1l33.6-35.5C85.9,180.8,85.9,178.9,86,177z"/>
	<path class="st7" d="M94.2,239.9c-2.3-6.6-4-13.4-5.4-20.3l-30.8,32.7l4.6,26.7l12.1-12.8C72.5,252.3,78.9,241.7,94.2,239.9z"/>
	<path class="st7" d="M167.9,351.8l-8,8.5l9,0c0-0.5,0.1-1,0.1-1.5L167.9,351.8z"/>
	<path class="st7" d="M140.6,307.3L124.9,324c9.9,0.4,17.6,1.3,17.1,2.7c0.6,1.7-10.1,2.6-22.3,2.8l-29,30.8l31.3,0l37.4-39.4
		C152.5,316.6,146.3,312.1,140.6,307.3z"/>
	<path class="st7" d="M87.7,292.8l-19.1,20.3l4.4,25.6l29.2-30.9C96.5,303,91.6,297.9,87.7,292.8z"/>
	<path class="st7" d="M168.9,358.9c0,0.5-0.1,1-0.1,1.5l0.3,0L168.9,358.9z"/>
	<path class="st7" d="M99.6,240l7.5-7.9v-31.9l-18.2,19.4c1.3,6.9,3.1,13.6,5.4,20.3c0.5-0.1,1-0.1,1.4-0.1
		C97,239.7,98.3,239.8,99.6,240z"/>
	<path class="st7" d="M91.6,176.5L86,177c-0.1,1.9-0.2,3.8-0.2,5.7L91.6,176.5z"/>
	<path class="st7" d="M158.3,288.5l-17.7,18.8c5.7,4.8,11.9,9.3,18.6,13.6l3.4-3.6L158.3,288.5z"/>
	<polygon class="st7" points="107.1,232.1 143.9,193.2 140.8,172.7 140.8,172.7 132.4,173.4 107.1,200.2 	"/>
	<path class="st7" d="M128,266.1c0,0,1.7,5.2,1.6,12.8l23.5-24.8l-4-26.5l-26,27.5C125.4,258.5,127.1,262.2,128,266.1z"/>
	<path class="st8" d="M45.6,180.1L86,177c0.1-1.4,0.2-2.8,0.3-4.2l-51.4,0l8.3,54.9l9-9.5L45.6,180.1z"/>
	<polygon class="st8" points="58.1,252.3 48.5,262.4 52.6,289.6 62.7,279 	"/>
	<polygon class="st8" points="68.6,313.1 57.8,324.5 61.8,350.5 73,338.7 	"/>
	<path class="st8" d="M91.6,176.5l3.6-3.8l-8.9,0c-0.1,1.4-0.2,2.8-0.3,4.2L91.6,176.5z"/>
	<polygon class="st8" points="133,172.7 132.4,173.4 140.8,172.7 	"/>
	<path class="st7" d="M85.4,326.7c-0.9-2.4,22.5-3.3,39.5-2.7l15.7-16.7c-4.9-4.1-9.4-8.4-13.6-12.9c-2.4,7-6.7,14.4-14.3,21.3
		c-3.7-2.6-7.2-5.2-10.4-7.9L73,338.7l3.7,21.7l13.9,0l29-30.8C103.5,329.8,84.6,328.9,85.4,326.7z"/>
	<path class="st9" d="M85.4,326.7c-0.9-2.4,22.5-3.3,39.5-2.7l15.7-16.7c-4.9-4.1-9.4-8.4-13.6-12.9c-2.4,7-6.7,14.4-14.3,21.3
		c-3.7-2.6-7.2-5.2-10.4-7.9L73,338.7l3.7,21.7l13.9,0l29-30.8C103.5,329.8,84.6,328.9,85.4,326.7z"/>
	<path class="st7" d="M153.1,254.1L129.6,279c0,4.5-0.7,9.8-2.6,15.4c4.2,4.5,8.7,8.8,13.6,12.9l17.7-18.8L153.1,254.1z"/>
	<path class="st9" d="M153.1,254.1L129.6,279c0,4.5-0.7,9.8-2.6,15.4c4.2,4.5,8.7,8.8,13.6,12.9l17.7-18.8L153.1,254.1z"/>
	<polygon class="st8" points="61.8,350.5 63.3,360.3 76.7,360.3 73,338.7 	"/>
	<polygon class="st9" points="61.8,350.5 63.3,360.3 76.7,360.3 73,338.7 	"/>
	<path class="st7" d="M163.6,323.6c-1.5-0.9-2.9-1.8-4.3-2.7l-37.4,39.4l37.9,0l8-8.5L163.6,323.6z"/>
	<path class="st9" d="M163.6,323.6c-1.5-0.9-2.9-1.8-4.3-2.7l-37.4,39.4l37.9,0l8-8.5L163.6,323.6z"/>
	<path class="st7" d="M159.3,320.9c1.4,0.9,2.9,1.8,4.3,2.7l-0.9-6.3L159.3,320.9z"/>
	<path class="st9" d="M159.3,320.9c1.4,0.9,2.9,1.8,4.3,2.7l-0.9-6.3L159.3,320.9z"/>
	<path class="st7" d="M74.8,266.2L62.7,279l5.9,34.1l19.1-20.3C80.4,283.6,76.1,274.3,74.8,266.2z"/>
	<path class="st9" d="M74.8,266.2L62.7,279l5.9,34.1l19.1-20.3C80.4,283.6,76.1,274.3,74.8,266.2z"/>
	<path class="st7" d="M107.1,242.1v-10l-7.5,7.9C102.2,240.4,104.7,241.1,107.1,242.1z"/>
	<path class="st9" d="M107.1,242.1v-10l-7.5,7.9C102.2,240.4,104.7,241.1,107.1,242.1z"/>
	<path class="st7" d="M107.1,242.1c6.4,2.6,12.1,7.3,16,13.1l26-27.5l-5.2-34.4l-36.8,38.9V242.1z"/>
	<path class="st9" d="M107.1,242.1c6.4,2.6,12.1,7.3,16,13.1l26-27.5l-5.2-34.4l-36.8,38.9V242.1z"/>
	<polygon class="st8" points="62.7,279 52.6,289.6 56.2,313.7 56.2,313.7 56.2,313.9 57.8,324.5 68.6,313.1 	"/>
	<polygon class="st9" points="62.7,279 52.6,289.6 56.2,313.7 56.2,313.7 56.2,313.9 57.8,324.5 68.6,313.1 	"/>
	<polygon class="st8" points="56.2,313.7 56.2,313.9 56.2,313.7 	"/>
	<polygon class="st9" points="56.2,313.7 56.2,313.9 56.2,313.7 	"/>
	<path class="st7" d="M85.8,182.7l-33.6,35.5l5.9,34.1l30.8-32.7C86.5,207.5,85.5,195.1,85.8,182.7z"/>
	<path class="st9" d="M85.8,182.7l-33.6,35.5l5.9,34.1l30.8-32.7C86.5,207.5,85.5,195.1,85.8,182.7z"/>
	<path class="st7" d="M88.8,219.6l18.2-19.4v-24.9l-15.5,1.2l-5.8,6.2C85.5,195.1,86.5,207.5,88.8,219.6z"/>
	<path class="st9" d="M88.8,219.6l18.2-19.4v-24.9l-15.5,1.2l-5.8,6.2C85.5,195.1,86.5,207.5,88.8,219.6z"/>
	<polygon class="st7" points="132.4,173.4 107.1,175.3 107.1,200.2 	"/>
	<polygon class="st9" points="132.4,173.4 107.1,175.3 107.1,200.2 	"/>
	<polygon class="st8" points="52.2,218.2 43.2,227.6 48.5,262.4 58.1,252.3 	"/>
	<polygon class="st9" points="52.2,218.2 43.2,227.6 48.5,262.4 58.1,252.3 	"/>
	<polygon class="st8" points="107.1,175.3 107.1,172.7 95.2,172.7 91.6,176.5 	"/>
	<polygon class="st9" points="107.1,175.3 107.1,172.7 95.2,172.7 91.6,176.5 	"/>
	<polygon class="st8" points="132.4,173.4 133,172.7 107.1,172.7 107.1,175.3 	"/>
	<polygon class="st9" points="132.4,173.4 133,172.7 107.1,172.7 107.1,175.3 	"/>
	<path class="st5" d="M75.8,163.9c-0.1,0-0.2,0-0.3,0c-0.8,0.1-1.3,0.9-1.2,1.7c0.2,1,1,1.7,2,1.7l10.5,0c0.1-1.1,0.3-2.3,0.4-3.4
		L75.8,163.9z"/>
	<path class="st5" d="M96.7,167.3c0.8-0.1,1.3-0.9,1.2-1.7c-0.2-1-1-1.7-2-1.7l-8.6,0c-0.1,1.1-0.3,2.3-0.4,3.4l9.5,0
		C96.5,167.3,96.6,167.3,96.7,167.3z"/>
	<path class="st10" d="M94.2,239.9c-15.3,1.8-21.7,12.5-19.4,26.3l20.9-22.1C95.2,242.7,94.7,241.3,94.2,239.9z"/>
	<path class="st10" d="M108.9,271c-0.6,0.8-1.5,1.5-2.4,1.9l-18.8,20c4,5.1,8.8,10.1,14.6,15l18.9-20
		C116.6,282.4,112.5,276.8,108.9,271z"/>
	<path class="st10" d="M99.6,240c-1.3-0.2-2.6-0.3-3.9-0.3c-0.5,0-1,0.1-1.4,0.1c0.5,1.4,1,2.8,1.5,4.2L99.6,240z"/>
	<path class="st10" d="M123.1,255.2l-13.4,14.2c-0.2,0.6-0.5,1.1-0.9,1.6c3.6,5.8,7.7,11.5,12.3,16.9l8.4-8.9
		c0.1-7.6-1.6-12.8-1.6-12.8C127.1,262.2,125.4,258.5,123.1,255.2z"/>
	<path class="st10" d="M102.2,307.8c3.2,2.7,6.7,5.4,10.4,7.9c7.6-6.9,12-14.3,14.3-21.3c-2-2.1-4-4.3-5.8-6.6L102.2,307.8z"/>
	<path class="st10" d="M121.2,287.9c1.9,2.2,3.8,4.4,5.8,6.6c1.9-5.6,2.6-11,2.6-15.4L121.2,287.9z"/>
	<path class="st10" d="M90.6,264c-1.2-7.8,4.1-10.4,9.4-9.4c-1.6-3.4-3-6.9-4.3-10.4l-20.9,22.1c1.3,8.2,5.7,17.4,12.9,26.6l18.8-20
		C101.1,275.3,91.9,271.4,90.6,264z"/>
	<path class="st10" d="M95.7,244.1c1.3,3.5,2.8,7,4.3,10.4c2.5,0.5,5.1,1.7,7,3.7v-16.1c-2.4-1-4.9-1.7-7.5-2.1L95.7,244.1z"/>
	<path class="st10" d="M110.2,264c0.3,2.2,0.1,4-0.4,5.4l13.4-14.2c-3.9-5.8-9.7-10.5-16-13.1v16.1
		C108.6,259.7,109.8,261.7,110.2,264z"/>
	<path class="st11" d="M106.5,272.9c0.9-0.4,1.8-1.1,2.4-1.9c-0.1-0.1-0.2-0.3-0.2-0.4L106.5,272.9z"/>
	<path class="st11" d="M108.7,270.6c0.1,0.1,0.2,0.3,0.2,0.4c0.4-0.5,0.6-1,0.9-1.6L108.7,270.6z"/>
	<path class="st11" d="M107.3,268.4c-2.7-4.5-5.1-9.1-7.3-13.8c-5.4-1-10.6,1.7-9.4,9.4c1.3,7.5,10.5,11.4,15.8,8.9l2.2-2.3
		C108.2,269.8,107.8,269.1,107.3,268.4z"/>
	<path class="st11" d="M107.1,264.6v-6.4c-1.9-1.9-4.5-3.2-7-3.7c2.2,4.7,4.6,9.3,7.3,13.8L107.1,264.6L107.1,264.6z"/>
	<path class="st11" d="M110.2,264c-0.4-2.3-1.5-4.2-3.1-5.8v6.4l0,0l0.2,3.8c0.4,0.7,0.9,1.5,1.3,2.2l1.1-1.2
		C110.3,267.9,110.5,266.2,110.2,264z"/>
	<path class="st5" d="M142,326.7c0.5-1.4-7.2-2.3-17.1-2.7l-5.2,5.5C131.9,329.3,142.6,328.3,142,326.7z"/>
	<path class="st5" d="M85.4,326.7c-0.8,2.2,18.1,3.1,34.3,2.8l5.2-5.5C107.9,323.3,84.5,324.2,85.4,326.7z"/>
	<path class="st6" d="M291.6,168.6c0.8-0.1,1.5-0.3,2.3-0.4C293.8,168.3,293,168.4,291.6,168.6z"/>
	<path class="st6" d="M293.8,168.3c0,0-21.4,10.1-38.7,25.1l-0.1,1.4h20.5v65h7c2.3-8.7,4.6-20.6,8-37.1l61.4-29.5l0,0l-61.4,29.5
		l4.5-30.9c14.5,7.1,31.7,5.8,45-3.5c5.8-4.6,12.6-8.6,18.2-1.2l20.1,29.6h25l1.4-2.1c0,0-0.1,0.8-0.4,2.1h0l0.4-2.1l-37.2-54
		c-2.8-4-7.7-5.9-12.5-4.8l-61.2,12.3C293.8,168.2,293.8,168.2,293.8,168.3C293.8,168.3,293.8,168.3,293.8,168.3z"/>
	<polygon class="st6" points="403.2,216.7 378.2,216.7 391,235.6 	"/>
	<polygon class="st6" points="405.9,243.8 405.9,243.8 405.9,243.8 410,222.5 410,222.5 	"/>
	<path class="st6" d="M275.5,194.8H255l-6.4,60.9l0,0l-40.5,28.9l6.5,12.1c52.6-13.9,60.3-7.8,67.9-36.9h-7V194.8z"/>
	<path class="st6" d="M399.1,243.2c-0.3,2.4,0.2,4.2,0.8,5.5C399.2,246.9,398.9,245.1,399.1,243.2z"/>
	<path class="st6" d="M399.2,242.6c0-0.1,0-0.2,0-0.3l4.9-25.6h0c-1.1,5.7-4.1,21.3-4.9,25.6C399.3,242.4,399.2,242.5,399.2,242.6z"
		/>
	<path class="st6" d="M245.8,202.4l0.1,0.2l0-0.3C245.9,202.4,245.9,202.4,245.8,202.4z"/>
	<path class="st12" d="M241.2,207.8c-0.1,0.3-0.3,0.6-0.4,0.9c1.5-2.2,3.2-4.3,5-6.3l-1-1.8C243.6,202.9,242.1,205.7,241.2,207.8z"
		/>
	<polygon class="st12" points="240.8,208.8 240.8,208.8 240.8,208.7 	"/>
	<path class="st12" d="M248.4,194.8h2.5l4.7-6.3l-0.5,4.9c17.4-15.1,38.7-25.1,38.7-25.1c0,0,0,0,0,0c-0.8,0.1-1.5,0.2-2.3,0.4
		C284.5,169.9,262.5,175.4,248.4,194.8z"/>
	<path class="st12" d="M245.9,201.5l5-6.7h-2.5c-0.4,0.5-0.8,1.1-1.2,1.7c0,0.1-1.1,1.9-2.4,4.2l1,1.8c0,0,0.1-0.1,0.1-0.1
		L245.9,201.5z"/>
	<polygon class="st12" points="246,202.6 248.5,255.8 248.6,255.7 246.1,202.9 	"/>
	<path class="st12" d="M255,194.8l0.1-1.4c-0.5,0.5-1.1,0.9-1.6,1.4H255z"/>
	<path class="st12" d="M253.5,194.8c-2.7,2.4-5.2,4.9-7.6,7.5l0,0.3l0.2,0.3l2.4,52.8l6.4-60.9H253.5z"/>
	<path class="st12" d="M250.9,194.8h2.6c0.5-0.5,1.1-0.9,1.6-1.4l0.5-4.9L250.9,194.8z"/>
	<path class="st12" d="M245.9,201.5l0,0.9c2.3-2.6,4.9-5.1,7.6-7.5h-2.6L245.9,201.5z"/>
	
		<rect x="362" y="189.5" transform="matrix(0.8944 -0.4472 0.4472 0.8944 -53.4528 183.5256)" class="st12" width="0" height="30.9"/>
	<polygon class="st12" points="399.5,248.6 372.1,216.7 372.1,216.7 400.3,249.6 400.3,249.6 	"/>
	<path class="st12" d="M372.1,216.7h6.1l-20.1-29.6c-5.6-7.4-12.5-3.3-18.2,1.2c-13.2,9.2-30.5,10.5-45,3.5l-4.5,30.9l61.4-29.5l0,0
		l0,0L372.1,216.7z"/>
	<polygon class="st12" points="399.5,248.6 389.9,237.4 391,235.6 378.2,216.7 372.1,216.7 	"/>
	<path class="st6" d="M411.1,216.7l0.9-4.7v-14.1c-3.2,2.5-5.6,6.2-6.1,9.7l-1.3,7l1.4,2.1H411.1z"/>
	<path class="st6" d="M412.6,209.1c1-4.9,4.2-9,8.5-11.2v-3c-3.1-0.4-6.3,0.9-9,3V212L412.6,209.1z"/>
	<polygon class="st6" points="411.1,216.7 406,216.7 410,222.5 	"/>
	<path class="st6" d="M404.9,247.1l-3.9,3.3l0,0l0,0l0,0c0,0,0,0,0,0l0,0l-0.1-0.1c0,0-0.1-0.1-0.1-0.1l-0.5-0.6
		c1.5,2.9,4.3,5.2,7.8,5.8c1,0.2,2.1,0.2,3.1,0.1c0,0,0,0,0,0c-0.8-0.2-1.7-0.5-2.4-0.9C406.1,253.1,404.7,250.1,404.9,247.1z"/>
	<path class="st6" d="M421,194.9v3c1.2-0.6,2.5-1.1,3.9-1.4C423.7,195.6,422.4,195.1,421,194.9z"/>
	<polygon class="st6" points="406,216.7 404.6,214.6 404.2,216.7 	"/>
	<path class="st6" d="M399.2,242.6c0,0.2-0.1,0.4-0.1,0.6c-0.2,1.9,0.1,3.8,0.8,5.5c0.1,0.1,0.1,0.2,0.2,0.4l0.9,1.4l0,0l3.9-3.3
		c0.1-1.1,0.4-2.2,1-3.3c0,0,0,0,0,0l4.1-21.3l-4-5.8h-1.8l-4.9,25.6C399.3,242.4,399.2,242.5,399.2,242.6z"/>
	<path class="st6" d="M401,250.4L401,250.4C401,250.3,401,250.3,401,250.4L401,250.4z"/>
	<path class="st6" d="M400.8,250.1l-0.4-0.5c0,0,0,0,0,0L400.8,250.1C400.8,250.2,400.8,250.1,400.8,250.1z"/>
	<polygon class="st6" points="400.8,250.1 401,250.3 401,250.3 400.8,250.1 	"/>
	<path class="st6" d="M400.8,250.1l0.2,0.3l-0.9-1.4C400.3,249.5,400.6,249.9,400.8,250.1z"/>
	<polygon class="st12" points="412,216.7 412,212 411.1,216.7 	"/>
	<path class="st12" d="M421,222.9V209h11.2c-0.2-1.9-0.6-3.8-1.4-5.6H421v-5.5c-4.3,2.2-7.5,6.3-8.5,11.2L412,212v4.7h-0.9l-1.1,5.8
		l8.8,12.8l-13.1,11c0.2,3.8,2.2,7.2,5.5,9.2c1.6,0.3,3.3,0.1,4.8-0.6c0.2-13.1,4-23.8,10.1-32.1H421z"/>
	<path class="st12" d="M425.4,196.8c-0.1-0.1-0.3-0.2-0.4-0.3c-1.4,0.3-2.7,0.8-3.9,1.4v5.5h9.7
		C429.7,200.9,427.9,198.7,425.4,196.8z"/>
	<path class="st12" d="M421,222.9h5.1c1.7-2.4,3.7-4.7,5.8-6.7c0.4-2.5,0.5-4.9,0.3-7.2H421V222.9z"/>
	<path class="st12" d="M405.9,243.8c-0.2,0.9-0.2,1.7-0.2,2.6l13.1-11l-8.8-12.8L405.9,243.8C405.9,243.8,405.9,243.8,405.9,243.8z"
		/>
	<path class="st12" d="M405.8,246.4l-0.8,0.7c-0.3,3,1.2,6,4,7.6c0.8,0.4,1.6,0.7,2.4,0.9C408,253.6,405.9,250.1,405.8,246.4z"/>
	<path class="st12" d="M404.9,247.1l0.8-0.7c0-0.9,0-1.7,0.2-2.6C405.3,244.8,405,245.9,404.9,247.1z"/>
	<path class="st12" d="M404.6,214.6l-1.4,2.1h1C404.4,215.4,404.6,214.6,404.6,214.6z"/>
	<path class="st12" d="M400,248.8c0-0.1-0.1-0.2-0.1-0.2c-0.6-1.2-1.1-3-0.8-5.5c0-0.2,0.1-0.4,0.1-0.6c0-0.1,0-0.2,0-0.3
		c0.8-4.3,3.8-19.9,4.9-25.6h-1L391,235.6L400,248.8z"/>
	<path class="st12" d="M399.1,243.2c0-0.2,0.1-0.4,0.1-0.6C399.2,242.8,399.2,243,399.1,243.2z"/>
	<polygon class="st12" points="399.5,248.6 400.3,249.6 400.3,249.6 	"/>
	<path class="st12" d="M400,248.8l-9-13.2l-1.1,1.8l9.6,11.2l0.8,1C400.2,249.3,400.1,249.1,400,248.8z"/>
	<path class="st12" d="M401,250.4L401,250.4L401,250.4C401,250.3,401,250.4,401,250.4z"/>
	<path class="st12" d="M399.9,248.6c0,0.1,0.1,0.2,0.1,0.2l0.1,0.1C400,248.9,400,248.7,399.9,248.6z"/>
	<polygon class="st12" points="400.3,249.6 400.3,249.6 400.8,250.1 400.8,250.1 	"/>
	<path class="st12" d="M400.9,250.2c0,0,0.1,0.1,0.1,0.1c0,0,0,0,0,0.1l0,0L400.9,250.2C400.8,250.1,400.8,250.2,400.9,250.2z"/>
	<path class="st12" d="M400.8,250.1c-0.2-0.2-0.4-0.6-0.7-1.1l-0.1-0.1c0.1,0.2,0.2,0.5,0.4,0.7L400.8,250.1z"/>
	<path class="st6" d="M203.4,302.8c0.6-0.8,1.1-1.6,1.6-2.4c-4.5,0.6-7.4-7.9-1.6-11.8l3-2c-0.3-0.1-0.5-0.1-0.8-0.1
		c-4.6,0.4-10.8,7.1-10.8,7.1c-0.7,0.6-1.4,1.4-2.2,2.3c-1.3,4.6-2.9,9.2-4.9,13C190.7,306.8,195.4,304.5,203.4,302.8z"/>
	<path class="st6" d="M187.9,309c2-3.8,3.6-8.4,4.9-13c-3.3,4-7,10.5-7.9,16.1C185.5,311.2,186.4,310.1,187.9,309z"/>
	<path class="st6" d="M184.9,312.1c-0.1,0.7-0.2,1.3-0.2,1.9c1.1-1.4,2.2-3.1,3.2-5C186.4,310.1,185.5,311.2,184.9,312.1z"/>
	<path class="st6" d="M193.8,315c1.5-0.8,5.9-6.9,9.6-12.2c-8,1.7-12.7,4-15.6,6.2c-1,1.9-2,3.6-3.2,5c0,0.4,0,0.8,0,1.2
		C186.8,315.5,191.7,316.1,193.8,315z"/>
	<path class="st12" d="M205,300.5c-0.5,0.8-1.1,1.5-1.6,2.4c1.3-0.3,2.6-0.5,4-0.7c0.9-2,1.7-4,2.4-5.5c0-0.1,0-0.1,0-0.2
		C208.3,299.1,206.6,300.3,205,300.5z"/>
	<path class="st12" d="M193.8,315c-2.2,1.2-7,0.6-9.1,0.3c0.1,0.8,0.2,1.5,0.4,2.2c0.5,2.6,2.9,4.4,5.6,4
		c8.8-1.8,13.4-11.6,16.8-19.4c-1.4,0.2-2.8,0.5-4,0.7C199.8,308.1,195.3,314.2,193.8,315z"/>
	<path class="st13" d="M210.1,295.5c0,0.3-0.1,0.6-0.2,0.9c0.1-0.2,0.2-0.3,0.3-0.5l3.4-1l-5.1-9.5l-2,1.3
		C209.1,287.3,210.4,292.5,210.1,295.5z"/>
	<path class="st13" d="M205,300.5c2.2-3.2,3.8-5.6,3.8-5.6l1.3,0.6c0.3-3-0.9-8.2-3.6-8.8l-3,2C197.7,292.6,200.5,301,205,300.5z"/>
	<path class="st13" d="M208.8,294.8c0,0-1.6,2.4-3.8,5.6c1.5-0.2,3.2-1.4,4.8-4.1c0.1-0.3,0.1-0.6,0.2-0.9L208.8,294.8z"/>
	<polygon class="st13" points="204.8,83.4 204.8,83.4 204.8,83.4 	"/>
	<path class="st13" d="M212,99.3c0,0,9.6-1,13.3-1.2c3-0.1,5-4.3,5.7-6c-0.2-0.6-0.6-1.2-1-1.8l-6.1-7c-12.1,3.9-19.1,0-19.1,0
		c0,0,0,0,0,0l2,2.7c-7.4-2.4-2.5,7.3,1.8,3.8c3.6,5.3,2.7,6.6-0.2,11.7c0,0,0,0,0,0l3.4,7.1c2.1-1.8,4.5-3.3,7-4.4L212,99.3z
		 M217.5,92.3c2.1-0.6,9.1-1.9,9.1-1.9C225.3,93.3,215.4,92.9,217.5,92.3z"/>
	<path class="st14" d="M219.3,80.4c-4.7,1.4-9.6,2.4-14.5,2.9l0,0l0,0c0,0,0,0,0,0c0,0,7,4,19.1,0l-4-4.5c-4.3,1-8.3,1.2-8.3,1.2
		L219.3,80.4z"/>
	<path class="st5" d="M226.6,90.4c0,0-7,1.3-9.1,1.9S225.3,93.3,226.6,90.4z"/>
	<path class="st14" d="M225.4,98.2c-3.7,0.2-13.3,1.2-13.3,1.2l6.8,5c2.1-0.9,4.3-1.5,6.6-1.9l-0.6-1.4c3.3-2.2,7.9-4.8,6.3-8.8
		C230.4,93.8,228.4,98,225.4,98.2z"/>
	<path class="st6" d="M208.2,74.8L208.2,74.8c-0.8,1.1-1.6,2.1-2.2,3.1l9.2-4.3l2.1,2.4l2.6,2.9c2.9-0.7,5.9-1.7,8-3.3
		c0,0-5.3-4.9-12.3-6.1L208.2,74.8L208.2,74.8z"/>
	<path class="st6" d="M198.4,94.1c3.9,4,8.9,7.2,10.1,7.5L201,86.4C199,90.7,198.5,93.4,198.4,94.1z"/>
	<path class="st6" d="M208.6,89.9c-4.3,3.6-9.2-6.1-1.8-3.8l-2-2.7c0,0,0,0,0,0l0,0l0,0c0,0,0,0,0,0l12.5-7.4l-2.1-2.4l-9.2,4.3
		c-2.2,3.3-3.8,6.1-5,8.5l7.4,15.2c0,0,0,0,0,0C211.3,96.5,212.2,95.2,208.6,89.9z"/>
	<polygon class="st6" points="204.8,83.4 204.8,83.4 204.8,83.4 	"/>
	<path class="st6" d="M204.8,83.4c4.9-0.6,9.8-1.6,14.5-2.9l-7.7-0.3c0,0,4-0.2,8.3-1.2l-2.6-2.9L204.8,83.4z"/>
	<path class="st15" d="M208.4,64.7c1,1.5,1.6,3.2,1.6,4.9c2-0.3,3.9-0.3,5.7,0l2.5-1.8c3.1-2.2,3.2-6.3,1.6-9.5
		c-0.2-0.6-0.9-0.9-1.5-0.7c-0.1,0-0.2,0.1-0.3,0.1L208.4,64.7C208.4,64.7,208.4,64.7,208.4,64.7C208.4,64.7,208.4,64.7,208.4,64.7
		L208.4,64.7z"/>
	<path class="st15" d="M195.8,80.9c0,0-1.3-4.4,9.9-10c0.6-0.3,1.2-0.6,1.8-0.8c-0.6-2.3-1.7-4.7-3.7-5.2c-4.6,0.8-8.2,3-10.6,6
		c0.9-0.3,1.4,0.8,0.3,2.5c-1,1.7-2.2,1.8-2.4,0.9c-2.7,6.4-0.9,14.5,7.1,19.9c0,0,0-0.1,0-0.2C194.3,89.8,191.5,84.7,195.8,80.9z"
		/>
	<path class="st15" d="M198.6,81.4l7.4-3.5c0.7-1,1.4-2,2.2-3.1l0,0c0,0-0.1-2.2-0.7-4.6c-0.6,0.2-1.2,0.5-1.8,0.8
		c-11.2,5.6-9.9,10-9.9,10c-4.3,3.8-1.5,8.9,2.5,13.1c0.1-0.7,0.6-3.4,2.7-7.7L198.6,81.4z"/>
	<path class="st15" d="M210,69.6c0,1.8-0.6,3.7-1.7,5.2l7.4-5.2C213.9,69.3,212,69.2,210,69.6z"/>
	<path class="st15" d="M201,86.4c1.1-2.4,2.7-5.2,5-8.5l-7.4,3.5L201,86.4z"/>
	<path class="st16" d="M207.6,70.2c0.8-0.3,1.6-0.5,2.4-0.6c0-1.7-0.5-3.4-1.6-4.9h0c0,0,0,0,0,0c-1.6-0.1-3.1,0.1-4.5,0.3
		C205.9,65.5,207,67.9,207.6,70.2z"/>
	<path class="st16" d="M210,69.6c-0.8,0.1-1.6,0.4-2.4,0.6c0.6,2.3,0.7,4.6,0.7,4.6l0,0C209.4,73.2,210,71.4,210,69.6z"/>
	<path class="st16" d="M191.8,72.3c-0.6,0.9-0.7,1.6-0.6,2c0.5-1.2,1.2-2.4,2.1-3.4C192.9,71.1,192.3,71.5,191.8,72.3z"/>
	<path class="st16" d="M193.6,73.5c1.1-1.8,0.6-2.8-0.3-2.5c-0.8,1.1-1.5,2.2-2.1,3.4C191.5,75.3,192.6,75.2,193.6,73.5z"/>
	<polygon class="st15" points="232.2,141.1 232.2,140.9 229.5,144.4 229.7,144.4 	"/>
	<path class="st15" d="M232.2,105.6c-1-0.2-2.1-0.4-3.1-0.5c-0.6,0.2-1.3,0.4-2.2,0.7l0.5,1.2l1.1,2.4l-12.4,8.2l-2.6-5.3
		c-0.4,0.3-0.8,0.7-1.1,1c-0.4,0.6-0.9,1.1-1.3,1.8c0,0,0,0,0,0l0,0c0,0,0,0,0,0l21,18.6V105.6z"/>
	<path class="st15" d="M239.1,177.4c4-5.2,8.1-10.3,12.3-15.3l-14.6,0.9C237.3,167.8,238.1,172.7,239.1,177.4z"/>
	<polygon class="st15" points="223.3,163.9 223.3,163.9 232.2,186.7 232.2,186.7 	"/>
	<polygon class="st15" points="211.2,115 211.2,115 211.2,115 	"/>
	<polygon class="st15" points="235.4,194.8 232.2,186.7 232.2,186.7 235.4,194.8 	"/>
	<path class="st15" d="M281.9,163.9c-4.1,1.3-22-2.3-22-2.3l0,0l0,0l0,0l-0.1,0l0,0l-1.8,0.1l-6.5,0.4c-4.3,5-8.4,10.1-12.3,15.3
		c1.3,5.9,3.1,11.3,5.5,15.4l28.4-20.5l13.1-2.6c1.4-0.3,2.8-0.6,4.3-0.9l3.3-0.7c-0.8-0.8-2.4-2.9-4.5-6l-5.4,0.5
		C283.2,163.2,282.5,163.7,281.9,163.9z"/>
	<rect x="236.3" y="194.6" class="st15" width="0" height="5.4"/>
	<polygon class="st15" points="240.8,208.8 240.8,208.8 240.8,208.7 240.8,208.7 	"/>
	<polygon class="st15" points="237.3,199.8 237.3,199.8 238.5,202.9 	"/>
	<path class="st15" d="M291.6,168.6c1.4-0.3,2.2-0.4,2.3-0.4c0,0,0,0,0,0l0,0c0,0,0,0,0,0c0,0-0.1-0.1-0.1-0.1l-3.3,0.7
		C290.8,168.7,291.2,168.7,291.6,168.6z"/>
	<path class="st15" d="M247.9,194.8c6.4-9.2,18-20.4,38.2-25.1l-13.1,2.6l-28.4,20.5c0.4,0.7,0.9,1.4,1.3,2H247.9z"/>
	<path class="st15" d="M247.9,194.8h-2c0.3,0.5,0.7,0.9,1.1,1.3C247.3,195.7,247.6,195.3,247.9,194.8z"/>
	<path class="st15" d="M286.1,169.7l4.3-0.9C288.9,169.1,287.5,169.4,286.1,169.7z"/>
	<path class="st15" d="M240.8,208.7C240.8,208.7,240.8,208.7,240.8,208.7c0.1-0.3,0.2-0.6,0.4-0.9
		C241,208.1,240.9,208.5,240.8,208.7z"/>
	<path class="st15" d="M247.9,194.8h0.5c14.1-19.4,36.1-24.9,43.2-26.2c-0.4,0.1-0.8,0.1-1.2,0.2l-4.3,0.9
		C265.9,174.4,254.3,185.6,247.9,194.8z"/>
	<polygon class="st15" points="293.8,168.3 293.8,168.3 293.8,168.3 	"/>
	<path class="st15" d="M247,196.1c0.1,0.1,0.2,0.2,0.3,0.3c0,0,0,0,0,0c0.4-0.6,0.8-1.1,1.2-1.7h-0.5
		C247.6,195.3,247.3,195.7,247,196.1z"/>
	<path class="st15" d="M223,107.3c-3.3,1.3-6.9,3-9.4,5l2.6,5.3l12.4-8.2l-1.1-2.4l-3.5,1L223,107.3z"/>
	<path class="st15" d="M224,108l3.5-1l-0.5-1.2c-1.2,0.4-2.5,0.9-4,1.4L224,108z"/>
	<polygon class="st6" points="211.2,115 211.2,115 211.2,115 	"/>
	<path class="st6" d="M212.5,113.3c0.3-0.4,0.7-0.8,1-1.2l-1.7-3.4c-0.7,0.6-1.4,1.3-2,2l1.4,4.4c0,0,0,0,0,0
		C211.5,114.4,212,113.8,212.5,113.3z"/>
	<path class="st6" d="M229.1,105.1c0.7-0.2,1.2-0.3,1.2-0.3l-1.3-2.7c-1.2,0-2.4,0.1-3.6,0.3l1.2,2.7
		C227.5,105.1,228.3,105.1,229.1,105.1z"/>
	<path class="st6" d="M221.5,106.2l-2.6-1.9c-2.5,1.1-4.9,2.5-7,4.4l1.7,3.4C216,109.2,218.7,107.3,221.5,106.2z"/>
	<path class="st6" d="M221.5,106.2c1.7-0.6,3.4-1,5.1-1.1l-1.2-2.7c-2.3,0.3-4.5,1-6.6,1.9L221.5,106.2z"/>
	<path class="st6" d="M212.5,113.3c0.3-0.3,0.7-0.7,1.1-1l-0.1-0.2C213.2,112.4,212.8,112.8,212.5,113.3z"/>
	<path class="st6" d="M226.6,105.1l0.3,0.7c0.9-0.3,1.6-0.5,2.2-0.7C228.3,105.1,227.5,105.1,226.6,105.1z"/>
	<polygon class="st6" points="211.2,115 211.2,115 211.2,115 211.2,115 	"/>
	<path class="st6" d="M221.5,106.2c-2.8,1.1-5.5,3-8,5.9l0.1,0.2c2.4-2,6.1-3.7,9.4-5L221.5,106.2z"/>
	<path class="st6" d="M221.5,106.2l1.5,1.1c1.5-0.6,2.8-1.1,4-1.4l-0.3-0.7C224.9,105.2,223.2,105.6,221.5,106.2z"/>
	<path class="st15" d="M214.4,142.2l1.1,0.2c-3.1-9.9-5.9-21.6-4.3-27.3l0,0l-16.7,24.2C199.2,137.3,207.3,139.5,214.4,142.2z"/>
	<path class="st15" d="M215.5,142.3l14,2.1l2.7-3.5v-7.3l-21-18.6C209.6,120.7,212.4,132.4,215.5,142.3z"/>
	<path class="st16" d="M194.3,146.2c2.4-3.9,6.9-6,11.4-5.3l8.6,1.3c-7-2.7-15.2-4.9-19.9-2.9l-0.7,1c-1.7,2.4-1.7,5.4-0.5,7.8
		c0-0.1,0.1-0.2,0.1-0.3C193.7,147.2,194,146.7,194.3,146.2z"/>
	<rect x="237.1" y="206.2" class="st16" width="5.5" height="0"/>
	<polygon class="st16" points="240.8,208.8 240.8,208.8 240.8,208.8 240.8,208.8 	"/>
	<polygon class="st16" points="238.5,202.9 238.8,203.6 238.8,203.6 	"/>
	<polygon class="st16" points="240.8,208.7 240.8,208.7 240.8,208.8 240.8,208.8 	"/>
	<path class="st16" d="M241.2,207.8c0.9-2.1,2.4-4.9,3.6-7.2l-0.1-0.2C243.4,202.7,242.2,205.2,241.2,207.8z"/>
	<path class="st16" d="M244.8,200.6c1.3-2.3,2.3-4.1,2.4-4.2c-0.9,1.3-1.7,2.6-2.5,4L244.8,200.6z"/>
	<polygon class="st16" points="229.7,144.4 232.2,144.8 232.2,141.1 	"/>
	<path class="st16" d="M236.8,163l-13.5,0.9l8.9,22.8c2.2-3.2,4.5-6.3,6.9-9.3C238.1,172.7,237.3,167.8,236.8,163z"/>
	<path class="st16" d="M244.6,192.8c-2.4-4.1-4.2-9.6-5.5-15.4c-2.3,3.1-4.6,6.2-6.9,9.3l3.2,8.1h6.5L244.6,192.8z"/>
	<polygon class="st16" points="240.8,208.8 240.8,208.8 240.8,208.7 	"/>
	<path class="st16" d="M238.8,199.8v3.8l2,5.1c0,0,1-3.6,3.7-8.6l-2.9-5.2l0.2-0.1h-6.5l2,5H238.8z"/>
	<polygon class="st16" points="237.3,199.8 238.5,202.9 238.8,203.6 238.8,199.8 	"/>
	<path class="st16" d="M245.9,194.8c-0.5-0.6-0.9-1.3-1.3-2l-2.8,2H245.9z"/>
	<path class="st16" d="M245.9,194.8h-4.1l-0.2,0.1l2.9,5.2c0.7-1.3,1.5-2.6,2.4-4C246.6,195.7,246.2,195.3,245.9,194.8z"/>
	<path class="st16" d="M244.6,200.1c-2.8,5-3.7,8.6-3.7,8.6l0,0c0,0,0,0,0,0c0.1-0.3,0.2-0.6,0.4-0.9c1.1-2.6,2.3-5.1,3.5-7.4
		L244.6,200.1z"/>
	<path class="st16" d="M247,196.1c-0.9,1.4-1.7,2.7-2.4,4l0.2,0.3c0.8-1.4,1.6-2.7,2.5-4c0,0,0,0,0,0
		C247.1,196.3,247.1,196.2,247,196.1z"/>
	<path class="st17" d="M307.4,109.6l0.4-37.6l0,0h0v0l11.3,1.6l-0.3,27.8c9.6-6.6,19.6-12.8,30-18.5v-6.3l-73.3-8.3v68.4
		C285.5,127.1,296.2,118,307.4,109.6z"/>
	<polygon class="st17" points="232.2,76.6 275.5,68.3 275.5,68.3 232.2,76.6 232.2,105.6 232.2,105.6 	"/>
	<path class="st17" d="M318.6,123l-11.3,1.4l0.2-14.8c-11.2,8.4-21.8,17.4-31.9,27.1v6.4c2.2,2.8,4.2,5.6,6.1,8.2
		c3.5-0.6,6.6-1.6,7.4-1.4c0.5,0.5-0.6,4.7-2.4,8.4c1,1.4,1.8,2.6,2.6,3.8l59.6-5.7V82.9c-10.3,5.7-20.3,11.8-30,18.5L318.6,123z"/>
	<rect x="232.2" y="140.9" class="st17" width="0" height="0.2"/>
	<polygon class="st17" points="232.2,133.6 232.2,105.6 232.2,105.6 232.2,133.6 	"/>
	<path class="st17" d="M283.8,162.6l5.4-0.5c-0.8-1.1-1.7-2.4-2.6-3.8C285.7,160,284.8,161.6,283.8,162.6z"/>
	<path class="st17" d="M275.5,144.5v7.2c1.9,0.2,4,0,6.1-0.4c-1.9-2.6-3.9-5.4-6.1-8.2v0.3C275.6,143.6,275.6,144,275.5,144.5z"/>
	
		<rect x="228.6" y="137.3" transform="matrix(0.7071 -0.7071 0.7071 0.7071 -29.0483 204.4054)" class="st17" width="7.3" height="0"/>
	
		<rect x="232.2" y="141.1" transform="matrix(0.5547 -0.8321 0.8321 0.5547 -15.5158 256.8592)" class="st17" width="0" height="3.7"/>
	<path class="st5" d="M319.1,73.6L307.8,72l-0.4,37.6c3.8-2.8,7.6-5.6,11.4-8.2L319.1,73.6z"/>
	<polygon class="st5" points="307.8,72 307.8,72 307.8,72 	"/>
	<path class="st5" d="M318.6,123l0.2-21.6c-3.9,2.7-7.7,5.4-11.4,8.2l-0.2,14.8L318.6,123z"/>
	<path class="st18" d="M232.2,105.6c13.6,3.1,28.6,18.9,40.4,33.8c0.9-0.9,1.9-1.8,2.8-2.8V68.3h0l-43.2,8.3V105.6z"/>
	<path class="st18" d="M275.5,136.7c-1,0.9-1.9,1.8-2.8,2.8c1,1.2,1.9,2.5,2.8,3.7V136.7z"/>
	<path class="st18" d="M232.2,140.9v0.2l3.3-4.5c0,0-0.1,3.4,0.1,8.7l27.3,4c3.2-3.3,6.4-6.6,9.7-9.8c-11.8-15-26.8-30.7-40.4-33.8
		v28l3.3,3L232.2,140.9z"/>
	<path class="st18" d="M275.5,151.7v-7.2c-0.4,1-1.5,2.8-3.7,5.7C272.6,151.1,273.9,151.6,275.5,151.7z"/>
	<path class="st18" d="M262.9,149.3l2.6,0.4c4-3.5,9-7,9.9-6.2v-0.3c-0.9-1.2-1.9-2.4-2.8-3.7C269.3,142.7,266.1,146,262.9,149.3z"
		/>
	<polygon class="st18" points="235.6,136.6 232.2,133.6 232.2,140.9 	"/>
	<path class="st18" d="M235.6,145.3c-0.1-5.3-0.1-8.7-0.1-8.7l-3.3,4.5v3.7L235.6,145.3z"/>
	<path class="st13" d="M220.5,156.8L220.5,156.8c-0.1-0.1-0.1-0.3-0.2-0.5l-0.9,1.1c0,0-0.1,0.1-0.1,0.1c-0.3,0.4-0.7,0.8-1.1,1.1
		c1,0.1,2,0.1,3,0.2c-0.1-0.3-0.4-1-0.8-2L220.5,156.8z"/>
	<path class="st13" d="M253.4,159.8l-17.2-2.8c0.1,1,0.2,1.9,0.3,2.9c5.9,0.4,11.5,0.8,15.8,1.1C252.7,160.7,253,160.2,253.4,159.8z
		"/>
	<path class="st13" d="M224,151.6l-3.6,4.7c0.1,0.2,0.1,0.3,0.2,0.5l9.2-12.3l-0.2,0l-2.7,3.5L224,151.6z"/>
	<path class="st13" d="M221.3,158.9C221.3,158.9,221.3,158.9,221.3,158.9l-0.8-2C221,157.9,221.2,158.6,221.3,158.9z"/>
	<path class="st13" d="M258,161.7l1.8-0.1C259.4,161.6,258.8,161.6,258,161.7z"/>
	<path class="st13" d="M275.5,163.4L275.5,163.4l-22.1-3.6c-0.4,0.4-0.7,0.8-1.1,1.2c4.2,0.3,7,0.5,7.5,0.5l0.1,0l0,0c0,0,0,0,0,0
		c0,0,0,0,0,0l0,0c0,0,17.9,3.6,22,2.3c0.6-0.2,1.3-0.7,1.9-1.3L275.5,163.4L275.5,163.4z"/>
	<path class="st13" d="M219.4,157.6c0,0,0.1-0.1,0.1-0.1l0.9-1.1c-0.1-0.2-0.2-0.4-0.2-0.6l-2.8,2.9c0.3,0,0.7,0.1,1,0.1
		C218.7,158.3,219,158,219.4,157.6z"/>
	<path class="st13" d="M215.5,142.3l-1.1-0.2c0.4,0.2,0.8,0.3,1.2,0.5C215.6,142.5,215.5,142.4,215.5,142.3z"/>
	<path class="st13" d="M226.8,147.9l2.7-3.5l-14-2.1c0,0.1,0.1,0.2,0.1,0.3C220.9,144.8,225.3,147.1,226.8,147.9z"/>
	<path class="st13" d="M220.1,155.7c0.1,0.2,0.2,0.4,0.2,0.6l3.6-4.7L220.1,155.7z"/>
	<path class="st13" d="M215.6,142.6c-0.4-0.2-0.8-0.3-1.2-0.5l-8.6-1.3c-4.5-0.7-9,1.4-11.4,5.3c-0.3,0.5-0.6,1-0.8,1.5
		c1.9,2.6,8.1,9.6,18.6,10.5c1.5,0.1,3.2,0.3,5.1,0.4l2.8-2.9C219,152.6,217.3,147.9,215.6,142.6z"/>
	<path class="st13" d="M226.8,147.9c-1.5-0.9-5.9-3.2-11.2-5.3c1.6,5.3,3.4,10,4.5,13l3.9-4.1L226.8,147.9z"/>
	<path class="st13" d="M220.6,156.9c0-0.1,0-0.1-0.1-0.2l0,0L220.6,156.9z"/>
	<path class="st13" d="M236.2,157l-4-0.7v-11.6l-2.5-0.4l-9.2,12.3c0,0.1,0,0.1,0.1,0.2l0.8,2c4.7,0.3,10,0.7,15.1,1.1
		C236.4,159,236.3,158,236.2,157z"/>
	<path class="st13" d="M288.9,149.9c-0.7-0.2-3.9,0.7-7.4,1.4c1.8,2.5,3.5,4.9,5,7C288.3,154.6,289.4,150.4,288.9,149.9z"/>
	<polygon class="st13" points="253.4,159.8 236.2,157 253.4,159.8 	"/>
	<path class="st13" d="M275.5,151.7v11.7l8.3-0.8c1-1.1,2-2.6,2.8-4.3c-1.5-2.1-3.2-4.5-5-7C279.5,151.7,277.3,151.9,275.5,151.7z"
		/>
	
		<rect x="264.4" y="150.4" transform="matrix(0.1605 -0.987 0.987 0.1605 62.4597 396.6738)" class="st13" width="0" height="22.3"/>
	<path class="st13" d="M275.5,143.5v1C275.6,144,275.6,143.6,275.5,143.5z"/>
	<polygon class="st13" points="232.2,144.8 232.2,144.8 232.2,156.4 236.2,157 232.2,156.4 	"/>
	<path class="st13" d="M262.9,149.3l-27.3-4c0.1,3.3,0.3,7.4,0.6,11.7l17.2,2.8C256.5,156.3,259.7,152.7,262.9,149.3z"/>
	<path class="st13" d="M275.5,163.4L275.5,163.4l0-11.7c-1.5-0.2-2.8-0.6-3.7-1.5c2.2-2.8,3.4-4.7,3.7-5.7v-1
		c-0.9-0.8-5.9,2.7-9.9,6.2l-2.6-0.4c-3.3,3.4-6.4,6.9-9.5,10.5L275.5,163.4z"/>
	<path class="st13" d="M232.2,144.8v11.6l4,0.7c-0.3-4.4-0.5-8.4-0.6-11.7L232.2,144.8z"/>
	<path class="st14" d="M221.3,158.9c-1.1-0.1-2.1-0.2-3-0.2c-0.8,0.7-1.7,1.3-2.7,1.7c-3,1.2-6.6,0.8-9.4-1.3l-10.8-8.6
		c-0.8-0.7-1.5-1.5-2-2.4c-3.4,8.2,4.6,17.3,13.3,16.9l16.6-1.1l-1.9-4.8C221.4,159.1,221.4,159,221.3,158.9z"/>
	<path class="st14" d="M221.3,158.9C221.3,158.9,221.3,158.9,221.3,158.9c0,0.1,0.1,0.2,0.1,0.2l1.9,4.8l0,0L221.3,158.9z"/>
	<path class="st14" d="M236.5,160c0.1,1,0.2,2,0.3,3.1l14.6-0.9c0.3-0.3,0.6-0.7,0.9-1C248,160.8,242.4,160.4,236.5,160z"/>
	<path class="st14" d="M251.4,162.1l6.5-0.4c0.8-0.1,1.4-0.1,1.8-0.1l0,0c-0.4,0-3.3-0.2-7.5-0.5C252,161.4,251.7,161.8,251.4,162.1
		z"/>
	<polygon class="st14" points="259.9,161.6 259.9,161.6 259.9,161.6 	"/>
	<path class="st14" d="M215.6,160.4c1-0.4,1.9-1,2.7-1.7c-0.3,0-0.7-0.1-1-0.1L215.6,160.4z"/>
	<path class="st14" d="M195.3,150.4l10.8,8.6c2.8,2.2,6.4,2.6,9.4,1.3l1.7-1.8c-1.9-0.1-3.7-0.3-5.1-0.4
		c-10.5-0.9-16.7-7.9-18.6-10.5c0,0.1-0.1,0.2-0.1,0.3C193.8,148.9,194.5,149.7,195.3,150.4z"/>
	<path class="st14" d="M236.5,160c-5.2-0.4-10.5-0.7-15.1-1.1l2,5l13.5-0.9C236.7,162,236.6,161,236.5,160z"/>
	<path class="st19" d="M472.7,362.4c7.3-5.5,13.6-11.1,19.1-16.8c-10.5,2.3-21.4,4.1-32.5,5.7C463.4,355,467.9,358.8,472.7,362.4z"
		/>
	<path class="st19" d="M528.7,272.3c1.3-10,0.7-16.3,0.7-16.3c-0.1-19.8-8.2-34.3-20-43.5v59.7H528.7z"/>
	<path class="st19" d="M509.4,272.3v-59.7c-5.3-4.1-11.3-7.2-17.7-9.2h-7v-1.8c-2.4-0.5-4.9-0.8-7.3-1v2.7h-13.9v-2.2
		c-2.5,0.4-4.9,0.9-7.3,1.5v0.7h-2.4c-6.9,2.2-13.3,5.5-18.8,10.1v9.3h-4.6c-2.8,9.2-7.7,18.5-9.6,25.4l0,0c-0.1,1.2-0.4,2.4-1,3.4
		c-0.9,1.5-2.2,2.6-3.6,3.3c0,0.4,0,0.7,0,1.1c0,0-5,50.5,43.3,95.2c11.1-1.5,22-3.4,32.5-5.7c26.6-27.4,34.6-56,36.8-73.3H509.4z
		 M463.5,209h13.9v13.9h-13.9V209z M442.2,209h13.9v13.9h-13.9V209z M450.3,251.4c0.5-27.5,41.4-27.5,41.9,0
		C491.8,278.9,450.8,278.9,450.3,251.4z M498.6,222.9h-13.9V209h13.9V222.9z"/>
	<path class="st19" d="M456.2,203.4v-0.7c-0.8,0.2-1.6,0.4-2.4,0.7H456.2z"/>
	<path class="st19" d="M463.5,201.2v2.2h13.9v-2.7C472.7,200.3,468.1,200.5,463.5,201.2z"/>
	<path class="st19" d="M484.7,203.4h7c-2.3-0.7-4.6-1.3-7-1.8V203.4z"/>
	<path class="st19" d="M430.4,222.9h4.6v-9.3c-1,0.9-2,1.7-3,2.7C431.6,218.4,431,220.6,430.4,222.9z"/>
	<rect x="442.2" y="209" class="st19" width="13.9" height="13.9"/>
	<rect x="463.5" y="209" class="st19" width="13.9" height="13.9"/>
	<rect x="484.7" y="209" class="st19" width="13.9" height="13.9"/>
	<path class="st19" d="M416.1,255c1.5-0.7,2.8-1.8,3.6-3.3c0.6-1,1-2.2,1-3.4l0,0c1.9-6.9,6.8-16.2,9.6-25.4h-4.2
		C420.1,231.2,416.4,241.9,416.1,255z"/>
	<path class="st19" d="M426.2,222.9h4.2c0.7-2.2,1.2-4.5,1.6-6.7C429.8,218.2,427.9,220.4,426.2,222.9z"/>
	<path class="st11" d="M450.3,251.4c0.5,27.5,41.4,27.5,41.9,0C491.8,223.8,450.8,223.8,450.3,251.4z"/>
	<path class="st6" d="M380.4,60.3c0.2-0.2,0.2-0.5-0.1-0.7c-0.7-0.3-1.8-1.8-2.7-1.9c0.8,0.9,1.6,1.9,2.4,2.8
		C380.1,60.5,380.3,60.4,380.4,60.3z"/>
	<path class="st6" d="M74.3,143.3L74.3,143.3c1-0.3,0.4-1.1,0.7-3.6c0-0.3-0.2-0.5-0.5-0.6c-0.3,0-0.5,0.2-0.6,0.5
		c-0.2,2-0.2,3.1-0.2,3.1c0,0,0,0,0,0C73.8,143.1,74,143.3,74.3,143.3z"/>
	<path class="st6" d="M140.5,23.4c0.6-0.4,3.6-1.6,3.1-2.4c-0.8-0.8-2.5,1.1-3.4,1.4c-0.1,0.1-0.2,0.3-0.2,0.4
		C139.9,23.2,140.2,23.4,140.5,23.4z"/>
	<path class="st6" d="M223.2,2.7c-0.3,0-0.5,0.2-0.5,0.5c0,0,0,0,0,0c0.8-0.2,1.6-0.3,2.4-0.5C224.3,2.7,223.6,2.8,223.2,2.7z"/>
	<polygon class="st6" points="135.3,26.8 135.3,26.8 135.3,26.8 	"/>
	<path class="st6" d="M145.8,20.3c0.6-0.4,3.6-1.4,3.2-2.2c-0.7-0.8-2.5,1-3.4,1.2c-0.2,0.1-0.3,0.3-0.3,0.4
		C145.3,20.1,145.5,20.3,145.8,20.3z"/>
	<path class="st6" d="M135.3,26.8c0.6-0.3,3.5-1.8,3-2.5c-0.8-0.7-2.4,1.2-3.3,1.6c-0.1,0.1-0.2,0.2-0.2,0.4
		C134.8,26.5,135,26.8,135.3,26.8z"/>
	<path class="st6" d="M116.6,42.7c1-0.5,1.7-1.6,2.5-2.3c0.5-0.5-0.3-1.2-0.7-0.7C118,40.4,114.9,42.3,116.6,42.7z"/>
	<path class="st6" d="M156.9,14.9L156.9,14.9c0.7-0.4,3.6-1,3.3-1.9c-0.6-0.9-2.6,0.7-3.5,0.9c-0.2,0.1-0.3,0.3-0.3,0.5
		C156.3,14.7,156.6,14.9,156.9,14.9z"/>
	<polygon class="st6" points="116.6,42.7 116.6,42.7 116.6,42.7 	"/>
	<path class="st6" d="M121,38.4L121,38.4c1-0.5,1.7-1.6,2.6-2.2c0,0,0,0,0,0c0.2-0.2,0.2-0.5,0-0.7c-0.9-0.6-2.2,1.6-3,2.1
		c-0.1,0.1-0.2,0.2-0.2,0.4C120.4,38.2,120.7,38.4,121,38.4z"/>
	<path class="st6" d="M125.5,34.3L125.5,34.3c0.5-0.2,3.5-2.3,2.8-2.8c-0.9-0.7-2.3,1.5-3.1,1.9c-0.1,0.1-0.2,0.2-0.2,0.4
		C125,34,125.2,34.3,125.5,34.3z"/>
	<polygon class="st6" points="130.3,30.4 130.3,30.4 130.3,30.4 	"/>
	<path class="st6" d="M130.3,30.4c0.5-0.3,3.5-2.1,2.9-2.7c-0.8-0.7-2.3,1.4-3.2,1.7c-0.1,0.1-0.2,0.2-0.2,0.4
		C129.8,30.2,130,30.4,130.3,30.4z"/>
	<polygon class="st6" points="145.8,20.3 145.8,20.3 145.8,20.3 	"/>
	<path class="st6" d="M204.7,4L204.7,4c1-0.1,2.1-0.1,3.1-0.2c0.3,0,0.5-0.2,0.5-0.5c0-0.3-0.2-0.5-0.5-0.5
		c-0.9,0.2-3.4-0.3-3.6,0.7C204.2,3.8,204.4,4,204.7,4z"/>
	<path class="st6" d="M210.8,3.7L210.8,3.7c1,0,2.1-0.1,3.1-0.1c0.3,0,0.5-0.2,0.5-0.5s-0.2-0.5-0.5-0.5c-0.9,0.2-3.4-0.4-3.6,0.6
		C210.3,3.5,210.6,3.7,210.8,3.7z"/>
	<path class="st6" d="M220.1,3.6L220.1,3.6c0.3,0,0.5-0.2,0.5-0.5c0-0.3-0.2-0.5-0.5-0.5c-0.8,0.2-3.5-0.5-3.6,0.5
		C216.5,4.1,219.3,3.4,220.1,3.6z"/>
	<path class="st6" d="M382,61.6c-0.7,0.5,2.3,2.5,2.8,2.8l0,0c0.1,0,0.3-0.1,0.4-0.2c0.2-0.2,0.2-0.5-0.1-0.7
		C384.3,63,382.9,60.9,382,61.6z"/>
	<path class="st6" d="M162.6,12.7L162.6,12.7c0.7-0.4,3.6-0.8,3.4-1.7c-0.5-0.9-2.7,0.6-3.6,0.7c-0.2,0.1-0.3,0.3-0.3,0.5
		C162.1,12.4,162.3,12.7,162.6,12.7z"/>
	<path class="st6" d="M198.5,4.5L198.5,4.5c0.8-0.3,3.5,0.2,3.6-0.8c-0.3-1-2.8-0.1-3.6-0.2c-0.2,0-0.4,0.2-0.4,0.5
		C198,4.3,198.2,4.5,198.5,4.5z"/>
	<path class="st6" d="M174.3,8.9L174.3,8.9c0.8-0.4,3.6-0.4,3.5-1.4c-0.4-1-2.7,0.4-3.6,0.4c-0.2,0.1-0.4,0.3-0.4,0.5
		C173.8,8.7,174,8.9,174.3,8.9z"/>
	<path class="st6" d="M168.4,10.7L168.4,10.7c0.7-0.4,3.6-0.6,3.4-1.6c-0.5-0.9-2.7,0.5-3.6,0.6c-0.2,0.1-0.3,0.3-0.3,0.5
		C167.9,10.4,168.1,10.7,168.4,10.7z"/>
	<path class="st6" d="M180.3,7.5L180.3,7.5c0.8-0.4,3.6-0.2,3.5-1.3c-0.4-1-2.7,0.2-3.6,0.2c-0.2,0.1-0.4,0.3-0.4,0.5
		C179.8,7.2,180,7.5,180.3,7.5z"/>
	<path class="st6" d="M192.4,5.3L192.4,5.3c0.8-0.3,3.5,0.1,3.6-1c-0.3-1-2.8,0-3.6,0c-0.2,0-0.4,0.2-0.4,0.5
		C191.9,5,192.1,5.3,192.4,5.3z"/>
	<path class="st6" d="M186.3,6.3L186.3,6.3c0.8-0.3,3.6-0.1,3.5-1.1c-0.4-1-2.7,0.1-3.6,0.1c-0.2,0-0.4,0.3-0.4,0.5
		C185.8,6,186,6.2,186.3,6.3z"/>
	<polygon class="st6" points="140.5,23.4 140.5,23.4 140.4,23.4 	"/>
	<path class="st6" d="M81.1,106.9c1-0.4,0.9-2.4,1.4-3.3c0.1-0.3-0.1-0.5-0.3-0.6c-0.3-0.1-0.6,0-0.7,0.3
		C81.4,104.1,79.8,106.6,81.1,106.9z"/>
	<polygon class="st6" points="79.4,112.8 79.4,112.8 79.4,112.8 	"/>
	<polygon class="st6" points="81.1,106.9 81.1,106.9 81.1,106.9 	"/>
	<path class="st6" d="M112.4,47.3L112.4,47.3c1-0.5,1.6-1.7,2.4-2.5c0.2-0.2,0.2-0.5,0-0.7c-1-0.5-2,1.8-2.8,2.3
		c-0.1,0.1-0.1,0.2-0.1,0.3C111.9,47.1,112.1,47.3,112.4,47.3z"/>
	<polygon class="st6" points="82.9,101 82.9,101 82.9,101 	"/>
	<path class="st6" d="M82.9,101c1-0.4,0.9-2.4,1.5-3.3c0.1-0.3-0.1-0.6-0.3-0.7c-0.3-0.1-0.6,0.1-0.7,0.3
		C83.3,98.2,81.6,100.7,82.9,101z"/>
	<path class="st6" d="M75.7,131L75.7,131c1-0.3,0.6-2.6,1-3.5c0-0.3-0.1-0.5-0.4-0.6c-0.3,0-0.5,0.1-0.6,0.4
		C75.8,128.2,74.6,130.7,75.7,131z"/>
	<path class="st6" d="M74.9,137.1c1-0.2,0.6-2.6,0.9-3.5c0-0.3-0.2-0.5-0.4-0.6c-0.3,0-0.5,0.1-0.6,0.4
		C74.8,134.4,73.7,136.8,74.9,137.1z"/>
	<polygon class="st6" points="78,118.8 78,118.8 78,118.8 	"/>
	<path class="st6" d="M84.9,95.1L84.9,95.1c1-0.5,1-2.3,1.6-3.2c0.1-0.3,0-0.6-0.3-0.7c-0.3-0.1-0.6,0-0.7,0.3
		C85.4,92.4,83.6,94.9,84.9,95.1z"/>
	<path class="st6" d="M76.8,124.9c1-0.3,0.7-2.5,1.1-3.4c0.1-0.3-0.1-0.5-0.4-0.6c-0.3-0.1-0.5,0.1-0.6,0.4
		C76.9,122.1,75.6,124.6,76.8,124.9z"/>
	<path class="st6" d="M78,118.8c1-0.3,0.8-2.5,1.2-3.4c0.1-0.3-0.1-0.6-0.4-0.6c-0.3-0.1-0.6,0.1-0.6,0.4
		C78.2,116.1,76.8,118.6,78,118.8z"/>
	<path class="st6" d="M79.4,112.8c1-0.3,0.8-2.5,1.3-3.4c0.1-0.3-0.1-0.5-0.3-0.6c-0.3-0.1-0.6,0.1-0.6,0.3
		C79.7,110.1,78.2,112.6,79.4,112.8z"/>
	<path class="st6" d="M98,67.3c1-0.5,1.3-2,2-2.9c0.1-0.2,0.1-0.5-0.2-0.7c-0.2-0.2-0.6-0.1-0.7,0.1C99,64.7,96.6,66.9,98,67.3z"/>
	<path class="st6" d="M101.3,62.1L101.3,62.1c1-0.5,1.4-2,2.1-2.8c0.2-0.2,0.1-0.6-0.1-0.7c-1-0.4-1.8,2.1-2.4,2.7
		c-0.1,0.1-0.1,0.2-0.1,0.3C100.8,61.8,101,62,101.3,62.1z"/>
	<path class="st6" d="M104.8,57c1-0.5,1.5-1.9,2.2-2.7c0.2-0.2,0.1-0.5-0.1-0.7c-0.2-0.2-0.5-0.1-0.7,0.1
		C105.9,54.4,103.3,56.6,104.8,57z"/>
	<path class="st6" d="M87.1,89.4c1-0.5,1-2.2,1.7-3.2c0.1-0.3,0-0.5-0.3-0.6c-0.3-0.1-0.6,0-0.7,0.2C87.7,86.6,85.8,89.1,87.1,89.4z
		"/>
	<path class="st6" d="M108.5,52L108.5,52c1-0.5,1.5-1.8,2.3-2.6c0,0,0,0,0,0c0.2-0.2,0.2-0.5-0.1-0.7c-1-0.5-1.9,1.9-2.7,2.5
		c-0.1,0.1-0.1,0.2-0.1,0.3C108,51.8,108.2,52,108.5,52z"/>
	<path class="st6" d="M95,72.6c1-0.5,1.2-2.1,1.9-3c0.1-0.2,0.1-0.6-0.2-0.7c-0.2-0.1-0.6-0.1-0.7,0.2C95.8,70,93.6,72.3,95,72.6z"
		/>
	<path class="st6" d="M89.5,83.7c1-0.5,1.1-2.2,1.8-3.1c0.1-0.3,0-0.6-0.2-0.7s-0.6,0-0.7,0.2C90.2,81,88.2,83.4,89.5,83.7z"/>
	<polygon class="st6" points="87.1,89.4 87.1,89.4 87.1,89.4 	"/>
	<polygon class="st6" points="92.2,78.1 92.2,78.1 92.2,78.1 	"/>
	<path class="st6" d="M92.2,78.1c1-0.5,1.2-2.1,1.8-3c0.1-0.2,0-0.5-0.2-0.7c-0.2-0.1-0.6,0-0.7,0.2C92.9,75.5,90.8,77.8,92.2,78.1z
		"/>
	<polygon class="st6" points="89.5,83.7 89.5,83.7 89.5,83.7 	"/>
	<path class="st6" d="M151.2,17.5c0.7-0.4,3.6-1.2,3.3-2c-0.7-0.9-2.6,0.9-3.5,1.1c-0.2,0.1-0.3,0.3-0.3,0.4
		C150.7,17.2,151,17.5,151.2,17.5z"/>
	<path class="st6" d="M400.5,77.9C400.5,77.9,400.5,77.9,400.5,77.9c-0.2,0.2-0.2,0.5,0,0.7c0.9,0.7,1.6,1.8,2.6,2.3
		c0.1,0,0.3-0.1,0.4-0.1c0.2-0.2,0.2-0.5,0-0.7C402.6,79.5,401.4,77.3,400.5,77.9z"/>
	<polygon class="st6" points="434.9,118.5 434.9,118.5 434.9,118.5 	"/>
	<polygon class="st6" points="411.6,89.7 411.6,89.7 411.6,89.8 	"/>
	<path class="st6" d="M405.6,82.2c-0.5-0.5-1.2,0.3-0.7,0.7c0.9,0.7,1.5,1.9,2.5,2.4C409,84.8,406,82.9,405.6,82.2z"/>
	<polygon class="st6" points="407.4,85.3 407.4,85.3 407.4,85.3 	"/>
	<polygon class="st6" points="431.3,113.5 431.3,113.5 431.3,113.5 	"/>
	<polygon class="st6" points="423.7,103.7 423.7,103.7 423.7,103.7 	"/>
	<path class="st6" d="M429.2,110.1c-0.2,0.2-0.3,0.5-0.1,0.7c0.8,0.8,1.3,2.2,2.3,2.7c1.5-0.4-1.1-2.5-1.4-3.3
		C429.7,110,429.4,110,429.2,110.1z"/>
	<path class="st6" d="M417.5,95.7c-0.2,0.2-0.2,0.5-0.1,0.7c0.8,0.8,1.4,2,2.4,2.5l0,0c1.6-0.5-1.3-2.5-1.6-3.2
		C418,95.6,417.7,95.6,417.5,95.7z"/>
	<path class="st6" d="M421.5,100.4c-0.2,0.2-0.2,0.5-0.1,0.7c0.8,0.8,1.3,2.1,2.3,2.6c0.1,0,0.2,0,0.3-0.1c0.2-0.2,0.3-0.5,0.1-0.7
		C423.4,102.3,422.4,100,421.5,100.4z"/>
	<path class="st6" d="M437.1,120.2c-0.2-0.2-0.5-0.3-0.7-0.1c-0.2,0.2-0.3,0.5-0.1,0.7c0.7,0.8,1.1,2.1,2,2.6c0.1,0,0.1,0.1,0.2,0.1
		C439.9,123.2,437.4,121,437.1,120.2z"/>
	<path class="st6" d="M413.4,91.1C413.4,91.1,413.4,91.1,413.4,91.1c-0.2,0.2-0.2,0.5,0,0.7c0.8,0.8,1.4,2,2.4,2.5
		c0.1,0,0.2,0,0.3-0.1c0.2-0.2,0.2-0.5,0.1-0.7C415.4,92.9,414.3,90.6,413.4,91.1z"/>
	<polygon class="st6" points="415.8,94.3 415.8,94.3 415.8,94.3 	"/>
	<path class="st6" d="M425.3,105.2c-0.2,0.2-0.3,0.5-0.1,0.7c0.8,0.8,1.3,2.1,2.3,2.6c0.1,0,0.2,0,0.3-0.1c0.2-0.2,0.3-0.5,0.1-0.7
		C427.2,107.2,426.3,104.8,425.3,105.2z"/>
	<path class="st6" d="M396,73.6c-0.8,0.4,2.2,2.8,2.6,3c0.1,0,0.3-0.1,0.4-0.2c0.2-0.2,0.2-0.5,0-0.7C398.2,75.2,396.9,73,396,73.6z
		"/>
	<polygon class="st6" points="403.1,80.9 403.1,80.9 403.1,80.9 	"/>
	<path class="st6" d="M432.9,115.1c-0.2,0.2-0.3,0.5-0.2,0.7c0.8,0.8,1.2,2.2,2.2,2.7c1.5-0.4-1.1-2.5-1.4-3.3
		C433.4,115,433.1,114.9,432.9,115.1z"/>
	<path class="st6" d="M391.4,69.5c-0.7,0.5,2.2,2.7,2.7,2.9v0c0.1,0,0.3-0.1,0.4-0.2c0.2-0.2,0.2-0.5,0-0.7
		C393.6,71.1,392.3,68.9,391.4,69.5z"/>
	<path class="st6" d="M409.2,86.6C409.2,86.6,409.2,86.6,409.2,86.6c-0.2,0.2-0.2,0.5,0,0.7c0.9,0.7,1.5,1.9,2.5,2.4
		c0.1,0,0.2,0,0.3-0.1c0.2-0.2,0.2-0.5,0-0.7C411.2,88.4,410.1,86.1,409.2,86.6z"/>
	<path class="st6" d="M386.7,65.5c-0.7,0.5,2.3,2.6,2.7,2.8v0c0.1,0,0.3-0.1,0.4-0.2c0.2-0.2,0.2-0.5,0-0.7
		C389,67,387.6,64.8,386.7,65.5z"/>
	<path class="st6" d="M281,12.2L281,12.2c0.2,0,0.4-0.2,0.5-0.4c0.1-0.3-0.1-0.6-0.3-0.7c-0.9,0-3.2-1.3-3.6-0.4
		C277.4,11.8,280.2,11.8,281,12.2z"/>
	<path class="st6" d="M275,10.7L275,10.7c0.2,0,0.4-0.2,0.5-0.4c0.1-0.3-0.1-0.6-0.3-0.6c-0.9,0-3.2-1.3-3.6-0.3
		C271.4,10.5,274.2,10.4,275,10.7z"/>
	<path class="st6" d="M298.7,17.3c0.2,0,0.4-0.1,0.5-0.3c0.1-0.3,0-0.6-0.3-0.7c-0.9-0.1-3.1-1.5-3.6-0.6
		C295.1,16.7,298,16.9,298.7,17.3z"/>
	<path class="st6" d="M283.8,13c1,0.3,2.1,0.6,3.1,0.8v0c2-1-2.2-1.5-2.8-1.8c-0.3-0.1-0.5,0.1-0.6,0.4
		C283.4,12.6,283.6,12.9,283.8,13z"/>
	<path class="st6" d="M292.9,15.5c0.2,0,0.4-0.1,0.5-0.4c0.1-0.3-0.1-0.6-0.3-0.7c-0.9-0.1-3.1-1.5-3.6-0.5
		C289.3,15,292.1,15.1,292.9,15.5z"/>
	<path class="st6" d="M262.9,8.2L262.9,8.2c0.2,0,0.4-0.2,0.5-0.4c0.1-0.3-0.1-0.6-0.4-0.6c-0.9,0-3.2-1.1-3.6-0.1
		C259.4,8.1,262.1,7.9,262.9,8.2z"/>
	<path class="st6" d="M244.7,5.4L244.7,5.4c0.2,0,0.4-0.2,0.5-0.4c0.1-0.3-0.1-0.5-0.4-0.6c-0.9,0.1-3.3-0.9-3.6,0.1
		C241.2,5.5,243.8,5,244.7,5.4z"/>
	<path class="st6" d="M238.5,4.7L238.5,4.7c0.2,0,0.4-0.2,0.5-0.4c0-0.3-0.2-0.5-0.4-0.6c-0.9,0.1-3.3-0.8-3.6,0.2
		C235.1,4.9,237.7,4.4,238.5,4.7z"/>
	<path class="st6" d="M229.3,4c1,0.1,2.1,0.1,3.1,0.2l0,0c0.3,0,0.5-0.2,0.5-0.5c-0.1-1.1-2.7-0.5-3.6-0.7c-0.3,0-0.5,0.2-0.5,0.5
		C228.8,3.7,229,3.9,229.3,4z"/>
	<path class="st6" d="M269,9.4L269,9.4c0.2,0,0.4-0.2,0.5-0.4c0.1-0.3-0.1-0.6-0.4-0.6c-0.9,0-3.2-1.2-3.6-0.2
		C265.4,9.2,268.2,9.1,269,9.4z"/>
	<path class="st6" d="M250.8,6.2L250.8,6.2c0.2,0,0.4-0.2,0.5-0.4c0.1-0.3-0.1-0.6-0.4-0.6c-0.9,0.1-3.3-1-3.6,0
		C247.3,6.2,249.9,5.8,250.8,6.2z"/>
	<polygon class="st6" points="298.7,17.3 298.7,17.3 298.7,17.3 	"/>
	<path class="st6" d="M256.9,7.1L256.9,7.1c0.2,0,0.4-0.2,0.5-0.4c0.1-0.3-0.1-0.6-0.4-0.6c-0.8,0.1-3.3-1.1-3.6-0.1
		C253.3,7.1,256,6.8,256.9,7.1z"/>
	<path class="st6" d="M333,31.1L333,31.1c0.2,0,0.4-0.1,0.5-0.3c0.1-0.3,0-0.6-0.2-0.7c-0.9-0.2-2.8-1.9-3.5-1.1
		C329.4,29.9,332.3,30.7,333,31.1z"/>
	<path class="st6" d="M359.9,46.2L359.9,46.2c0.2,0,0.3-0.1,0.4-0.2c0.2-0.2,0.1-0.6-0.1-0.7c-0.9-0.3-2.5-2.3-3.3-1.5
		C356.3,44.5,359.3,45.9,359.9,46.2z"/>
	<polygon class="st6" points="349.4,39.8 349.4,39.8 349.4,39.8 	"/>
	<path class="st6" d="M370.1,53.1c0.2,0,0.3-0.1,0.4-0.2c0.2-0.2,0.1-0.6-0.1-0.7c-0.9-0.4-2.4-2.4-3.2-1.6
		C366.6,51.2,369.5,52.8,370.1,53.1z"/>
	<path class="st6" d="M354.7,42.9L354.7,42.9c0.2,0,0.3-0.1,0.4-0.2c0.2-0.2,0.1-0.6-0.2-0.7c-0.9-0.3-2.6-2.2-3.4-1.4
		C351.1,41.4,354,42.6,354.7,42.9z"/>
	<path class="st6" d="M365,49.6L365,49.6c0.2,0,0.3-0.1,0.4-0.2c0.2-0.2,0.1-0.6-0.1-0.7c-0.9-0.3-2.5-2.3-3.3-1.6
		C361.5,47.8,364.5,49.3,365,49.6z"/>
	<path class="st6" d="M304.6,19.3c0.2,0,0.4-0.1,0.5-0.3c0.1-0.3,0-0.6-0.3-0.7c-0.9-0.1-3-1.6-3.6-0.7
		C301,18.6,303.8,18.9,304.6,19.3z"/>
	<path class="st6" d="M380,60.5C380,60.5,380,60.5,380,60.5c-0.8-1-1.5-1.9-2.3-2.8c-0.2,0-0.4,0-0.5,0.1
		C376.5,58.4,379.5,60.2,380,60.5z"/>
	<path class="st6" d="M223.1,3.7c1,0,2.1,0.1,3.1,0.1l0,0c0.3,0,0.5-0.2,0.5-0.5c-0.1-0.6-0.9-0.6-1.7-0.6c-0.8,0.2-1.6,0.3-2.4,0.5
		C222.7,3.4,222.9,3.7,223.1,3.7z"/>
	<path class="st6" d="M375.1,56.8c0.2,0,0.3-0.1,0.4-0.2c0.2-0.2,0.1-0.6-0.1-0.7c-0.9-0.4-2.4-2.4-3.2-1.7
		C371.6,54.7,374.5,56.5,375.1,56.8z"/>
	<polygon class="st6" points="310.4,21.4 310.4,21.4 310.4,21.4 	"/>
	<path class="st6" d="M316.1,23.6L316.1,23.6c0.2,0,0.4-0.1,0.5-0.3c0.1-0.3,0-0.6-0.3-0.7c-0.9-0.1-3-1.7-3.5-0.8
		C312.5,22.8,315.4,23.2,316.1,23.6z"/>
	<path class="st6" d="M349.4,39.8c0.2,0,0.3-0.1,0.4-0.2c0.1-0.2,0.1-0.6-0.2-0.7c-0.9-0.3-2.6-2.1-3.4-1.3
		C345.8,38.3,348.7,39.4,349.4,39.8z"/>
	<path class="st6" d="M321.8,26L321.8,26c0.2,0,0.4-0.1,0.5-0.3c0.1-0.3,0-0.6-0.3-0.7c-0.9-0.2-2.9-1.8-3.5-0.9
		C318.2,25,321.1,25.6,321.8,26z"/>
	<path class="st6" d="M310.4,21.4c0.2,0,0.4-0.1,0.5-0.3c0.1-0.3,0-0.6-0.3-0.7c-0.9-0.1-3-1.7-3.6-0.8
		C306.8,20.6,309.6,21,310.4,21.4z"/>
	<path class="st6" d="M344,36.8L344,36.8c0.2,0,0.4-0.1,0.4-0.3c0.1-0.2,0.1-0.6-0.2-0.7c-0.9-0.2-2.7-2.1-3.4-1.2
		C340.4,35.4,343.3,36.4,344,36.8z"/>
	<path class="st6" d="M335.6,32.4c1,0.4,2,1.1,3,1.5l0,0c1.9-0.8-2-1.9-2.5-2.4c-0.2-0.1-0.5,0-0.7,0.2
		C335.2,32,335.3,32.3,335.6,32.4z"/>
	<path class="st6" d="M327.5,28.5L327.5,28.5c0.2,0,0.4-0.1,0.5-0.3c0.1-0.3,0-0.6-0.2-0.7c-0.9-0.2-2.8-1.9-3.5-1
		C323.8,27.4,326.8,28.1,327.5,28.5z"/>
	<path class="st6" d="M448.3,139.2c0.1,0,0.2,0,0.3-0.1c0.2-0.1,0.3-0.5,0.2-0.7c-0.6-0.7-1.2-3.1-2.3-2.8c-0.2,0.1-0.3,0.5-0.2,0.7
		C447,137.2,447.3,138.7,448.3,139.2z"/>
	<path class="st6" d="M441.8,128.7L441.8,128.7c1.5-0.4-1-2.6-1.3-3.4c-0.2-0.2-0.5-0.3-0.7-0.1c-0.2,0.1-0.3,0.5-0.2,0.7
		C440.5,126.7,440.8,128.2,441.8,128.7z"/>
	<path class="st6" d="M461.7,163c-0.1-0.3-0.4-0.4-0.7-0.2c-0.2,0.1-0.4,0.4-0.3,0.6h1.1C461.8,163.3,461.7,163.1,461.7,163z"/>
	<polygon class="st6" points="438.4,123.6 438.4,123.6 438.4,123.6 	"/>
	<path class="st6" d="M438.4,123.6c-0.1,0-0.1-0.1-0.2-0.1C438.3,123.5,438.3,123.5,438.4,123.6
		C438.4,123.6,438.4,123.6,438.4,123.6z"/>
	<path class="st6" d="M459.9,161c1.4-0.3-0.7-2.7-0.9-3.5c-0.1-0.3-0.4-0.4-0.7-0.2c-0.3,0.1-0.4,0.4-0.2,0.7
		C458.8,158.8,458.9,160.5,459.9,161z"/>
	<path class="st6" d="M445.1,133.9L445.1,133.9c1.5-0.4-1-2.6-1.2-3.4c-0.2-0.2-0.4-0.3-0.7-0.2c-0.2,0.1-0.3,0.5-0.2,0.7
		C443.8,131.9,444.1,133.4,445.1,133.9z"/>
	<path class="st6" d="M457.2,155.4c1.4-0.3-0.8-2.7-1-3.5c-0.1-0.3-0.4-0.3-0.7-0.2s-0.3,0.4-0.2,0.7
		C456,153.3,456.2,154.9,457.2,155.4z"/>
	<path class="st6" d="M451.4,144.5L451.4,144.5c1.4-0.4-0.9-2.6-1.1-3.5c-0.1-0.2-0.5-0.3-0.7-0.2c-0.2,0.1-0.3,0.5-0.2,0.7
		C450.1,142.5,450.4,144,451.4,144.5z"/>
	<path class="st6" d="M454.3,149.9L454.3,149.9c1.4-0.4-0.8-2.6-1-3.5c-0.1-0.2-0.4-0.3-0.7-0.2c-0.3,0.1-0.4,0.4-0.2,0.7
		C453.1,147.9,453.3,149.4,454.3,149.9z"/>
	<path class="st6" d="M462.5,166.5c1.2-0.2-0.2-2.1-0.7-3.1h-1.1c0,0,0,0,0,0C461.4,164.4,461.5,166,462.5,166.5z"/>
	<path class="st6" d="M471,186c-0.1-0.3-0.4-0.4-0.6-0.3c-0.3,0.1-0.4,0.4-0.3,0.6c0.8,1.9,0.3,2.4,1.2,2.7c0,0,0,0,0.1,0l-0.1-0.5
		l0.5-0.1C471.7,188.2,471.5,187.4,471,186z"/>
	<path class="st6" d="M463.8,170h1.1c-0.3-0.6-0.6-1.1-0.6-1.4c-0.1-0.3-0.4-0.4-0.7-0.3c-0.3,0.1-0.4,0.4-0.3,0.7
		C463.5,169.3,463.6,169.7,463.8,170z"/>
	<path class="st6" d="M465,172.2c0.9-0.2,0.4-1.2-0.1-2.2h-1.1C464.1,170.9,464.3,171.8,465,172.2z"/>
	<path class="st6" d="M467.3,177.9c1.3-0.3-0.6-2.7-0.7-3.6c-0.1-0.2-0.4-0.4-0.6-0.3c-0.3,0.1-0.4,0.4-0.3,0.7
		C466.3,175.7,466.3,177.4,467.3,177.9z"/>
	<polygon class="st6" points="469.5,183.7 469.5,183.7 469.5,183.7 	"/>
	<polygon class="st6" points="467.3,177.9 467.3,177.9 467.3,177.9 	"/>
	<path class="st6" d="M469.5,183.7c1.3-0.3-0.5-2.7-0.6-3.6c-0.1-0.3-0.4-0.4-0.7-0.3c-0.3,0.1-0.4,0.4-0.3,0.7
		C468.5,181.4,468.5,183.3,469.5,183.7z"/>
	<path class="st3" d="M559.7,42.6c-10.6-19.9-40.4-21.4-52.9-2.5c3.3-0.1,6.6-0.1,9.8-0.1C531.2,40,545.6,40.9,559.7,42.6z"/>
	<path class="st3" d="M472.1,68.3h113.1c0.9-10.9-12-21-22-14.9c-0.6-4.1-1.8-7.7-3.5-10.8c-14.1-1.7-28.5-2.6-43-2.6
		c-3.3,0-6.6,0-9.8,0.1c-1.9,2.9-3.4,6.3-4.4,10.2C489.4,45.7,478.4,58.4,472.1,68.3z"/>
	<path class="st3" d="M442.3,24.4c-3.3-3-8.7-6.4-12.8-2.9c-6.7-12.7-26.6-11.8-32.2,1.5c-6.5-1.4-13.3,0.4-18.3,4.7h79.9
		C457.1,20.5,446.2,16.7,442.3,24.4z"/>
</g>
</svg>
