<svg xmlns="http://www.w3.org/2000/svg" width="564.698" height="377.36" viewBox="0 0 564.698 377.36">
  <g id="Group_10899" data-name="Group 10899" transform="translate(-626.303 -162.64)">
    <g id="Group_10826" data-name="Group 10826" transform="translate(405.303 147.607)">
      <g id="OBJECTS" transform="translate(221 15.033)">
        <g id="Group_10825" data-name="Group 10825">
          <g id="Group_10794" data-name="Group 10794">
            <g id="Group_10793" data-name="Group 10793" transform="translate(33.151)">
              <g id="Group_10785" data-name="Group 10785" transform="translate(384.898 185.854)">
                <g id="Group_10783" data-name="Group 10783" transform="translate(0 108.275)">
                  <path id="Path_6489" data-name="Path 6489" d="M400.67,425.8C389.93,415.57,373.9,406.183,374.964,389.18a.71.71,0,0,0-1.306-.4.3.3,0,0,0-.327.1.046.046,0,0,0-.029.031,24.041,24.041,0,0,0-2.433,6.38c-.006.018,0,.03-.011.036-2.354,10.136,1.461,21.342,7.375,29.658,4.489,6.292,10.238,11.52,16.305,16.26,3.412,2.655,6.97,5.127,10.383,7.781,3.222,2.5,5.952,5.47,8.945,8.166.123.116.252.246.386.357.031.743.054,1.475.054,2.219a.431.431,0,0,0,.859.045c.008-.125.011-.264.008-.384a.012.012,0,0,0,.006-.018c.01-.355.026-.7.023-1.045.135.111.259.227.386.326a.46.46,0,0,0,.737-.529,19.707,19.707,0,0,0-1.132-1.875c-.025-.534-.011-1-.06-1.518a.178.178,0,0,0-.026-.077C414.329,443.545,408.87,433.621,400.67,425.8Z" transform="translate(-370.153 -388.464)" fill="#20a3d5"/>
                </g>
                <path id="Path_6490" data-name="Path 6490" d="M492.055,362.608c-12.637,10.018-25.326,20.079-36.512,31.743a190.939,190.939,0,0,0-23.05,29.641c-.559.434-1.1.874-1.648,1.33-.171.137-.354.279-.518.427-.324.248-.623.514-.941.774.124-.568.218-1.134.313-1.7a.9.9,0,0,0,.736-.071.58.58,0,0,0,.239-.751c-.045-.142-.108-.291-.154-.434l-.007-.012c-.173-.47-.346-.91-.543-1.368a32.434,32.434,0,0,0-.024-4.256,17.857,17.857,0,0,0-.192-1.964.211.211,0,0,0-.02-.126c-1.129-9.289-5.728-18.333-10.359-26.493-9.385-16.469-17.82-33.807-19.056-53.035a1.039,1.039,0,0,0-1.194-.992l-.012.006a.65.65,0,0,0-.332.147,1.1,1.1,0,0,0-.276.282c-7.939,12.234-10.076,27.845-4.9,41.582,3.082,8.162,8.4,15.274,14.379,21.535,7.2,7.559,16.165,13.933,20.48,23.674.254.6.49,1.184.721,1.79.026.047.062.088.081.124-.082.818-.207,1.643-.349,2.463l-.759.631a.682.682,0,0,0,.383,1.179,31.523,31.523,0,0,1-1.016,3.411c-.028.06.075.081.091.027a.212.212,0,0,1,.034-.079.132.132,0,0,0,.223.019c.372-.5.739-.985,1.123-1.461.011-.007.006-.018.017-.025l.017-.054c.971-1.291,1.93-2.6,2.877-3.911.25-.331.5-.661.744-1,1.542-1.245,3.109-2.441,4.695-3.631l.011-.007c9.615-7.213,19.811-13.642,28.558-21.916a70.134,70.134,0,0,0,12.84-16.278,124.148,124.148,0,0,1,10.975-16.185l.006-.018c1.055-1.334,2.157-2.663,3.294-3.981a.712.712,0,0,0,.119-.838l-.007-.011A.691.691,0,0,0,492.055,362.608ZM429.864,428.2c-.006.018-.006.018-.017.025l-.006.018-.006.018a.013.013,0,0,1-.006.018.012.012,0,0,1-.006.018c-.7,1.176-1.395,2.351-2.075,3.532a29.521,29.521,0,0,0,1.089-3.1.65.65,0,0,0,.285-.151c.282-.241.565-.482.854-.712a2.331,2.331,0,0,1,.228-.2A2.789,2.789,0,0,1,429.864,428.2Z" transform="translate(-367.483 -287.068)" fill="#20a3d5"/>
                <path id="Path_6491" data-name="Path 6491" d="M442.823,293.018c-.193.239-.385.478-.566.71-5.668,7.064-10.735,13.718-13.861,22.426a63.7,63.7,0,0,0-3.559,26.937c.883,10,4.479,19.559,6.658,29.31a88.349,88.349,0,0,1,2.237,18.393l.006.012a76.791,76.791,0,0,1-.312,7.745c1.485-4.388,2.987-8.8,4.453-13.195l.011-.036c4.066-12.321,7.74-24.752,9.6-37.65,2.556-17.747.878-34.888-3.669-52.026l-.007-.011c-.253-1.021-.529-2.028-.823-3.041A.707.707,0,0,1,442.823,293.018Z" transform="translate(-363.107 -292.594)" fill="#20a3d5"/>
                <path id="Path_6492" data-name="Path 6492" d="M484.878,329.784A177.157,177.157,0,0,0,434.719,393.7a.366.366,0,0,0-.1.068l-.011.007c-1.159.706-2.312,1.424-3.483,2.137a1.012,1.012,0,0,0-.276.253.967.967,0,0,0-.18.778l.006.012a.9.9,0,0,0,1.355.664c.667-.4,1.33-.813,1.992-1.225,10.938-6.747,21.6-14.016,28.968-24.807,8.4-12.281,15.188-25.94,22.151-39.1,0-.018.017-.025.023-.043.293-.566.6-1.137.889-1.7a.558.558,0,0,0,.045-.115A.762.762,0,0,0,484.878,329.784Z" transform="translate(-362.325 -287.806)" fill="#20a3d5"/>
                <path id="Path_6493" data-name="Path 6493" d="M409.476,408.855c-8.817-14.309-23.976-24.053-26.834-41.616-.086-.561-.726-.51-.97-.138a.637.637,0,0,0-.125.248,59.5,59.5,0,0,0-.794,7.182,49.325,49.325,0,0,0,.02,6.566,44.123,44.123,0,0,0,10.128,25.66c9.287,11.356,21.923,19.78,29.252,32.63a13.606,13.606,0,0,1,.273,3.637.013.013,0,0,1-.006.018.014.014,0,0,1,0,.019,7.492,7.492,0,0,1-.745,2.947c-.258.547.517,1.063.817.509a9.2,9.2,0,0,0,1.106-4.385l.107.2a.751.751,0,0,0,.094.147.593.593,0,0,0,.323.209.764.764,0,0,0,.887-1.048c-.354-.724-.713-1.43-1.089-2.111-.245-.463-.514-.913-.765-1.356-.6-2.676-1.659-5.333-2.388-7.71A93.657,93.657,0,0,0,409.476,408.855Z" transform="translate(-368.794 -282.99)" fill="#20a3d5"/>
                <path id="Path_6494" data-name="Path 6494" d="M483.782,390.57a.316.316,0,0,0-.19.07,435.961,435.961,0,0,0-41.059,30.328c-8.342,6.949-16.9,14-24.124,22.176-.058.061-.111.134-.168.2-.012.007-.012.007-.018.025a.014.014,0,0,0-.006.018c-1.1,1.222-2.148,2.478-3.161,3.774-.119.063-.237.125-.361.207-.616,1.36-1.238,2.678-1.854,3.977a23.432,23.432,0,0,1,2.365-1.726,2.66,2.66,0,0,1,.272-.175c.7-.448,1.431-.881,2.177-1.276l.7-.372a.784.784,0,0,1,.16-.07c5.086-2.608,10.882-4.362,15.7-6.765a78.2,78.2,0,0,0,19.2-12.9c9.975-9.425,16.641-21.653,25.9-31.685a.2.2,0,0,1,.059-.061,66.821,66.821,0,0,1,4.853-4.793A.563.563,0,0,0,483.782,390.57Z" transform="translate(-364.629 -279.918)" fill="#20a3d5"/>
                <g id="Group_10784" data-name="Group 10784" transform="translate(36.46 50.853)">
                  <path id="Path_6495" data-name="Path 6495" d="M406.057,477.257c1.738-3.087,3.546-6.423,5.389-10l-.007-.012c.374-.7.734-1.422,1.107-2.151q1.52-3.017,3.061-6.228c.217-.449.422-.892.634-1.354.2-.394.388-.813.583-1.221.045-.114.108-.224.159-.357l.011-.007c.166-.347.332-.692.491-1.05.69-1.505,1.379-3.042,2.085-4.631l-.007-.012a.014.014,0,0,1,.006-.018c.006-.018.006-.018.018-.025.045-.114.1-.236.159-.357,2.576-5.88,5.21-12.4,7.74-19.481.011-.007.006-.018.017-.025l.017-.054c.27-.751.54-1.5.8-2.277a.012.012,0,0,0,.006-.018.013.013,0,0,0,.006-.018l.006-.018.006-.018c.011-.007.011-.007.017-.025.034-.108.079-.224.113-.333.3-.841.583-1.676.868-2.542a290.431,290.431,0,0,0,8.335-29.67c.12-.489.228-.971.331-1.467l.011-.006c.032-.2.081-.392.124-.6.037-.187.074-.374.119-.549l.011-.007c.911-4.3,1.754-8.693,2.479-13.195l.011-.036a254.9,254.9,0,0,0,3.4-40.29A1.577,1.577,0,1,0,441,339.2q-.012,6.307-.367,12.458a.052.052,0,0,0,.008.042,258.364,258.364,0,0,1-4.042,33.271l.006.012q-.972,5.165-2.107,10.142c-.049.253-.12.518-.18.778l.006.012c-1.71,7.455-3.664,14.568-5.746,21.264l-.139.453-.809,2.541c-.236.7-.459,1.4-.676,2.075-2.523,7.613-5.192,14.665-7.858,21.063-.09.23-.193.466-.289.686q-.112.263-.221.527c-.33.783-.653,1.546-.978,2.28a.013.013,0,0,1-.006.018s.007.012,0,.018c-1.006,2.342-2,4.588-2.983,6.718-.622,1.348-1.232,2.66-1.856,3.947s-1.217,2.544-1.83,3.767c-.343.7-.687,1.4-1.03,2.066-.076.146-.138.286-.212.431-2.5,4.946-4.947,9.455-7.252,13.489Z" transform="translate(-402.436 -337.621)" fill="#22475c"/>
                </g>
                <path id="Path_6496" data-name="Path 6496" d="M466.539,351.442a197.653,197.653,0,0,1-34.349,39.7,1.482,1.482,0,0,0,1.958,2.222A200.7,200.7,0,0,0,469,353.084,1.482,1.482,0,0,0,466.539,351.442Z" transform="translate(-362.19 -285.064)" fill="#22475c"/>
                <path id="Path_6497" data-name="Path 6497" d="M460.95,384.869l-37.776,36.181c-1.376,1.317.581,3.541,1.958,2.221l37.776-36.181C464.284,385.773,462.328,383.55,460.95,384.869Z" transform="translate(-363.353 -280.706)" fill="#22475c"/>
                <path id="Path_6498" data-name="Path 6498" d="M459.314,410.25a457.2,457.2,0,0,0-46.3,35.8,1.482,1.482,0,0,0,1.958,2.222,457.028,457.028,0,0,1,46.3-35.8C462.85,411.405,460.873,409.2,459.314,410.25Z" transform="translate(-364.672 -277.406)" fill="#22475c"/>
                <path id="Path_6499" data-name="Path 6499" d="M429.87,421.936c-.936-10.719-6.669-19.857-12.7-28.466-7.261-10.368-13.776-20.307-15.848-33.043-.306-1.882-3.2-1.264-2.9.617,1.844,11.341,7.041,20.87,13.56,30.181,6.71,9.584,13.933,19.283,14.986,31.328C427.139,424.445,430.034,423.815,429.87,421.936Z" transform="translate(-366.497 -283.964)" fill="#22475c"/>
                <path id="Path_6500" data-name="Path 6500" d="M422.755,440.042c-3.431-9.654-8.924-18.263-14.838-26.567-6.6-9.263-13.387-18.392-20.09-27.578-1.126-1.542-3.336.43-2.221,1.958,6.451,8.84,12.96,17.639,19.34,26.53,6.05,8.43,11.672,17.159,15.164,26.988C420.747,443.167,423.385,441.818,422.755,440.042Z" transform="translate(-368.193 -280.593)" fill="#22475c"/>
                <path id="Path_6501" data-name="Path 6501" d="M415.658,455.641c-4.4-10.237-11.487-18.106-19.49-25.695s-16.217-15.285-20.016-25.928c-.639-1.793-3.278-.444-2.645,1.33,3.562,9.978,10.954,17.559,18.49,24.711,8.481,8.049,16.327,16,21.017,26.912C413.769,458.727,416.409,457.387,415.658,455.641Z" transform="translate(-369.732 -278.286)" fill="#22475c"/>
              </g>
              <g id="Group_10788" data-name="Group 10788" transform="translate(4.703 181.437)">
                <g id="Group_10786" data-name="Group 10786" transform="translate(16.372 148.998)">
                  <path id="Path_6502" data-name="Path 6502" d="M97.946,436.062c-16.671-1.77-37.5.862-48.252-15.1a.8.8,0,0,0-1.447.541.344.344,0,0,0-.226.313.056.056,0,0,0,0,.047,27.131,27.131,0,0,0,2.215,7.391c.007.02.021.027.015.041,4.872,10.7,16.008,18.112,27.033,21.49,8.355,2.543,17.1,3.268,25.8,3.336,4.886.028,9.776-.208,14.661-.18,4.608.019,9.1.8,13.637,1.153.191.02.4.047.592.054.54.646,1.065,1.285,1.578,1.952a.486.486,0,0,0,.8-.551c-.079-.119-.172-.245-.257-.35a.015.015,0,0,0-.007-.02c-.236-.324-.457-.641-.7-.952.2.007.389.027.571.027a.52.52,0,0,0,.3-.98,22.379,22.379,0,0,0-2.306-.9c-.39-.462-.7-.884-1.1-1.318a.205.205,0,0,0-.077-.052C122.4,442.548,110.674,437.419,97.946,436.062Z" transform="translate(-48.013 -420.61)" fill="#20a3d5"/>
                </g>
                <path id="Path_6503" data-name="Path 6503" d="M135.818,321.427c-4.42,17.678-8.859,35.431-10.847,53.584a215.658,215.658,0,0,0-.234,42.429c-.2.774-.385,1.54-.56,2.327-.06.239-.125.494-.171.739-.12.446-.206.89-.311,1.342-.28-.594-.585-1.167-.891-1.739a1.015,1.015,0,0,0,.61-.571.652.652,0,0,0-.3-.837c-.139-.1-.3-.186-.437-.284l-.014-.006c-.48-.3-.937-.577-1.429-.852a36.654,36.654,0,0,0-2.953-3.8,20.143,20.143,0,0,0-1.524-1.627.251.251,0,0,0-.106-.1c-7.41-7.544-17.757-12.479-27.527-16.6-19.75-8.29-39.248-18.013-53.6-34.387a1.175,1.175,0,0,0-1.753-.065l-.007.014a.741.741,0,0,0-.2.36,1.235,1.235,0,0,0-.051.443c1.313,16.427,10.15,31.885,24.245,40.629,8.384,5.188,18.047,7.9,27.714,9.389,11.653,1.814,24.078,1.349,34.652,7.1.638.358,1.255.723,1.879,1.107.055.026.116.037.158.055.489.791.946,1.615,1.384,2.447l-.245,1.088a.771.771,0,0,0,1.155.794,35.916,35.916,0,0,1,1.438,3.754c.017.075.123.023.1-.037a.266.266,0,0,1-.024-.094.149.149,0,0,0,.212-.137c-.012-.706-.017-1.39,0-2.083.007-.015-.007-.02,0-.034l-.023-.061c-.018-1.824-.064-3.661-.116-5.484,0-.469-.007-.936-.025-1.411.525-2.176,1.106-4.328,1.705-6.487l.007-.014c3.643-13.083,8.351-25.865,10.489-39.3a79.259,79.259,0,0,0,.291-23.426,140.421,140.421,0,0,1-1.315-22.058l-.007-.02c.025-1.921.1-3.872.209-5.837a.807.807,0,0,0-.471-.831l-.014-.006A.782.782,0,0,0,135.818,321.427ZM125.278,423.018c.008.02.008.02,0,.034l.008.02.007.02a.016.016,0,0,1,.008.02.014.014,0,0,1,.008.019c.184,1.534.368,3.067.573,4.593a33.219,33.219,0,0,0-1.159-3.527.743.743,0,0,0,.151-.331c.087-.41.174-.821.274-1.224a2.484,2.484,0,0,1,.069-.335A3.275,3.275,0,0,1,125.278,423.018Z" transform="translate(-33.517 -284.531)" fill="#20a3d5"/>
                <path id="Path_6504" data-name="Path 6504" d="M42.725,289.18c-.008.347-.016.693-.017,1.026-.213,10.232-.169,19.683,3.027,29.638A71.979,71.979,0,0,0,61.1,346.426c7.676,8.35,17.483,14.437,26.15,21.671a99.889,99.889,0,0,1,14.673,14.939l.014.006a87,87,0,0,1,5.055,7.154c-1.692-4.953-3.386-9.941-5.1-14.887l-.015-.041c-4.843-13.837-10.114-27.5-17.329-40.341-9.933-17.658-23.243-31.858-39.119-44.079l-.014-.006c-.929-.741-1.871-1.452-2.833-2.158A.8.8,0,0,1,42.725,289.18Z" transform="translate(-32.343 -288.683)" fill="#20a3d5"/>
                <path id="Path_6505" data-name="Path 6505" d="M102.693,296.042a200.166,200.166,0,0,0-.916,91.8.425.425,0,0,0-.043.131l-.006.014c-.552,1.431-1.09,2.869-1.649,4.313a1.158,1.158,0,0,0-.072.417,1.1,1.1,0,0,0,.375.821l.014.006a1.011,1.011,0,0,0,1.67-.338c.324-.819.632-1.644.942-2.469,5.152-13.579,9.7-27.434,8.866-42.176-.934-16.786-4.26-33.7-7.086-50.282-.007-.019,0-.033-.008-.053-.128-.708-.248-1.43-.376-2.138a.633.633,0,0,0-.04-.134A.861.861,0,0,0,102.693,296.042Z" transform="translate(-25.316 -287.822)" fill="#0097a7"/>
                <path id="Path_6506" data-name="Path 6506" d="M94.392,414.6c-17.753-6.747-38.044-5.036-52.7-18.8-.463-.445-1,.043-.963.543a.722.722,0,0,0,.059.311,67.345,67.345,0,0,0,4.234,6.98,55.786,55.786,0,0,0,4.541,5.868,49.86,49.86,0,0,0,26.746,16.011c16.14,3.778,33.262,2.621,48.679,9.085a15.4,15.4,0,0,1,2.75,3.071.014.014,0,0,1,.008.019.015.015,0,0,1,.007.02,8.426,8.426,0,0,1,1.363,3.153c.146.667,1.195.6,1.081-.106a10.4,10.4,0,0,0-2.028-4.69l.235.107a.864.864,0,0,0,.185.068.676.676,0,0,0,.433-.036.863.863,0,0,0,.073-1.55c-.815-.405-1.623-.789-2.429-1.141-.539-.246-1.089-.463-1.62-.689-2.379-1.984-5.159-3.634-7.449-5.263C110.361,422.451,102.7,417.758,94.392,414.6Z" transform="translate(-32.584 -274.845)" fill="#20a3d5"/>
                <path id="Path_6507" data-name="Path 6507" d="M143.82,352.527a.362.362,0,0,0-.122.194,492.33,492.33,0,0,0-15.9,55.448c-2.687,11.97-5.5,24.183-6.338,36.479-.01.1-.007.2-.016.293-.007.014-.007.014,0,.034a.014.014,0,0,0,.007.02c-.142,1.851-.218,3.7-.233,5.559-.062.138-.125.276-.181.434.385,1.642.735,3.25,1.077,4.839a26.253,26.253,0,0,1,.929-3.175,3.022,3.022,0,0,1,.123-.343c.321-.887.675-1.774,1.072-2.644l.37-.814a.889.889,0,0,1,.095-.173c2.76-5.839,6.745-11.4,9.4-16.872a88.382,88.382,0,0,0,8.321-24.779c2.444-15.314,0-30.858,1.379-46.222a.223.223,0,0,1,.01-.1,75.558,75.558,0,0,1,1.046-7.637A.636.636,0,0,0,143.82,352.527Z" transform="translate(-22.191 -280.443)" fill="#0097a7"/>
                <g id="Group_10787" data-name="Group 10787" transform="translate(41.63 47.452)">
                  <path id="Path_6508" data-name="Path 6508" d="M79,344.976a.058.058,0,0,0,.035.033A291.653,291.653,0,0,1,98.327,377.6l.014.006q2.685,5.3,5.1,10.538c.131.26.25.547.375.821l.014.006c3.6,7.857,6.752,15.574,9.5,23.008l.187.5c.347.958.687,1.9,1.025,2.834.273.791.552,1.568.823,2.324,2.984,8.559,5.449,16.714,7.468,24.282.077.269.149.551.212.813.055.208.11.417.165.625.244.928.481,1.835.7,2.717a.014.014,0,0,1,.008.019.015.015,0,0,1,.007.02c.712,2.791,1.365,5.488,1.955,8.072.372,1.636.727,3.231,1.056,4.813s.663,3.118.954,4.634c.174.863.348,1.725.5,2.56.034.183.073.351.107.532.759,4,1.407,7.814,1.967,11.428h3.6q-.7-4.549-1.594-9.514l-.014-.007c-.147-.883-.322-1.78-.491-2.689q-.715-3.751-1.546-7.687c-.115-.552-.236-1.091-.365-1.649-.093-.492-.213-1-.32-1.5-.038-.134-.058-.277-.1-.43l.007-.014c-.09-.425-.18-.849-.283-1.28-.419-1.824-.859-3.674-1.321-5.584l-.015-.007a.014.014,0,0,1-.007-.02c-.008-.02-.008-.02,0-.034-.04-.134-.072-.282-.1-.43-1.742-7.042-3.87-14.693-6.484-22.782.007-.015-.007-.02,0-.034l-.023-.061c-.274-.858-.55-1.717-.853-2.589a.016.016,0,0,0-.008-.02.014.014,0,0,0-.008-.019l-.007-.02-.008-.02c.007-.014.007-.014,0-.034-.045-.12-.084-.254-.129-.375-.313-.96-.632-1.9-.972-2.877a328.038,328.038,0,0,0-12.969-32.32c-.229-.522-.464-1.029-.714-1.543l.007-.014c-.11-.2-.2-.407-.3-.62-.1-.193-.191-.387-.272-.574l.006-.013c-2.142-4.477-4.416-9-6.867-13.528l-.015-.041A288.015,288.015,0,0,0,73.577,331.4a1.782,1.782,0,1,0-2.83,2.165Q75.08,339.222,79,344.976Z" transform="translate(-70.377 -330.698)" fill="#22475c"/>
                </g>
                <path id="Path_6509" data-name="Path 6509" d="M102.864,326.615a223.288,223.288,0,0,1-3.431,59.22,1.674,1.674,0,0,0,3.284.642A226.8,226.8,0,0,0,106.2,326.39,1.675,1.675,0,0,0,102.864,326.615Z" transform="translate(-24.992 -283.998)" fill="#22475c"/>
                <path id="Path_6510" data-name="Path 6510" d="M121.18,360.656q-4.462,29.215-8.923,58.43c-.325,2.128,2.959,2.773,3.284.64Q120,390.512,124.464,361.3C124.788,359.17,121.505,358.525,121.18,360.656Z" transform="translate(-23.331 -279.54)" fill="#22475c"/>
                <path id="Path_6511" data-name="Path 6511" d="M137.233,385.2a516.77,516.77,0,0,0-16.826,63.958,1.674,1.674,0,0,0,3.284.64,516.806,516.806,0,0,1,16.826-63.957C141.2,383.8,137.9,383.184,137.233,385.2Z" transform="translate(-22.278 -276.354)" fill="#22475c"/>
                <path id="Path_6512" data-name="Path 6512" d="M121.719,412.306c-8.222-8.957-19.65-13.2-30.98-16.756-13.646-4.288-26.328-8.7-36.956-18.688-1.57-1.474-3.738,1.074-2.17,2.548,9.463,8.889,20.681,13.848,32.933,17.7,12.612,3.965,25.764,7.679,35,17.744C121,416.435,123.16,413.877,121.719,412.306Z" transform="translate(-31.245 -277.331)" fill="#22475c"/>
                <path id="Path_6513" data-name="Path 6513" d="M127.809,433.414c-9.723-6.287-20.574-10.215-31.59-13.582-12.289-3.754-24.659-7.256-36.991-10.868-2.07-.606-2.691,2.683-.641,3.284,11.867,3.476,23.759,6.876,35.6,10.446,11.226,3.386,22.275,7.334,32.173,13.733C128.163,437.595,129.6,434.569,127.809,433.414Z" transform="translate(-30.436 -273.129)" fill="#22475c"/>
                <path id="Path_6514" data-name="Path 6514" d="M132.193,452.283c-10.994-6.138-22.762-8.308-35.158-9.6s-25.055-2.523-35.787-9.442c-1.808-1.166-3.242,1.861-1.454,3.014,10.063,6.486,21.906,8.186,33.584,9.4,13.142,1.369,25.65,3.093,37.363,9.634C132.624,456.349,134.068,453.33,132.193,452.283Z" transform="translate(-30.223 -270.011)" fill="#22475c"/>
              </g>
              <g id="Group_10791" data-name="Group 10791" transform="translate(181.822 183.48)">
                <g id="Group_10789" data-name="Group 10789" transform="translate(0 109.925)">
                  <path id="Path_6515" data-name="Path 6515" d="M212.044,449.977c3.424,3.485,7.04,6.785,10.464,10.271,3.236,3.28,5.848,7.017,8.8,10.483l.025.031h1.991c-.128-.282-.255-.566-.394-.843.053-.6.137-1.117.16-1.709a.2.2,0,0,0-.018-.09c.8-12.6-3.832-24.534-11.846-34.515-10.5-13.07-27.05-25.984-23.311-44.867a.8.8,0,0,0-1.4-.645.345.345,0,0,0-.382.061.056.056,0,0,0-.037.029,27.142,27.142,0,0,0-3.68,6.782c-.009.02,0,.034-.018.04-4.154,11-1.557,24.123,3.821,34.321C200.3,437.043,205.959,443.76,212.044,449.977Z" transform="translate(-190.343 -387.823)" fill="#0097a7"/>
                </g>
                <path id="Path_6516" data-name="Path 6516" d="M333.279,376.424c-15.652,9.33-31.371,18.7-45.646,30.089a215.658,215.658,0,0,0-30.253,29.749c-.691.4-1.364.813-2.045,1.243-.211.126-.437.259-.644.4-.4.229-.776.482-1.17.725.225-.617.414-1.237.605-1.857a1.02,1.02,0,0,0,.836.029.654.654,0,0,0,.381-.8c-.029-.167-.078-.343-.108-.51l0-.014c-.124-.552-.252-1.072-.4-1.614a36.584,36.584,0,0,0,.61-4.769,20.406,20.406,0,0,0,.08-2.229.245.245,0,0,0,0-.143c.125-10.575-3.672-21.392-7.637-31.226-8.047-19.85-14.9-40.532-13.406-62.253a1.175,1.175,0,0,0-1.189-1.289l-.014,0a.741.741,0,0,0-.4.114,1.271,1.271,0,0,0-.35.276c-10.722,12.514-15.455,29.681-11.716,45.84,2.232,9.6,7.125,18.365,12.883,26.272,6.929,9.543,16.019,18.026,19.4,29.582.2.7.372,1.4.54,2.112.02.058.056.108.072.151-.216.9-.478,1.81-.76,2.707l-.944.593a.77.77,0,0,0,.252,1.378,35.682,35.682,0,0,1-1.649,3.668c-.041.063.071.1.1.045a.256.256,0,0,1,.05-.084.15.15,0,0,0,.246.054c.491-.506.975-.993,1.476-1.469.015-.006.009-.019.024-.025l.027-.059c1.281-1.3,2.55-2.627,3.806-3.951.33-.332.66-.664.984-1.011,1.913-1.163,3.848-2.268,5.8-3.365l.015-.006c11.847-6.641,24.23-12.315,35.266-20.273A79.253,79.253,0,0,0,315.2,398.2a140.278,140.278,0,0,1,14.716-16.486l.009-.019q2.07-2.006,4.286-3.966a.8.8,0,0,0,.258-.92l-.006-.014A.782.782,0,0,0,333.279,376.424ZM253.806,440.58c-.009.019-.009.019-.023.025l-.009.019-.009.02a8.4,8.4,0,0,1-.018.038c-.958,1.212-1.914,2.425-2.853,3.646a33.286,33.286,0,0,0,1.684-3.309.743.743,0,0,0,.341-.126c.352-.228.7-.455,1.063-.669a2.7,2.7,0,0,1,.286-.187A3.165,3.165,0,0,1,253.806,440.58Z" transform="translate(-186.565 -285.128)" fill="#20a3d5"/>
                <path id="Path_6517" data-name="Path 6517" d="M288.892,290.942c-.252.239-.5.478-.74.711-7.405,7.063-14.077,13.757-18.881,23.043a71.984,71.984,0,0,0-8.018,29.639c-.508,11.331,2.089,22.577,3.07,33.824a99.879,99.879,0,0,1-.247,20.937l.006.014a86.911,86.911,0,0,1-1.509,8.63c2.32-4.693,4.662-9.41,6.963-14.112l.018-.04c6.4-13.191,12.372-26.564,16.389-40.732,5.518-19.494,6.2-38.945,3.676-58.82l-.006-.014c-.13-1.181-.289-2.351-.468-3.53A.788.788,0,0,1,288.892,290.942Z" transform="translate(-181.176 -290.492)" fill="#20a3d5"/>
                <path id="Path_6518" data-name="Path 6518" d="M330.8,337.792a200.172,200.172,0,0,0-65.744,64.078.408.408,0,0,0-.123.062l-.014,0c-1.4.618-2.8,1.25-4.222,1.873a1.152,1.152,0,0,0-.347.242,1.1,1.1,0,0,0-.317.846l.006.014a1.011,1.011,0,0,0,1.417.946c.807-.348,1.612-.71,2.415-1.073,13.262-5.92,26.292-12.466,36.159-23.451,11.245-12.5,20.893-26.78,30.661-40.476.009-.019.023-.025.032-.044.412-.59.839-1.185,1.251-1.773a.717.717,0,0,0,.068-.123A.862.862,0,0,0,330.8,337.792Z" transform="translate(-181.326 -284.39)" fill="#20a3d5"/>
                <path id="Path_6519" data-name="Path 6519" d="M233.6,415.983c-7.734-17.346-23.253-30.529-23.827-50.627-.011-.643-.736-.681-1.065-.3a.738.738,0,0,0-.178.26,67.144,67.144,0,0,0-1.963,7.925,55.637,55.637,0,0,0-.961,7.358,49.855,49.855,0,0,0,7.5,30.255c8.7,14.11,21.593,25.436,27.879,40.926a15.406,15.406,0,0,1-.237,4.116,16.314,16.314,0,0,0-.018.038,8.442,8.442,0,0,1-1.276,3.189c-.369.574.421,1.267.838.692a10.4,10.4,0,0,0,1.9-4.746l.089.242a.919.919,0,0,0,.082.18.679.679,0,0,0,.331.281.863.863,0,0,0,1.151-1.04c-.288-.864-.585-1.709-.9-2.528-.2-.555-.438-1.1-.653-1.634-.27-3.085-1.059-6.221-1.52-8.993C239.3,432.84,237.226,424.1,233.6,415.983Z" transform="translate(-188.384 -280.876)" fill="#0097a7"/>
                <path id="Path_6520" data-name="Path 6520" d="M320.366,405.432a.365.365,0,0,0-.224.05,492.582,492.582,0,0,0-50.527,27.824c-10.383,6.534-21.027,13.15-30.338,21.226-.075.061-.145.134-.219.194-.014.006-.014.006-.023.026a.014.014,0,0,0-.009.019c-1.414,1.2-2.777,2.453-4.106,3.754-.142.052-.283.105-.435.177-.893,1.431-1.787,2.813-2.673,4.176a26.23,26.23,0,0,1,2.908-1.579,2.825,2.825,0,0,1,.33-.155c.855-.4,1.735-.772,2.63-1.1l.839-.312a.893.893,0,0,1,.19-.054c6.086-2.159,12.841-3.257,18.593-5.228a88.385,88.385,0,0,0,23.439-11.569c12.583-9.065,21.88-21.761,33.75-31.613a.216.216,0,0,1,.075-.06,75.563,75.563,0,0,1,6.154-4.643A.636.636,0,0,0,320.366,405.432Z" transform="translate(-184.977 -275.62)" fill="#20a3d5"/>
                <g id="Group_10790" data-name="Group 10790" transform="translate(40.942 56.451)">
                  <path id="Path_6521" data-name="Path 6521" d="M230.89,476.888c1.023-1.515,2.052-3.053,3.088-4.636.311-.471.606-.936.913-1.422.283-.412.557-.854.835-1.28.068-.123.156-.236.233-.377l.014-.006c.238-.363.475-.726.707-1.1,1-1.582,2-3.2,3.028-4.875l0-.014a.014.014,0,0,1,.009-.019c.009-.02.009-.02.023-.026.068-.122.15-.248.233-.376,3.765-6.2,7.691-13.1,11.584-20.661.015-.006.009-.019.024-.025l.027-.059c.415-.8.829-1.6,1.233-2.43a16.284,16.284,0,0,0,.018-.038l.009-.02.009-.019c.014-.006.014-.006.023-.025.054-.116.122-.238.176-.356.459-.9.9-1.791,1.353-2.717A328.156,328.156,0,0,0,268.2,404.419c.208-.531.4-1.055.591-1.594l.014-.006c.064-.218.149-.427.228-.651.07-.2.14-.408.216-.6l.014,0c1.664-4.677,3.265-9.474,4.751-14.408l.018-.04a287.977,287.977,0,0,0,9.835-44.618,1.782,1.782,0,1,0-3.532-.481q-.957,7.063-2.276,13.9a.055.055,0,0,0,0,.049,291.967,291.967,0,0,1-9.507,36.66l.006.014q-1.864,5.64-3.879,11.044c-.091.277-.211.564-.317.846l.006.014c-3.032,8.094-6.285,15.769-9.62,22.957l-.224.487-1.286,2.724c-.368.751-.723,1.5-1.067,2.224-3.965,8.149-8.01,15.649-11.955,22.415-.136.244-.285.494-.427.724-.108.186-.218.372-.326.558-.486.827-.962,1.634-1.435,2.409a16.314,16.314,0,0,0-.018.038q-2.216,3.708-4.346,7.077c-.9,1.417-1.779,2.794-2.669,4.144s-1.744,2.668-2.613,3.944c-.489.732-.978,1.463-1.463,2.159-.106.152-.2.3-.3.452l-.021.031Z" transform="translate(-226.594 -340.475)" fill="#22475c"/>
                </g>
                <path id="Path_6522" data-name="Path 6522" d="M306.578,359.628a223.313,223.313,0,0,1-44.415,39.321,1.674,1.674,0,0,0,1.861,2.782,226.768,226.768,0,0,0,45.067-39.894A1.674,1.674,0,0,0,306.578,359.628Z" transform="translate(-181.144 -281.62)" fill="#22475c"/>
                <path id="Path_6523" data-name="Path 6523" d="M295.251,396.177l-47.726,34.87c-1.738,1.269.12,4.053,1.861,2.781l47.726-34.87C298.85,397.688,296.992,394.906,295.251,396.177Z" transform="translate(-183.034 -276.859)" fill="#22475c"/>
                <path id="Path_6524" data-name="Path 6524" d="M289.611,424.214a516.54,516.54,0,0,0-57.217,33.162,1.674,1.674,0,0,0,1.861,2.781,516.721,516.721,0,0,1,57.217-33.162C293.4,426.037,291.514,423.269,289.611,424.214Z" transform="translate(-184.996 -273.214)" fill="#22475c"/>
                <path id="Path_6525" data-name="Path 6525" d="M254.273,433.685c.556-12.144-4.5-23.238-9.961-33.782-6.581-12.7-12.392-24.807-12.805-39.382-.061-2.154-3.4-1.9-3.336.256.368,12.979,4.762,24.43,10.669,35.833,6.082,11.74,12.72,23.683,12.1,37.332C250.838,436.088,254.176,435.817,254.273,433.685Z" transform="translate(-185.449 -281.624)" fill="#22475c"/>
                <path id="Path_6526" data-name="Path 6526" d="M243.6,452.9c-2.4-11.327-7.262-21.792-12.642-31.977-6-11.363-12.242-22.6-18.374-33.9-1.03-1.9-3.8-.017-2.781,1.861,5.9,10.866,11.876,21.7,17.691,32.609,5.514,10.348,10.5,20.966,12.945,32.5C240.879,456.1,244.036,454.985,243.6,452.9Z" transform="translate(-187.854 -278.103)" fill="#22475c"/>
                <path id="Path_6527" data-name="Path 6527" d="M210.641,437.117c7.9,9.8,15.168,19.429,18.967,31.493h3.5c-3.459-11.8-10.1-21.488-17.774-31-7.829-9.7-15.876-19.546-18.538-32.035-.448-2.1-3.605-.987-3.161,1.094C196.125,418.38,203.27,427.978,210.641,437.117Z" transform="translate(-189.923 -275.746)" fill="#22475c"/>
              </g>
              <g id="Group_10792" data-name="Group 10792">
                <path id="Path_6528" data-name="Path 6528" d="M139.945,499.741H257.652c8.984,0,14.347-7.283,11.976-16.269L180.158,144.3c-2.371-8.985-11.575-16.269-20.561-16.269H41.89c-8.984,0-14.347,7.283-11.977,16.269l89.472,339.17C121.756,492.457,130.96,499.741,139.945,499.741Z" transform="translate(-29.353 -128.033)" fill="#3b474e"/>
                <path id="Path_6529" data-name="Path 6529" d="M140.51,486.1H253.515c8.984,0,14.347-7.283,11.976-16.268L179.619,144.3c-2.371-8.985-11.575-16.269-20.561-16.269h-113c-8.985,0-14.348,7.283-11.977,16.269l85.874,325.531C122.32,478.817,131.526,486.1,140.51,486.1Z" transform="translate(-28.814 -128.033)" fill="#667a84"/>
                <path id="Path_6530" data-name="Path 6530" d="M47.953,133.714H164.6c5.136,0,10.4,4.164,11.755,9.3l89.762,340.273c1.355,5.137-1.711,9.3-6.848,9.3H142.623c-5.137,0-10.4-4.164-11.755-9.3L41.106,143.016C39.75,137.878,42.817,133.714,47.953,133.714Z" transform="translate(-27.874 -127.298)" fill="#fff"/>
                <path id="Path_6531" data-name="Path 6531" d="M107.779,136.511c-4.555.084-1.156,9.751,3.4,9.668S112.336,136.427,107.779,136.511Z" transform="translate(-19.484 -126.936)" fill="#3b474e"/>
              </g>
            </g>
            <rect id="Rectangle_2907" data-name="Rectangle 2907" width="564.697" height="6.54" transform="translate(0 370.82)" fill="#3b474e"/>
          </g>
          <g id="Group_10824" data-name="Group 10824" transform="translate(123.766 37.152)">
            <g id="Group_10810" data-name="Group 10810" transform="translate(234.817)">
              <g id="Group_10809" data-name="Group 10809">
                <g id="Group_10796" data-name="Group 10796" transform="translate(8.788 100.021)">
                  <g id="Group_10795" data-name="Group 10795">
                    <path id="Path_6532" data-name="Path 6532" d="M379.493,249.49l-7.906,21.358-30-6-1.377,5.263-.421,1.615,32.045,13.944a8.751,8.751,0,0,0,12.122-9.467Z" transform="translate(-323.405 -249.49)" fill="#ffc9b9"/>
                    <path id="Path_6533" data-name="Path 6533" d="M383.958,276.206l-4.466-26.716-3.838,10.368c2.08,6.88,3.58,13.779,2.188,21.155.7-.1,1.407-.226,2.12-.391-.713.165-1.417.288-2.12.391-.046.246-.086.491-.139.739.053-.247.093-.492.139-.739-13.4,1.963-25.127-6.461-37.63-10.9h0l-.421,1.615,32.045,13.944A8.751,8.751,0,0,0,383.958,276.206Z" transform="translate(-323.405 -249.49)" fill="#fda98f"/>
                    <path id="Path_6534" data-name="Path 6534" d="M331.089,257.757l-5.807,3.677,5.807,7.559,4.786,2.161,5.793-.495,1.8-6.878Z" transform="translate(-325.282 -248.42)" fill="#fda98f"/>
                  </g>
                  <path id="Path_6535" data-name="Path 6535" d="M341.983,269.326l-3.394-1.505a9.9,9.9,0,0,1-4.711-5.472l-.66-1.88-6.555-3.04a.969.969,0,0,1-.527-1.129h0a.968.968,0,0,1,1.211-.679l8.685,1.187a6.962,6.962,0,0,1,5.07,3.388l2.258,3.868Z" transform="translate(-325.176 -248.702)" fill="#ffc9b9"/>
                </g>
                <g id="Group_10797" data-name="Group 10797" transform="translate(39.396)">
                  <path id="Path_6536" data-name="Path 6536" d="M352.441,186.135a18.122,18.122,0,0,0,11.707,18.105c3.651,1.281,8.04,1.554,10.449,4.583,2.264,2.849,1.775,6.9,1.546,10.537s.326,7.981,3.551,9.67c4.075,2.135,9.071-1.641,13.537-.538,4.409,1.089,6.32,6.338,6.532,10.875s-.487,9.363,1.6,13.4c2.036,3.937,6.428,6.242,10.826,6.792s8.841-.411,13.112-1.6c5.222-1.449,10.429-3.284,14.833-6.441s7.963-7.8,8.823-13.15-1.432-11.336-6.182-13.942c-2.779-1.526-6.389-2.032-8.107-4.7-1.819-2.823-.544-6.53.709-9.646s2.368-6.931.334-9.6c-3.7-4.855-13.124-.424-16.816-5.281-1.432-1.885-1.343-4.463-1.477-6.826a29.043,29.043,0,0,0-41.714-24.565c-3.5,1.636-5.869,4.541-9.1,6.389-3.1,1.774-6.151,2.3-8.843,4.955A17.773,17.773,0,0,0,352.441,186.135Z" transform="translate(-352.383 -160.928)" fill="#bf360c"/>
                  <path id="Path_6537" data-name="Path 6537" d="M442.776,224.244c-2.779-1.526-6.389-2.032-8.107-4.7-1.819-2.823-.544-6.53.71-9.646s2.367-6.931.333-9.6c-3.7-4.855-13.124-.424-16.816-5.281-1.432-1.885-1.343-4.463-1.477-6.826a29.926,29.926,0,0,0-19.382-25.848,33.566,33.566,0,0,1,14.377,20.2,34.09,34.09,0,0,1,.741,8.513c-.09,4.007-2.622,9.061,2.511,10.93,3.612,1.316,7.55.836,10.319,4.1,1.622,1.909,1.588,4.214.88,6.5-.691,2.228-1.127,4.157-.322,6.441a18.1,18.1,0,0,0,3.892,5.883c1.429,1.564,2.852,3.194,2.917,5.428a8.731,8.731,0,0,1-2.541,5.937c-2.772,2.932-7.194,4.344-11.085,4.931-3.655.551-7.294.152-10.161-2.36-2.681-2.349-4.049-5.935-5.316-9.164-.721-1.839-1.359-3.642-2.873-5a10.769,10.769,0,0,0-4.662-2.2c-3.951-.988-8.536-.54-12.209-2.41-3.283-1.672-3.863-5.192-3.71-8.534.146-3.2.892-7.105-2-9.351a13.057,13.057,0,0,0-5.358-2.071c-1.943-.421-3.881-.883-5.772-1.5-4.129-1.336-8.066-3.405-10.692-6.962a16.048,16.048,0,0,1-2.756-10.863c.028-.387.071-.778.117-1.169a16.823,16.823,0,0,0-1.892,6.334,18.122,18.122,0,0,0,11.707,18.105c3.651,1.281,8.04,1.554,10.448,4.583,2.266,2.849,1.777,6.9,1.547,10.537s.326,7.981,3.551,9.67c4.075,2.135,9.071-1.641,13.537-.538,4.409,1.089,6.32,6.338,6.532,10.875s-.487,9.363,1.6,13.4c2.037,3.937,6.43,6.242,10.828,6.792s8.841-.411,13.112-1.6c5.222-1.449,10.429-3.284,14.833-6.441s7.963-7.8,8.823-13.15S447.527,226.851,442.776,224.244Z" transform="translate(-352.383 -160.745)" fill="#92360c"/>
                </g>
                <g id="Group_10800" data-name="Group 10800" transform="translate(75.183 158.143)">
                  <g id="Group_10798" data-name="Group 10798">
                    <path id="Path_6538" data-name="Path 6538" d="M416.2,450.078l-7.751,1.516-3.15-22.125,13.159-1.924Z" transform="translate(-381.323 -284.573)" fill="#ffc9b9"/>
                    <path id="Path_6539" data-name="Path 6539" d="M384.07,302.638l33.458-1.685,2.4,26.765-4.208,47.911,7.469,15.813L421.2,443.925l-13.159,1.924L397.94,385.4Z" transform="translate(-384.07 -300.953)" fill="#263238"/>
                    <path id="Path_6540" data-name="Path 6540" d="M419.478,445.829l3.755,11.38-37.924.563.344-2.521L409.365,444.5l3.2,2.5Z" transform="translate(-383.909 -282.379)" fill="#fff"/>
                  </g>
                  <g id="Group_10799" data-name="Group 10799" transform="translate(19.361 0.514)">
                    <path id="Path_6541" data-name="Path 6541" d="M434.095,449.59l-8.24,1.611-3.725-23.521,13.653-1.188Z" transform="translate(-398.506 -285.223)" fill="#ffc9b9"/>
                    <path id="Path_6542" data-name="Path 6542" d="M433.047,301.434q-15.664,1.262-31.225,3.518l12.3,75.368,10.637,63.545,13.652-1.188,1.687-38.233a49.994,49.994,0,0,0-9.612-32h0l8.282-27.51c1.666-2.822,4.558-19.944,2.676-36.559A7.817,7.817,0,0,0,433.047,301.434Z" transform="translate(-401.133 -301.408)" fill="#37474f"/>
                    <path id="Path_6543" data-name="Path 6543" d="M437.537,445.172l3.992,12.1-40.317.6.366-2.68,25.207-11.433,3.4,2.657Z" transform="translate(-401.212 -282.989)" fill="#fff"/>
                    <path id="Path_6544" data-name="Path 6544" d="M430.077,351.642l-9.345,25.437c-.516,1.4,1.667,1.8,2.177.416q4.672-12.719,9.346-25.437C432.77,350.655,430.587,350.251,430.077,351.642Z" transform="translate(-398.697 -295.02)" fill="#263238"/>
                    <path id="Path_6545" data-name="Path 6545" d="M428.752,368.187a1.254,1.254,0,0,0-1.472.745l-3.242,6.837a1.054,1.054,0,0,0,.635,1.413,1.256,1.256,0,0,0,1.472-.747l3.242-6.837A1.053,1.053,0,0,0,428.752,368.187Z" transform="translate(-398.27 -292.773)" fill="#263238"/>
                  </g>
                </g>
                <path id="Path_6546" data-name="Path 6546" d="M438.118,308.516a61.776,61.776,0,0,1-50.26,11.135c-1.408-.311-2.1,1.843-.671,2.157a64.215,64.215,0,0,0,52.44-11.61C440.784,309.313,439.266,307.638,438.118,308.516Z" transform="translate(-308.585 -141.863)" fill="#cfd8dc"/>
                <path id="Path_6547" data-name="Path 6547" d="M395.466,261.007a16.677,16.677,0,0,0-4.575-6.984,1.159,1.159,0,0,0-1.6-.086,1.142,1.142,0,0,0-.086,1.595,15.889,15.889,0,0,1,1.345,1.358c.209.239.412.486.606.739.1.126.192.254.286.383.042.058.081.116.123.174a.142.142,0,0,0,.011.014l.033.051a16.04,16.04,0,0,1,.936,1.606c.143.283.278.573.4.865.062.147.123.295.182.443.025.065.051.132.076.2l.027.068.02.06a1.158,1.158,0,0,0,1.344.862A1.141,1.141,0,0,0,395.466,261.007Z" transform="translate(-308.259 -148.93)" fill="#cfd8dc"/>
                <g id="Group_10801" data-name="Group 10801" transform="translate(58.372 55.202)">
                  <path id="Path_6548" data-name="Path 6548" d="M386.692,218c3.693.965,14.765-8.293,18.653-8.2s14.095-.507,17.03,9.068c2.488,8.116-2.217,18.209-4.732,26.49-1.329,4.373-2.969,8.728-3.343,13.208-.565,6.887,1.972,13.5,5.779,18.937s20.54,21.058,26.606,42.986C433.2,336.246,404.779,340.957,386,335.571c-1.154-14.853-9.2-56.665-9.49-71.837a2.616,2.616,0,0,0-.927-2.026c-4.916-4.4-7.552-10.811-5.9-17.2C372.312,234.324,376.823,228.9,386.692,218Z" transform="translate(-369.185 -209.805)" fill="#fff"/>
                  <path id="Path_6549" data-name="Path 6549" d="M375.421,258.153a2.617,2.617,0,0,1,.927,2.026,149.409,149.409,0,0,0,1.964,18.719c1.5.424,3.046.8,4.615,1.143,2.27-1.058,4.514-2.181,6.692-3.348a62.828,62.828,0,0,0,11.865-8.205,52.815,52.815,0,0,0,9.292-11.145c1.3-1.99,2.573-3.995,3.924-5.944.689-3.224,1.817-6.4,2.786-9.59l.042-.137a3.43,3.43,0,0,0-5.619-3.477c-10.929,10.014-25.9,15.509-41.5,13.093A19.863,19.863,0,0,0,375.421,258.153Z" transform="translate(-369.027 -206.251)" fill="#cfd8dc" opacity="0.63"/>
                  <path id="Path_6550" data-name="Path 6550" d="M401.542,214.916a10.818,10.818,0,0,1-15.306,5.417.565.565,0,0,0-.532,1,11.944,11.944,0,0,0,16.835-5.882C402.818,214.782,401.823,214.247,401.542,214.916Z" transform="translate(-367.085 -209.184)" fill="#cfd8dc"/>
                </g>
                <g id="Group_10805" data-name="Group 10805" transform="translate(0 70.715)">
                  <g id="Group_10804" data-name="Group 10804" transform="translate(19.887 17.902)">
                    <g id="Group_10803" data-name="Group 10803">
                      <g id="Group_10802" data-name="Group 10802">
                        <path id="Path_6552" data-name="Path 6552" d="M343.918,242.026l-.241-.113-4.967-2.334a1.952,1.952,0,0,0-2.733,1.334c-.248,1.1-.568,2.2-.611,2.514a25.893,25.893,0,0,0,.408,9.5c.4,1.69.776,3.937,2.557,4.712.285.123,3.6,1.477,3.58,1.556l.582-2.039,1.463-5.129Z" transform="translate(-335.109 -239.392)" fill="#ffc9b9"/>
                      </g>
                    </g>
                  </g>
                  <path id="Path_6553" data-name="Path 6553" d="M366.316,253.3l-24.239-3.987-.945,8.6,41.55,13.838,1.3-8.8.971-6.583Z" transform="translate(-314.443 -220.206)" fill="#ffc9b9"/>
                  <path id="Path_6554" data-name="Path 6554" d="M384.93,256.367,366.293,253.3l-24.239-3.987-.747,6.8c13.744,4.055,27.509,10.43,42.033,11.023l.618-4.189Z" transform="translate(-314.42 -220.207)" fill="#ffc9b9"/>
                  <path id="Path_6555" data-name="Path 6555" d="M382.821,269.41c9.7-9.632,19.323-18.389,26.91-30.185-3.432-2.133-6.31-5.377-9.748-7.5l-19.869,26.919-1.59,10.772C379.949,269.473,381.383,269.466,382.821,269.41Z" transform="translate(-309.604 -222.483)" fill="#ffc9b9"/>
                  <path id="Path_6556" data-name="Path 6556" d="M406.043,230.26l-1.221,1.653c3.438,2.123,6.316,5.367,9.748,7.5-7.587,11.8-17.21,20.554-26.91,30.185-1.439.056-2.872.063-4.3.006-14.524-.593-26.441-4.625-40.186-8.678l-2.044-.548,41.55,13.838c13.551,4.513,36.4-35.165,36.4-35.165Z" transform="translate(-314.443 -222.672)" fill="#fda98f"/>
                  <path id="Path_6557" data-name="Path 6557" d="M412.657,238.422l-13.588-9.014a1.138,1.138,0,0,0-1.528.465,1.154,1.154,0,0,0,.465,1.528l13.587,9.014a1.138,1.138,0,0,0,1.528-.464A1.156,1.156,0,0,0,412.657,238.422Z" transform="translate(-307.161 -222.801)" fill="#cfd8dc"/>
                </g>
                <g id="Group_10808" data-name="Group 10808" transform="translate(54.181 17.964)">
                  <g id="Group_10806" data-name="Group 10806">
                    <path id="Path_6558" data-name="Path 6558" d="M374.409,183.071c6.4,3.157,15.342,8.15,22.128,3.621a8.684,8.684,0,0,0,2.733-2.857,3.41,3.41,0,0,1,2.345.67,6.356,6.356,0,0,1,2.2,7.021c-.9,2.622-3.008,3.526-5.757,3.892.515,7.542,2.647,13.217,4.92,20.838-.839,3.889-2.25,6.138-5.345,7.606s-3.84,1.42-7.063.261c-.7-3.807-1.555-8.975-2.856-12.622-2.412,1.609-8.146,3.367-10.747,3.292-.981-.028-11.379-15.975-11.49-37.959A35.173,35.173,0,0,0,374.409,183.071Z" transform="translate(-365.474 -176.834)" fill="#ffc9b9"/>
                    <path id="Path_6559" data-name="Path 6559" d="M380.215,210.195a22.874,22.874,0,0,0,5.589-2.362,76.89,76.89,0,0,1,2.573,11.069l-.3-13.722Z" transform="translate(-363.567 -173.166)" fill="#fda98f"/>
                    <path id="Path_6560" data-name="Path 6560" d="M393.536,186.591a6.625,6.625,0,0,1,2.648-2c.551-.232.836.737.3.978a5.78,5.78,0,0,0-2.3,1.857,6.345,6.345,0,0,0-.743,1.29,2.39,2.39,0,0,1-.574,1.047.352.352,0,0,1-.541-.215C392.068,188.564,392.987,187.286,393.536,186.591Z" transform="translate(-362.005 -175.835)" fill="#fda98f"/>
                  </g>
                  <path id="Path_6561" data-name="Path 6561" d="M378.067,188.849a2.783,2.783,0,0,1-.09-1.29.859.859,0,0,1,1.4-.424,2.769,2.769,0,0,1,.631,1.127,5.925,5.925,0,0,1,.334,1.116,1.018,1.018,0,0,1-1.948.588A5.94,5.94,0,0,1,378.067,188.849Z" transform="translate(-363.863 -175.529)" fill="#472c1f"/>
                  <path id="Path_6562" data-name="Path 6562" d="M368.424,190a2.783,2.783,0,0,1-.047-1.292.858.858,0,0,1,1.416-.376,2.765,2.765,0,0,1,.594,1.146,6,6,0,0,1,.3,1.127,1.018,1.018,0,0,1-1.966.523A5.921,5.921,0,0,1,368.424,190Z" transform="translate(-365.107 -175.377)" fill="#472c1f"/>
                  <g id="Group_10807" data-name="Group 10807" transform="translate(11.393 24.11)">
                    <path id="Path_6563" data-name="Path 6563" d="M375.562,202.451a28.181,28.181,0,0,0,7.553-4.041,13.6,13.6,0,0,1-7.078,4.6A5.761,5.761,0,0,0,375.562,202.451Z" transform="translate(-375.562 -198.153)" fill="#fff"/>
                    <path id="Path_6564" data-name="Path 6564" d="M383.061,198.44c.115-.087.233-.169.346-.257a8.179,8.179,0,0,1-.05,1.618,6.358,6.358,0,0,1-1.376,3.333,6.837,6.837,0,0,1-4.532,2.368c-.3-.54-.584-1.1-.906-1.631a9.545,9.545,0,0,0-.56-.831A13.6,13.6,0,0,0,383.061,198.44Z" transform="translate(-375.508 -198.182)" fill="#b51c1c"/>
                  </g>
                  <path id="Path_6565" data-name="Path 6565" d="M374.97,181.467a11.353,11.353,0,0,1,8.24.726c.622.3.121,1.257-.5.952a10.189,10.189,0,0,0-7.407-.654C374.635,182.683,374.3,181.658,374.97,181.467Z" transform="translate(-364.292 -176.294)" fill="#bf360c"/>
                  <path id="Path_6566" data-name="Path 6566" d="M366.5,185.064a4.551,4.551,0,0,1,2.611-2.285.539.539,0,0,1,.331,1.024,3.457,3.457,0,0,0-1.99,1.763C367.149,186.187,366.2,185.686,366.5,185.064Z" transform="translate(-365.349 -176.069)" fill="#bf360c"/>
                  <path id="Path_6567" data-name="Path 6567" d="M374.669,199.858a5.37,5.37,0,0,0-2.141-.4c-.407-.054-1-.215-1.17-.629-.112-.269.052-.583.151-.832.149-.375.3-.75.449-1.125a21.83,21.83,0,0,0,.824-2.278.483.483,0,0,0-.884-.358,24.026,24.026,0,0,0-1.143,2.524c-.324.776-.837,1.65-.475,2.5a2.346,2.346,0,0,0,1.62,1.242,6.809,6.809,0,0,0,1.212.15,7,7,0,0,1,1.151.212A.55.55,0,0,0,374.669,199.858Z" transform="translate(-364.868 -174.613)" fill="#472c1f"/>
                </g>
              </g>
              <path id="Path_6568" data-name="Path 6568" d="M344.029,241.594a38.689,38.689,0,0,0-13.108-5.67,1.131,1.131,0,0,0-.516,2.2,36.988,36.988,0,0,1,12.561,5.463,1.137,1.137,0,0,0,1.528-.465A1.155,1.155,0,0,0,344.029,241.594Z" transform="translate(-315.939 -151.228)" fill="#ffc9b9"/>
              <path id="Path_6569" data-name="Path 6569" d="M338.49,242.139a14.225,14.225,0,0,0-7.678-3.512,1.158,1.158,0,0,0-1.358.843,1.142,1.142,0,0,0,.841,1.358,13.181,13.181,0,0,1,1.873.363,9.724,9.724,0,0,1,1.687.6,11.648,11.648,0,0,1,3.1,2,1.129,1.129,0,0,0,1.534-1.658Z" transform="translate(-315.956 -150.876)" fill="#ffc9b9"/>
              <path id="Path_6570" data-name="Path 6570" d="M337.646,244.971a14.809,14.809,0,0,0-6.636-3.639,1.13,1.13,0,0,0-.515,2.2c.282.07.561.147.839.234.13.042.26.085.388.13l.193.069h0l.011,0a16.962,16.962,0,0,1,1.577.74q.359.2.706.416c.115.073.23.148.343.225.06.041.12.081.178.123l.047.034a14.487,14.487,0,0,1,1.33,1.121,1.13,1.13,0,1,0,1.535-1.658Z" transform="translate(-315.931 -150.528)" fill="#ffc9b9"/>
              <path id="Path_6571" data-name="Path 6571" d="M338.3,249.609a16.455,16.455,0,0,0-7.078-5,1.133,1.133,0,0,0-1.358.841,1.166,1.166,0,0,0,.841,1.359l.053.018.015.007.193.077q.217.088.43.183c.285.126.566.263.843.408a16.015,16.015,0,0,1,1.643,1l.006,0,.012.011.209.155c.124.095.247.191.368.289q.364.295.708.611c.23.211.453.43.669.655q.163.169.319.343l.139.156c.008.01.226.267.084.095a1.159,1.159,0,0,0,1.56.346A1.141,1.141,0,0,0,338.3,249.609Z" transform="translate(-315.904 -150.106)" fill="#ffc9b9"/>
            </g>
            <g id="Group_10818" data-name="Group 10818" transform="translate(4.246 10.792)">
              <g id="Group_10811" data-name="Group 10811" transform="translate(207.177 90.222)">
                <path id="Path_6572" data-name="Path 6572" d="M296.786,268.167l14.4.932,8.649-6.676h2.375l-5.189-6.038-6.791-1.145-13.447,9.314Z" transform="translate(-296.786 -249.738)" fill="#fda98f"/>
                <path id="Path_6573" data-name="Path 6573" d="M296.786,265.184l4.959-1.135a13.5,13.5,0,0,0,8.135-5.548l1.533-2.244,9.706-1.694a1.322,1.322,0,0,0,1.094-1.3h0a1.321,1.321,0,0,0-1.356-1.32l-11.86-1.5a9.492,9.492,0,0,0-7.873,2.676l-4.338,4.3Z" transform="translate(-296.786 -250.369)" fill="#ffc9b9"/>
              </g>
              <path id="Path_6574" data-name="Path 6574" d="M242.423,442.987h-14.63l-.091-5.3h14.835Z" transform="translate(-98.549 -135.909)" fill="#ffc9b9"/>
              <path id="Path_6575" data-name="Path 6575" d="M268.233,453.429l-25-11.05H227.08l-2.648,13.644H269.7Z" transform="translate(-98.972 -135.302)" fill="#ff7243"/>
              <path id="Path_6576" data-name="Path 6576" d="M224.48,454.461l-.418,2.154h46.9l-1.216-2.154Z" transform="translate(-99.02 -133.739)" fill="#fff"/>
              <path id="Path_6577" data-name="Path 6577" d="M178.119,356.625V297.651l7.793,2.992a9.282,9.282,0,0,1,5.364,11.93h0a8.063,8.063,0,0,0,2.541,9.156l59.355,47.026a10.629,10.629,0,0,1,4.01,8.941l-4.492,78.11H228.707l-2.54-66.972Z" transform="translate(-104.964 -154.029)" fill="#263238"/>
              <path id="Path_6578" data-name="Path 6578" d="M185.766,300.953l.2,20.5L223.689,363.7a16.914,16.914,0,0,1,4.3,11.546h0a22.288,22.288,0,0,1-13.894,20.282l-59.033,23.987-8.12-25.755,49.71-19.1-26.682-10.909A55.131,55.131,0,0,1,135.7,312.721h0Z" transform="translate(-110.453 -153.602)" fill="#37474f"/>
              <path id="Path_6579" data-name="Path 6579" d="M205.913,367.9a61.623,61.623,0,0,1-24.264-7.046,1.13,1.13,0,0,0-1.029,2.011,64.31,64.31,0,0,0,25.419,7.29C207.486,370.261,207.346,368,205.913,367.9Z" transform="translate(-104.717 -145.869)" fill="#263238"/>
              <path id="Path_6580" data-name="Path 6580" d="M196.582,370.766l-5.661-3.474a1.13,1.13,0,0,0-1.2,1.915l5.661,3.473a1.129,1.129,0,1,0,1.2-1.914Z" transform="translate(-103.53 -145.039)" fill="#263238"/>
              <g id="Group_10813" data-name="Group 10813" transform="translate(112.172 75.112)">
                <path id="Path_6581" data-name="Path 6581" d="M217.406,244.88c3.022-5.168,6.067-10.044,11.258-6.895a140.934,140.934,0,0,0,25.088,11.854l-9.486,20.722c-9.516-2.525-20.582-3.978-29.232-9.225C209.867,258.2,214.317,250.16,217.406,244.88Z" transform="translate(-212.666 -236.99)" fill="#20a3d5"/>
                <g id="Group_10812" data-name="Group 10812" transform="translate(31.329 13.729)">
                  <path id="Path_6582" data-name="Path 6582" d="M260.707,254.194l-10.118-4.7a53.154,53.154,0,0,1-10.183,18.467l19.286,6.021,44.39-5.066v-11.38Z" transform="translate(-240.406 -249.102)" fill="#ffc9b9"/>
                  <path id="Path_6583" data-name="Path 6583" d="M257.12,270.106l46.269-4.418v-8.208l-43.374-3.337L250.88,249.9a31.406,31.406,0,0,1-5.123,16.079Z" transform="translate(-239.714 -249.049)" fill="#ffc9b9"/>
                  <path id="Path_6584" data-name="Path 6584" d="M257.8,270.2l-11.363-4.131a31.406,31.406,0,0,0,5.123-16.079l-1.409-.655-.445-.191c-1.553,6.742-4.223,13.431-9.174,18.9l19.148,5.977,44.39-5.066v-3.171Z" transform="translate(-240.39 -249.146)" fill="#fda98f"/>
                </g>
                <path id="Path_6585" data-name="Path 6585" d="M249.459,248.518a67.613,67.613,0,0,1-9.434,19.394c-.837,1.19,1.066,2.408,1.9,1.22a69.633,69.633,0,0,0,9.69-19.943A1.13,1.13,0,0,0,249.459,248.518Z" transform="translate(-209.153 -235.597)" fill="#ff7243"/>
              </g>
              <g id="Group_10814" data-name="Group 10814" transform="translate(22.161 51.595)">
                <path id="Path_6586" data-name="Path 6586" d="M198.328,317.645a57.629,57.629,0,0,1,3.768-13.13c6.754-17.039,16.4-33.58,28.92-47.018A93.656,93.656,0,0,1,244.3,245.679c-12.795-13.173-33.455-24.762-53.665-29.123a17.311,17.311,0,0,0-19.848,10.9L155.41,246.465a100.91,100.91,0,0,0-16.916,96.379h0c25.932-17.641,53.862-19.963,59.817-17.938A23.368,23.368,0,0,1,198.328,317.645Z" transform="translate(-132.968 -216.167)" fill="#20a3d5"/>
                <path id="Path_6587" data-name="Path 6587" d="M174.058,311.661a88.873,88.873,0,0,0-27.02,7.228c-7.763-34.937,11.156-66.534,33.116-92.649,3.136-3.729-2.25-8.732-5.628-5.22a17.307,17.307,0,0,0-3.744,5.96L155.41,245.992a100.91,100.91,0,0,0-16.916,96.379h0c2.3-1.566,4.623-3.008,6.94-4.34a25.968,25.968,0,0,1,2.732-7.847c4.842-10.49,16.024-12.332,26.546-15A1.8,1.8,0,0,0,174.058,311.661Z" transform="translate(-132.968 -215.694)" fill="#ff7243"/>
                <path id="Path_6588" data-name="Path 6588" d="M189.575,305.6a48.732,48.732,0,0,0-20.626,3.479c-1.346.539-.256,2.52,1.081,1.984a46.1,46.1,0,0,1,19.476-3.205A1.13,1.13,0,0,0,189.575,305.6Z" transform="translate(-128.392 -204.603)" fill="#ff7243"/>
                <path id="Path_6589" data-name="Path 6589" d="M217.509,258.016a111.578,111.578,0,0,0-28.544,60.438c-.2,1.439,2.057,1.526,2.258.095a110.04,110.04,0,0,1,18.618-47.4,108.017,108.017,0,0,1,9.177-11.449C219.995,258.635,218.492,256.946,217.509,258.016Z" transform="translate(-125.724 -210.797)" fill="#ff7243"/>
              </g>
              <g id="Group_10816" data-name="Group 10816" transform="translate(0 51.438)">
                <path id="Path_6590" data-name="Path 6590" d="M151.493,287.682s7.484,3.336,12.506,6.052c1.564,5.617-2.591,10.938-7.22,13.337a12.079,12.079,0,0,1-17.621-11.328Z" transform="translate(-110.008 -206.757)" fill="#ffc9b9"/>
                <path id="Path_6591" data-name="Path 6591" d="M171.608,308.214a21.587,21.587,0,0,0-10.741-15.434c-2.343-1.334-4.469,2.27-2.126,3.6a17.651,17.651,0,0,1,8.827,12.928C167.981,311.962,172.018,310.854,171.608,308.214Z" transform="translate(-107.603 -206.135)" fill="#ffc9b9"/>
                <path id="Path_6592" data-name="Path 6592" d="M167.385,311.04A21.588,21.588,0,0,0,156.645,295.6c-2.343-1.333-4.469,2.271-2.127,3.6a17.648,17.648,0,0,1,8.827,12.927C163.759,314.788,167.8,313.679,167.385,311.04Z" transform="translate(-108.15 -205.77)" fill="#ffc9b9"/>
                <path id="Path_6593" data-name="Path 6593" d="M162.029,312.536A21.587,21.587,0,0,0,151.288,297.1c-2.342-1.333-4.468,2.27-2.126,3.6a17.649,17.649,0,0,1,8.827,12.927C158.4,316.284,162.439,315.175,162.029,312.536Z" transform="translate(-108.843 -205.576)" fill="#ffc9b9"/>
                <path id="Path_6594" data-name="Path 6594" d="M156.452,312.513a21.586,21.586,0,0,0-10.741-15.435c-2.342-1.333-4.468,2.271-2.126,3.6a17.651,17.651,0,0,1,8.827,12.927C152.825,316.261,156.862,315.152,156.452,312.513Z" transform="translate(-109.564 -205.579)" fill="#ffc9b9"/>
                <g id="Group_10815" data-name="Group 10815" transform="translate(0 2.045)">
                  <path id="Path_6595" data-name="Path 6595" d="M154.831,296.719,139.572,253l43.8-15.594-9.2-19.571-56.605,18.632a6.133,6.133,0,0,0-3.617,8.466l28.55,59.844Z" transform="translate(-113.346 -217.839)" fill="#ffc9b9"/>
                  <path id="Path_6596" data-name="Path 6596" d="M181.066,237.41l-9.2-19.571-15.834,5.212c-.457,6.237-.663,12.412,1.082,18.1-7.944,4.4-17.455,7.742-25.964,10.194a34.506,34.506,0,0,1,8.379,8.132L137.268,253Z" transform="translate(-111.042 -217.839)" fill="#fda98f"/>
                  <path id="Path_6597" data-name="Path 6597" d="M133.453,250.75c8.509-2.452,18.02-5.79,25.964-10.194-1.745-5.69-1.539-11.865-1.082-18.1l-40.771,13.419a6.133,6.133,0,0,0-3.617,8.466l28.55,59.844,12.335-8.062-13-37.241A34.506,34.506,0,0,0,133.453,250.75Z" transform="translate(-113.346 -217.242)" fill="#ffc9b9"/>
                </g>
                <path id="Path_6598" data-name="Path 6598" d="M148.577,248.874a173.487,173.487,0,0,1,30.38-8.568c5.986-1.172,10.951-7.091,9.531-13.662-1.337-6.185,3.467-9.961-3.052-10.459-16.511-1.26-33.133,5.393-43.945,9.417A58.517,58.517,0,0,0,148.577,248.874Z" transform="translate(-109.704 -216.029)" fill="#ff7243"/>
                <path id="Path_6599" data-name="Path 6599" d="M141.131,225.044a56.048,56.048,0,0,0,7.417,22.722c.738,1.257,2.637.036,1.9-1.217a53.407,53.407,0,0,1-7.064-21.623C143.241,223.486,140.983,223.593,141.131,225.044Z" transform="translate(-109.751 -215.01)" fill="#d50000"/>
              </g>
              <g id="Group_10817" data-name="Group 10817" transform="translate(85.178)">
                <path id="Path_6600" data-name="Path 6600" d="M228.573,200.748a10.821,10.821,0,0,0,6.1-10.815c-.436-4.305-3.315-8.2-7.1-10.736a30.222,30.222,0,0,0-13.046-4.423,32.653,32.653,0,0,0-11.742.421c-1.935.471-3.942,1.288-4.929,2.9s-.317,4.122,1.634,4.53a4.036,4.036,0,0,0-4.114,1.958,3.452,3.452,0,0,0,.931,4.19,4.72,4.72,0,0,0-4.6,2.456,4.069,4.069,0,0,0,1.108,4.8,3.974,3.974,0,0,0-2.281,4.734c.431,1.845,1.747,3.387,2.945,4.916a55.707,55.707,0,0,1,7.419,12.535,30.4,30.4,0,0,0,7.763-4.105" transform="translate(-188.551 -169.972)" fill="#3f2500"/>
                <path id="Path_6601" data-name="Path 6601" d="M229.977,188.55a23.669,23.669,0,0,0-7.363-.019c-2.1.248-8.538,1.635-8.538,1.635-1.531,4.476-2.281,7.449-5.891,10.507a2.025,2.025,0,0,1-1.175.6,6.8,6.8,0,0,1-1.836-.616c-.811-.242-1.6-.538-2.39-.841-2.473-.957-5.162-2.3-7.582-.5a5.556,5.556,0,0,0-1.409,6.785,6.954,6.954,0,0,0,6.2,3.563c1,7.128.8,9.75-.278,16.865,1.241,3.38,4.432,7.6,7.391,8.524a11.945,11.945,0,0,0,9.048-.491,64.973,64.973,0,0,1,1.195-10.35,21.874,21.874,0,0,0,7.141.115,3.968,3.968,0,0,0,2.4-1.062,4.348,4.348,0,0,0,.794-1.828A95.757,95.757,0,0,0,229.977,188.55Z" transform="translate(-188.19 -168.185)" fill="#ffc9b9"/>
                <path id="Path_6602" data-name="Path 6602" d="M213.8,230.685a64.973,64.973,0,0,1,1.195-10.35,24.936,24.936,0,0,0,4,.352c-3.025-.55-5.124-1.711-7.592-2.415C211.818,222.813,213.144,231.031,213.8,230.685Z" transform="translate(-185.835 -164.3)" fill="#fda98f"/>
                <path id="Path_6603" data-name="Path 6603" d="M199.127,201.154a5.99,5.99,0,0,0-2.626-1.463c-.523-.138-.656.766-.142.913a5.238,5.238,0,0,1,2.292,1.376,5.791,5.791,0,0,1,.828,1.063c.217.355.307.654.646.867a.318.318,0,0,0,.457-.26C200.69,202.738,199.707,201.709,199.127,201.154Z" transform="translate(-187.824 -166.706)" fill="#fda98f"/>
                <path id="Path_6604" data-name="Path 6604" d="M215.465,198.117a2.516,2.516,0,0,0-.081-1.168.777.777,0,0,0-1.31-.2,2.5,2.5,0,0,0-.425,1.089,5.408,5.408,0,0,0-.159,1.042.921.921,0,0,0,1.819.282A5.341,5.341,0,0,0,215.465,198.117Z" transform="translate(-185.565 -167.121)" fill="#472c1f"/>
                <path id="Path_6605" data-name="Path 6605" d="M225.45,197.264a2.491,2.491,0,0,0-.373-1.109.777.777,0,0,0-1.319.134,2.506,2.506,0,0,0-.136,1.161,5.38,5.38,0,0,0,.108,1.049.921.921,0,0,0,1.832-.186A5.281,5.281,0,0,0,225.45,197.264Z" transform="translate(-184.255 -167.202)" fill="#472c1f"/>
                <path id="Path_6606" data-name="Path 6606" d="M214.291,213.856a10.79,10.79,0,0,1,5.387,1.99c.427.3-.087.934-.514.631a9.958,9.958,0,0,0-5-1.816C213.643,214.616,213.771,213.812,214.291,213.856Z" transform="translate(-185.521 -164.872)" fill="#fda98f"/>
                <path id="Path_6607" data-name="Path 6607" d="M222.728,190.58c1.4-.917,3.936.477,4.643,1.783a.729.729,0,0,1-.787.984c-.677-.2-1.262-.586-1.927-.82-.64-.226-1.455-.229-1.96-.71A.791.791,0,0,1,222.728,190.58Z" transform="translate(-184.41 -167.922)" fill="#3f2500"/>
                <path id="Path_6608" data-name="Path 6608" d="M211.93,192.093c1.347-1.611,4.347-2.05,6.323-1.911.941.067.826,1.455-.03,1.595a20.633,20.633,0,0,0-3.058.617,13.376,13.376,0,0,1-2.627.806A.689.689,0,0,1,211.93,192.093Z" transform="translate(-185.787 -167.938)" fill="#3f2500"/>
                <path id="Path_6609" data-name="Path 6609" d="M212.831,205.752a35.306,35.306,0,0,0,10.566,3.965,9.491,9.491,0,0,0-1.045,1.908,23,23,0,0,1-9.177-3.869A10.263,10.263,0,0,1,212.831,205.752Z" transform="translate(-185.65 -165.92)" fill="#f3f3f3"/>
                <path id="Path_6610" data-name="Path 6610" d="M222.312,211.4c-.307.719-.567,1.464-.841,2.185a8.573,8.573,0,0,1-6.045-2.154,7.974,7.974,0,0,1-2.292-3.9A23,23,0,0,0,222.312,211.4Z" transform="translate(-185.611 -165.691)" fill="#b51c1c"/>
                <path id="Path_6611" data-name="Path 6611" d="M199.267,221.583a11.381,11.381,0,0,0,16,8.651c1.2-.5,1.72,1.451.538,1.949a13.322,13.322,0,0,1-18.488-10.064C197.094,220.848,199.042,220.3,199.267,221.583Z" transform="translate(-187.66 -163.966)" fill="#ff7243"/>
                <path id="Path_6612" data-name="Path 6612" d="M235.636,172.614c-2.744,1.457-5.466,2.97-8.143,4.563-.147-.136-.294-.271-.44-.418a22.6,22.6,0,0,0-36.6,7.838c-2.473,6.133-2.383,14,1.344,19.335-.136.113-.26.237-.4.361a1.131,1.131,0,0,0,1.547,1.649A198.126,198.126,0,0,1,214.1,188.561q7.3-5.218,15.044-9.735c2.5-1.468,5.014-2.869,7.578-4.224A1.133,1.133,0,0,0,235.636,172.614Z" transform="translate(-188.765 -170.484)" fill="#ff7243"/>
                <path id="Path_6613" data-name="Path 6613" d="M224.4,207.031l-2.778-9.914c-.2-.7-1.3-.461-1.1.241q1.311,4.681,2.624,9.362l-2.467.5a.565.565,0,0,0,.241,1.1l3.053-.622A.571.571,0,0,0,224.4,207.031Z" transform="translate(-184.691 -167.092)" fill="#472c1f"/>
                <path id="Path_6614" data-name="Path 6614" d="M223.376,176.238l-31.1,23.9c-1.154.887.363,2.561,1.509,1.682l31.1-23.9C226.04,177.032,224.522,175.358,223.376,176.238Z" transform="translate(-188.363 -169.771)" fill="#233b4b"/>
              </g>
            </g>
            <g id="Group_10820" data-name="Group 10820" transform="translate(192.223 108.969)">
              <path id="Path_6615" data-name="Path 6615" d="M279.786,274.458H369.04l-3.1,53.368H282.883Z" transform="translate(-279.786 -255.207)" fill="#ff7243"/>
              <path id="Path_6616" data-name="Path 6616" d="M365.942,321.712l3.1,15.35H279.786l3.1-15.35Z" transform="translate(-279.786 -249.093)" fill="#e55c2f"/>
              <g id="Group_10819" data-name="Group 10819" transform="translate(29.918)">
                <path id="Path_6617" data-name="Path 6617" d="M333.629,283.952V272.493A12.891,12.891,0,0,0,322.2,259.535a12.657,12.657,0,0,0-13.862,12.586v11.83a1.032,1.032,0,0,1-1.032,1.032h0a1.033,1.033,0,0,1-1.033-1.032v-11.4a14.99,14.99,0,0,1,13.968-15.116,14.724,14.724,0,0,1,15.449,14.69v11.83a1.032,1.032,0,0,1-1.032,1.032h0A1.032,1.032,0,0,1,333.629,283.952Z" transform="translate(-306.276 -257.413)" fill="#263238"/>
              </g>
            </g>
            <g id="Group_10821" data-name="Group 10821" transform="translate(242.351 109.492)">
              <path id="Path_6618" data-name="Path 6618" d="M324.377,262.894h0a1.2,1.2,0,0,1,.323-1.665l4.662-3.148a1.2,1.2,0,0,1,1.665.323h0a1.2,1.2,0,0,1-.323,1.665l-4.661,3.148A1.2,1.2,0,0,1,324.377,262.894Z" transform="translate(-324.171 -257.876)" fill="#ffc9b9"/>
              <path id="Path_6619" data-name="Path 6619" d="M325.717,264.8h0a1.2,1.2,0,0,1,.322-1.665l4.662-3.148a1.2,1.2,0,0,1,1.666.323h0a1.2,1.2,0,0,1-.323,1.665l-4.662,3.148A1.2,1.2,0,0,1,325.717,264.8Z" transform="translate(-323.998 -257.628)" fill="#ffc9b9"/>
              <path id="Path_6620" data-name="Path 6620" d="M327.5,266.9h0a1.2,1.2,0,0,1,.323-1.666l4.662-3.148a1.2,1.2,0,0,1,1.665.323h0a1.2,1.2,0,0,1-.323,1.666l-4.661,3.148A1.2,1.2,0,0,1,327.5,266.9Z" transform="translate(-323.767 -257.357)" fill="#ffc9b9"/>
              <path id="Path_6621" data-name="Path 6621" d="M328.832,268.638h0a1.2,1.2,0,0,1,.323-1.666l4.059-2.74a1.2,1.2,0,0,1,1.665.323h0a1.2,1.2,0,0,1-.323,1.665l-4.058,2.741A1.2,1.2,0,0,1,328.832,268.638Z" transform="translate(-323.595 -257.08)" fill="#ffc9b9"/>
            </g>
            <g id="Group_10822" data-name="Group 10822" transform="translate(0 123.144)">
              <path id="Path_6622" data-name="Path 6622" d="M163.222,428.947q-10.4-32.088-20.8-64.176c-.89-2.746-5.29-1.707-4.391,1.068q10.4,32.088,20.8,64.176C159.722,432.761,164.122,431.723,163.222,428.947Z" transform="translate(-105.921 -257.905)" fill="#20a3d5"/>
              <path id="Path_6623" data-name="Path 6623" d="M140.052,355.709l-2.906-8.064a2.457,2.457,0,0,0-1-1.381,2.259,2.259,0,0,0-3.394,2.449q1.452,4.034,2.9,8.065a2.468,2.468,0,0,0,1,1.381,2.309,2.309,0,0,0,1.732.28A2.284,2.284,0,0,0,140.052,355.709Z" transform="translate(-106.601 -260.136)" fill="#20a3d5"/>
              <path id="Path_6624" data-name="Path 6624" d="M122.221,298.671q-4.069-13.539-8.137-27.081c-.832-2.77-5.231-1.727-4.391,1.068q4.069,13.541,8.137,27.081C118.662,302.51,123.061,301.466,122.221,298.671Z" transform="translate(-109.586 -269.964)" fill="#20a3d5"/>
            </g>
            <g id="Group_10823" data-name="Group 10823" transform="translate(221.044 105.221)">
              <path id="Path_6625" data-name="Path 6625" d="M321.616,262.754h0a1.635,1.635,0,0,0,.161-2.307l-5.03-5.79a1.636,1.636,0,0,0-2.307-.161h0a1.636,1.636,0,0,0-.163,2.307l5.031,5.79A1.636,1.636,0,0,0,321.616,262.754Z" transform="translate(-304.196 -254.094)" fill="#ffc9b9"/>
              <path id="Path_6626" data-name="Path 6626" d="M317.94,264.635h0a1.636,1.636,0,0,0,.163-2.307l-5.031-5.789a1.636,1.636,0,0,0-2.307-.163h0a1.635,1.635,0,0,0-.162,2.307l5.03,5.79A1.635,1.635,0,0,0,317.94,264.635Z" transform="translate(-304.672 -253.85)" fill="#ffc9b9"/>
              <path id="Path_6627" data-name="Path 6627" d="M314.848,266.765h0a1.635,1.635,0,0,0,.161-2.307l-5.03-5.789a1.636,1.636,0,0,0-2.307-.163h0a1.637,1.637,0,0,0-.163,2.309l5.031,5.789A1.635,1.635,0,0,0,314.848,266.765Z" transform="translate(-305.072 -253.575)" fill="#ffc9b9"/>
              <path id="Path_6628" data-name="Path 6628" d="M312.394,268.561h0a1.637,1.637,0,0,0,.161-2.307l-4.381-5.042a1.635,1.635,0,0,0-2.307-.162h0a1.637,1.637,0,0,0-.162,2.307l4.38,5.04A1.637,1.637,0,0,0,312.394,268.561Z" transform="translate(-305.305 -253.246)" fill="#ffc9b9"/>
            </g>
          </g>
        </g>
      </g>
    </g>
    <g id="Group_10897" data-name="Group 10897" transform="matrix(0.995, -0.105, 0.105, 0.995, 391.627, -182.353)">
      <g id="Group_1" data-name="Group 1" transform="translate(300 415.682)">
        <path id="Path_157" data-name="Path 157" d="M300,428.723h2.623a.979.979,0,0,0,1.088.98c.533,0,1.041-.283,1.041-.788,0-.579-.718-.747-1.6-.96-1.334-.332-3.037-.74-3.037-2.842,0-1.818,1.335-2.859,3.512-2.859,2.213,0,3.482,1.136,3.482,3.014h-2.55a.852.852,0,0,0-.962-.857c-.453,0-.888.2-.888.627,0,.524.7.7,1.565.916,1.359.351,3.135.8,3.135,2.912,0,2.016-1.549,3.062-3.692,3.062C301.46,431.929,300,430.735,300,428.723Z" transform="translate(-300 -422.255)" fill="#233b4b"/>
        <path id="Path_158" data-name="Path 158" d="M414.476,427.415V431.7h-2.453v-4c0-.821-.288-1.24-.928-1.24-.742,0-1.2.527-1.2,1.441v3.8h-2.453v-9.448h2.453v2.8a3.037,3.037,0,0,1,1.9-.679C413.425,424.372,414.476,425.57,414.476,427.415Z" transform="translate(-398.815 -422.255)" fill="#233b4b"/>
        <path id="Path_159" data-name="Path 159" d="M609.525,452.147a3.628,3.628,0,0,1-3.734,3.8,3.33,3.33,0,0,1-1.736-.473v3.261h-2.425v-10.15H603.3l.307.566a3.3,3.3,0,0,1,2.185-.8A3.621,3.621,0,0,1,609.525,452.147Zm-2.468,0a1.594,1.594,0,1,0-1.594,1.629A1.567,1.567,0,0,0,607.057,452.146Z" transform="translate(-577.425 -446.259)" fill="#233b4b"/>
      </g>
      <g id="Group_3" data-name="Group 3" transform="translate(316.108 415.108)">
        <g id="Group_2" data-name="Group 2" transform="translate(0 0)">
          <path id="Path_160" data-name="Path 160" d="M512.68,460.293v6.4h-2.464v-6.4a2.066,2.066,0,0,0,2.464,0Z" transform="translate(-509.455 -456.667)" fill="#20a3d5"/>
          <circle id="Ellipse_10" data-name="Ellipse 10" cx="1.42" cy="1.42" r="1.42" transform="translate(0 1.751) rotate(-38.045)" fill="#20a3d5"/>
        </g>
      </g>
      <g id="Group_5" data-name="Group 5" transform="translate(319.785 415.111)">
        <g id="Group_4" data-name="Group 4" transform="translate(0 0)">
          <path id="Path_161" data-name="Path 161" d="M558.466,460.293v6.4H556v-6.4a2.066,2.066,0,0,0,2.464,0Z" transform="translate(-555.243 -456.67)" fill="#20a3d5"/>
          <circle id="Ellipse_11" data-name="Ellipse 11" cx="1.42" cy="1.42" r="1.42" transform="matrix(0.794, -0.608, 0.608, 0.794, 0, 1.726)" fill="#20a3d5"/>
        </g>
      </g>
    </g>
    <g id="Group_10898" data-name="Group 10898" transform="translate(665.91 -63.788)">
      <g id="Group_1-2" data-name="Group 1" transform="translate(300 415.791)">
        <path id="Path_157-2" data-name="Path 157" d="M300,429.955h3.123a1.166,1.166,0,0,0,1.3,1.167c.634,0,1.24-.337,1.24-.938,0-.689-.855-.889-1.9-1.143-1.588-.395-3.616-.881-3.616-3.383,0-2.164,1.59-3.4,4.181-3.4,2.634,0,4.145,1.352,4.145,3.588h-3.036a1.014,1.014,0,0,0-1.145-1.021c-.539,0-1.058.234-1.058.747,0,.624.828.831,1.863,1.091,1.617.417,3.732.958,3.732,3.467,0,2.4-1.844,3.646-4.4,3.646C301.738,433.772,300,432.35,300,429.955Z" transform="translate(-300 -422.255)" fill="#fff"/>
        <path id="Path_158-2" data-name="Path 158" d="M415.816,428.4v5.1H412.9v-4.765c0-.978-.343-1.476-1.105-1.476-.883,0-1.434.627-1.434,1.715V433.5h-2.92V422.255h2.92v3.329a3.616,3.616,0,0,1,2.263-.809C414.566,424.776,415.816,426.2,415.816,428.4Z" transform="translate(-397.173 -422.255)" fill="#fff"/>
        <path id="Path_159-2" data-name="Path 159" d="M611.029,452.869a4.319,4.319,0,0,1-4.445,4.525,3.962,3.962,0,0,1-2.066-.563v3.883h-2.887V448.631h1.986l.366.673a3.928,3.928,0,0,1,2.6-.951A4.311,4.311,0,0,1,611.029,452.869Zm-2.938,0a1.9,1.9,0,1,0-1.9,1.94A1.866,1.866,0,0,0,608.091,452.869Z" transform="translate(-572.814 -445.86)" fill="#fff"/>
      </g>
      <g id="Group_3-2" data-name="Group 3" transform="translate(319.177 415.108)">
        <g id="Group_2-2" data-name="Group 2" transform="translate(0 0)">
          <path id="Path_160-2" data-name="Path 160" d="M513.15,460.293v7.614h-2.934v-7.614a2.459,2.459,0,0,0,2.934,0Z" transform="translate(-509.31 -455.976)" fill="#233b4b"/>
          <circle id="Ellipse_10-2" data-name="Ellipse 10" cx="1.691" cy="1.691" r="1.691" transform="translate(0 2.084) rotate(-38.045)" fill="#233b4b"/>
        </g>
      </g>
      <g id="Group_5-2" data-name="Group 5" transform="translate(323.554 415.111)">
        <g id="Group_4-2" data-name="Group 4" transform="translate(0 0)">
          <path id="Path_161-2" data-name="Path 161" d="M558.936,460.293v7.614H556v-7.614a2.459,2.459,0,0,0,2.934,0Z" transform="translate(-555.099 -455.98)" fill="#233b4b"/>
          <circle id="Ellipse_11-2" data-name="Ellipse 11" cx="1.691" cy="1.691" r="1.691" transform="matrix(0.794, -0.608, 0.608, 0.794, 0, 2.055)" fill="#233b4b"/>
        </g>
      </g>
    </g>
  </g>
</svg>
