<svg xmlns="http://www.w3.org/2000/svg" width="660.711" height="164.48" viewBox="0 0 660.711 164.48">
  <g id="Group_359" data-name="Group 359" transform="translate(-5526.001 -1674.486)">
    <path id="Path_1704" data-name="Path 1704" d="M868.413,419.135c.56,10.4-8.567,19.757-19.881,19.213a19.1,19.1,0,0,1-18.405-19.292c.086-10.691,8.234-19.133,19.579-19.1C859.868,399.988,868.866,408.483,868.413,419.135Z" transform="translate(4974.868 1274.529)" fill="#ff7243"/>
    <path id="Path_1705" data-name="Path 1705" d="M868.413,419.135c.56,10.4-8.567,19.757-19.881,19.213a19.1,19.1,0,0,1-18.405-19.292c.086-10.691,8.234-19.133,19.579-19.1C859.868,399.988,868.866,408.483,868.413,419.135Z" transform="translate(4974.868 1338.226)" fill="#ff7243"/>
    <path id="Path_1706" data-name="Path 1706" d="M860.774,750.013c8.128.008,13.228,6.062,13.107,13.1-.131,7.631-5.277,12.805-13.12,12.878a12.992,12.992,0,0,1,.012-25.982Z" transform="translate(4964.132 1062.97)" fill="#20a3d5"/>
    <path id="Path_1707" data-name="Path 1707" d="M1021.448,750.015a12.769,12.769,0,0,1,12.762,13.168A12.605,12.605,0,0,1,1021.241,776c-7.685-.069-12.924-5.314-13-13A12.667,12.667,0,0,1,1021.448,750.015Z" transform="translate(4867.224 1062.968)" fill="#20a3d5"/>
    <path id="Path_1708" data-name="Path 1708" d="M1189.571,595.821c.412,7.627-5.795,13-12.832,13.026a12.866,12.866,0,0,1-12.922-13.532,13.009,13.009,0,0,1,13.478-12.521C1183.083,582.907,1190.287,588.391,1189.571,595.821Z" transform="translate(4773.2 1164.031)" fill="#20a3d5"/>
    <path id="Path_1709" data-name="Path 1709" d="M1019.241,441.536c-7.344.453-13.036-5.669-13.013-12.843a13.025,13.025,0,0,1,26.049.179C1032.263,435.951,1025.8,442.323,1019.241,441.536Z" transform="translate(4868.438 1264.967)" fill="#20a3d5"/>
    <path id="Path_1710" data-name="Path 1710" d="M1019.241,441.536c-7.344.453-13.036-5.669-13.013-12.843a13.025,13.025,0,0,1,26.049.179C1032.263,435.951,1025.8,442.323,1019.241,441.536Z" transform="translate(4868.438 1328.665)" fill="#20a3d5"/>
    <path id="Path_1711" data-name="Path 1711" d="M1189.491,428.613c.929,6.4-5.913,13.418-13.445,13.034-6.1-.311-12.724-6.3-12.349-13.524a13.337,13.337,0,0,1,13.417-12.435C1183.4,415.791,1190.2,421.792,1189.491,428.613Z" transform="translate(4773.28 1265.022)" fill="#20a3d5"/>
    <path id="Path_1712" data-name="Path 1712" d="M1198.012,769.608c.149,5.825-4.038,8.7-8.526,8.6-4.747-.112-8.3-2.858-8.429-8.776a8.388,8.388,0,0,1,8.577-8.465C1194.335,760.9,1198.652,765.434,1198.012,769.608Z" transform="translate(4762.781 1056.349)" fill="#20a3d5"/>
    <path id="Path_1713" data-name="Path 1713" d="M704.1,610.871c-4.307.523-8.486-3.677-8.5-8.665-.011-3.944,4.411-8.587,8.62-8.373a8.557,8.557,0,0,1,8.543,8.582C712.88,606.42,709.284,611.529,704.1,610.871Z" transform="translate(5056.171 1157.361)" fill="#20a3d5"/>
    <path id="Path_1714" data-name="Path 1714" d="M704.184,443.88c-4.433.541-8.541-3.76-8.534-8.6a8.733,8.733,0,0,1,8.628-8.416,8.57,8.57,0,0,1,8.537,8.581C713.017,439.572,708.543,444.569,704.184,443.88Z" transform="translate(5056.141 1258.27)" fill="#20a3d5"/>
    <path id="Path_1715" data-name="Path 1715" d="M411.406,779.094c-3.962,0-6.456-2.481-6.445-6.4.01-3.711,2.713-6.689,6.255-6.585,4.024.118,6.644,2.686,6.733,6.561C418.036,776.489,415.259,779.1,411.406,779.094Z" transform="translate(5231.822 1053.243)" fill="#20a3d5"/>
    <path id="Path_1716" data-name="Path 1716" d="M1495.076,438.436a6.283,6.283,0,0,1-6.463,6.566c-4.559.095-6.468-3.652-6.534-6.552a6.535,6.535,0,0,1,6.648-6.483A6.211,6.211,0,0,1,1495.076,438.436Z" transform="translate(4580.854 1255.183)" fill="#20a3d5"/>
    <path id="Path_1717" data-name="Path 1717" d="M1344.048,605.832a6.253,6.253,0,0,1-6.384,6.237,6.327,6.327,0,0,1-6.628-6.62,6.544,6.544,0,0,1,6.525-6.4C1340.451,599.151,1344.3,601.035,1344.048,605.832Z" transform="translate(4672.138 1154.205)" fill="#20a3d5"/>
    <path id="Path_1718" data-name="Path 1718" d="M1344.035,438.793c-.012,3.589-2.822,6.218-6.62,6.194a6.386,6.386,0,0,1-6.4-6.492,6.625,6.625,0,0,1,6.818-6.529C1341.5,432.008,1344.048,434.815,1344.035,438.793Z" transform="translate(4672.15 1255.184)" fill="#20a3d5"/>
    <path id="Path_1719" data-name="Path 1719" d="M1488.7,612.05a6.337,6.337,0,0,1-6.646-6.6,6.532,6.532,0,0,1,6.537-6.4c2.944.113,6.666,2.015,6.5,6.807A6.238,6.238,0,0,1,1488.7,612.05Z" transform="translate(4580.871 1154.204)" fill="#20a3d5"/>
    <path id="Path_1720" data-name="Path 1720" d="M713.234,779.164c-3.095.536-6.593-3.228-6.458-6.375.17-3.974,3.021-6.608,6.345-6.568,3.982.047,6.574,2.32,6.755,6.751C720.012,776.313,716.381,779.788,713.234,779.164Z" transform="translate(5049.419 1053.173)" fill="#20a3d5"/>
    <path id="Path_1721" data-name="Path 1721" d="M562.334,779.148a6.146,6.146,0,0,1-6.412-6.322,6.271,6.271,0,0,1,6.246-6.631c3.973-.059,6.656,2.669,6.8,6.739C569.087,776.307,565.448,779.772,562.334,779.148Z" transform="translate(5140.588 1053.189)" fill="#20a3d5"/>
    <path id="Path_1722" data-name="Path 1722" d="M544.968,438.459c0-3.724,2.7-6.591,6.338-6.422,4.455.207,6.533,2.826,6.569,6.648.031,3.3-2.154,6.392-6.631,6.349C547.374,445,544.965,442.5,544.968,438.459Z" transform="translate(5147.207 1255.145)" fill="#20a3d5"/>
    <path id="Path_1723" data-name="Path 1723" d="M551.249,612.027c-3.982,0-6.287-2.4-6.281-6.538a6.222,6.222,0,0,1,6.556-6.476,6.561,6.561,0,0,1,6.373,6.622A6.147,6.147,0,0,1,551.249,612.027Z" transform="translate(5147.207 1154.227)" fill="#20a3d5"/>
    <path id="Path_1724" data-name="Path 1724" d="M1355.208,772.779c.616,3.486-3.226,6.453-6.506,6.4a6.281,6.281,0,0,1-6.4-6.469c.127-3.913,2.521-6.412,6.543-6.616C1352.427,765.91,1355.208,768.949,1355.208,772.779Z" transform="translate(4665.33 1053.256)" fill="#20a3d5"/>
    <path id="Path_1725" data-name="Path 1725" d="M1777.367,604.995a4.241,4.241,0,0,1,4.337,4.3,4.569,4.569,0,0,1-4.606,4.331,4.352,4.352,0,0,1-4.058-4.438A4.035,4.035,0,0,1,1777.367,604.995Z" transform="translate(4405.007 1150.611)" fill="#20a3d5"/>
    <path id="Path_1726" data-name="Path 1726" d="M269.237,772.023a4.24,4.24,0,0,1,4.382,4.241,4.612,4.612,0,0,1-4.517,4.423,4.4,4.4,0,0,1-4.147-4.537A4.194,4.194,0,0,1,269.237,772.023Z" transform="translate(5316.437 1049.666)" fill="#20a3d5"/>
    <path id="Path_1727" data-name="Path 1727" d="M1777.4,772.023a4.253,4.253,0,0,1,4.3,4.319,4.6,4.6,0,0,1-4.6,4.344,4.422,4.422,0,0,1-4.069-4.614A4.2,4.2,0,0,1,1777.4,772.023Z" transform="translate(4405.008 1049.666)" fill="#20a3d5"/>
    <path id="Path_1728" data-name="Path 1728" d="M129.251,772.023a4.2,4.2,0,0,1,4.366,4.038,4.375,4.375,0,0,1-4.269,4.617,4.637,4.637,0,0,1-4.4-4.335A4.253,4.253,0,0,1,129.251,772.023Z" transform="translate(5401.049 1049.666)" fill="#20a3d5"/>
    <path id="Path_1729" data-name="Path 1729" d="M1637.329,772.023a4.2,4.2,0,0,1,4.373,4.031,4.377,4.377,0,0,1-4.262,4.623,4.589,4.589,0,0,1-4.4-4.328A4.253,4.253,0,0,1,1637.329,772.023Z" transform="translate(4489.62 1049.666)" fill="#20a3d5"/>
    <path id="Path_1730" data-name="Path 1730" d="M1641.705,609.175a4.377,4.377,0,0,1-4.424,4.474,4.66,4.66,0,0,1-4.239-4.519,4.277,4.277,0,0,1,4.492-4.136A4.092,4.092,0,0,1,1641.705,609.175Z" transform="translate(4489.616 1150.612)" fill="#20a3d5"/>
    <path id="Path_1731" data-name="Path 1731" d="M133.618,609.036a4.375,4.375,0,0,1-4.285,4.613,4.612,4.612,0,0,1-4.375-4.38,4.271,4.271,0,0,1,4.154-4.275A4.106,4.106,0,0,1,133.618,609.036Z" transform="translate(5401.048 1150.613)" fill="#20a3d5"/>
    <path id="Path_1732" data-name="Path 1732" d="M269.335,604.995a4.253,4.253,0,0,1,4.285,4.337,4.334,4.334,0,1,1-8.665-.177A4.082,4.082,0,0,1,269.335,604.995Z" transform="translate(5316.437 1150.611)" fill="#20a3d5"/>
    <path id="Path_1733" data-name="Path 1733" d="M1501.735,776.284a4.265,4.265,0,0,1-4.023,4.4,4.828,4.828,0,0,1-4.615-4.567,4.359,4.359,0,0,1,4.39-4.094A4.037,4.037,0,0,1,1501.735,776.284Z" transform="translate(4574.194 1049.666)" fill="#20a3d5"/>
    <path id="Path_1734" data-name="Path 1734" d="M1637.4,446.24c-2.659,0-4.354-1.6-4.362-4.127a4.281,4.281,0,0,1,4.5-4.147,3.9,3.9,0,0,1,4.166,4.111C1641.718,444.769,1640.2,446.238,1637.4,446.24Z" transform="translate(4489.616 1251.557)" fill="#20a3d5"/>
    <path id="Path_1735" data-name="Path 1735" d="M129.27,446.137c-3.047.334-4.252-2.334-4.229-4.227a4.35,4.35,0,0,1,4.568-4.1c2.441.236,4.093,1.758,4.06,4.263C133.636,444.751,132.128,446.143,129.27,446.137Z" transform="translate(5400.995 1251.66)" fill="#20a3d5"/>
    <path id="Path_1736" data-name="Path 1736" d="M404.961,609.174c-.005-2.589,1.624-4.17,4.307-4.179a4.252,4.252,0,0,1,4.29,4.371,4.945,4.945,0,0,1-4.364,4.265A4.339,4.339,0,0,1,404.961,609.174Z" transform="translate(5231.822 1150.611)" fill="#20a3d5"/>
    <path id="Path_1737" data-name="Path 1737" d="M1777.357,446.241c-2.8,0-4.315-1.45-4.317-4.132a4.009,4.009,0,0,1,4.374-4.142,4.185,4.185,0,0,1,4.264,4.142C1781.582,444.04,1780.482,446.569,1777.357,446.241Z" transform="translate(4405.007 1251.557)" fill="#20a3d5"/>
    <path id="Path_1738" data-name="Path 1738" d="M409.273,446.24c-2.907,0-4.3-1.321-4.312-4.077-.01-2.817,1.377-4.206,4.192-4.2a4.264,4.264,0,0,1,4.405,4.433A4.17,4.17,0,0,1,409.273,446.24Z" transform="translate(5231.822 1251.557)" fill="#20a3d5"/>
    <path id="Path_1739" data-name="Path 1739" d="M269.393,446.24c-2.938.01-4.473-1.445-4.438-4.208a4.03,4.03,0,0,1,4.252-4.066,4.18,4.18,0,0,1,4.384,4.217C273.444,444.2,272.278,446.524,269.393,446.24Z" transform="translate(5316.437 1251.557)" fill="#20a3d5"/>
  </g>
</svg>
