<svg id="Group_11467" data-name="Group 11467" xmlns="http://www.w3.org/2000/svg" width="118.009" height="47.981" viewBox="0 0 118.009 47.981">
  <g id="Group_1" data-name="Group 1" transform="translate(0 2.109)">
    <path id="Path_157" data-name="Path 157" d="M300,446.033h9.644c0,2.424,1.87,3.6,4,3.6,1.958,0,3.828-1.041,3.828-2.9,0-2.129-2.642-2.746-5.872-3.528-4.9-1.219-11.166-2.722-11.166-10.447,0-6.683,4.91-10.51,12.911-10.51,8.136,0,12.8,4.176,12.8,11.08h-9.375c0-2.146-1.6-3.152-3.537-3.152-1.666,0-3.266.721-3.266,2.306,0,1.927,2.558,2.565,5.753,3.368,4.995,1.289,11.525,2.957,11.525,10.706,0,7.411-5.7,11.258-13.575,11.258C305.368,457.82,300,453.429,300,446.033Z" transform="translate(-300 -422.255)" fill="#233b4b"/>
    <path id="Path_158" data-name="Path 158" d="M433.313,441.226V456.99H424.3V442.274c0-3.019-1.06-4.558-3.413-4.558-2.728,0-4.429,1.936-4.429,5.3V456.99h-9.016V422.255h9.016v10.28a11.167,11.167,0,0,1,6.988-2.5C429.451,430.038,433.313,434.441,433.313,441.226Z" transform="translate(-375.741 -422.255)" fill="#233b4b"/>
    <path id="Path_159" data-name="Path 159" d="M630.652,462.3c0,8.155-5.722,13.974-13.726,13.974a12.236,12.236,0,0,1-6.38-1.738v11.991h-8.914V449.211h6.132l1.13,2.079a12.127,12.127,0,0,1,8.034-2.938C624.93,448.353,630.652,454.144,630.652,462.3Zm-9.072,0a5.861,5.861,0,1,0-5.859,5.99A5.761,5.761,0,0,0,621.58,462.3Z" transform="translate(-512.643 -440.653)" fill="#233b4b"/>
  </g>
  <g id="Group_3" data-name="Group 3" transform="translate(59.22 0)">
    <g id="Group_2" data-name="Group 2" transform="translate(0)">
      <path id="Path_160" data-name="Path 160" d="M519.275,460.293v23.513h-9.059V460.293a7.594,7.594,0,0,0,9.059,0Z" transform="translate(-507.417 -446.962)" fill="#26a2d6"/>
      <circle id="Ellipse_10" data-name="Ellipse 10" cx="5.221" cy="5.221" r="5.221" transform="translate(0 6.436) rotate(-38.045)" fill="#26a2d6"/>
    </g>
  </g>
  <g id="Group_5" data-name="Group 5" transform="translate(72.736 0.01)">
    <g id="Group_4" data-name="Group 4" transform="translate(0 0)">
      <path id="Path_161" data-name="Path 161" d="M565.061,460.293v23.513H556V460.293a7.594,7.594,0,0,0,9.059,0Z" transform="translate(-553.212 -446.973)" fill="#26a2d6"/>
      <circle id="Ellipse_11" data-name="Ellipse 11" cx="5.221" cy="5.221" r="5.221" transform="matrix(0.794, -0.608, 0.608, 0.794, 0, 6.346)" fill="#26a2d6"/>
    </g>
  </g>
</svg>
