<svg xmlns="http://www.w3.org/2000/svg" width="539.108" height="398.527" viewBox="0 0 539.108 398.527">
  <g id="Group_114" data-name="Group 114" transform="translate(-207.712 -134.063)">
    <g id="Group_100" data-name="Group 100" transform="translate(211.642 134.063)">
      <path id="Path_502" data-name="Path 502" d="M295.51,188.354C174.943,305.3,245.552,528.505,245.552,528.505l476.065.97s88.707-158.774-2.945-287.784C634.039,122.562,387.947,98.691,295.51,188.354Z" transform="translate(-225.005 -134.063)" fill="#d1e5ff"/>
    </g>
    <g id="Group_113" data-name="Group 113" transform="translate(207.712 168.432)">
      <rect id="Rectangle_2140" data-name="Rectangle 2140" width="146.608" height="337.282" transform="translate(179.337 357.204) rotate(180)" fill="#9bc1f9"/>
      <g id="Group_102" data-name="Group 102" transform="translate(33.157 0)">
        <rect id="Rectangle_2141" data-name="Rectangle 2141" width="9.586" height="357.302" transform="translate(98.246 357.302) rotate(180)" fill="#466eb6"/>
        <g id="Group_101" data-name="Group 101" transform="translate(0 0.005)">
          <path id="Path_503" data-name="Path 503" d="M442.3,285.331c0,.908.065,357.153.065,357.153H353.624V305.032Z" transform="translate(-353.624 -285.331)" fill="#86b1f2"/>
          <path id="Path_504" data-name="Path 504" d="M398.321,436.678,398.758,531a9.079,9.079,0,0,1,1.109-.068,8.953,8.953,0,0,1,8.935,8.91l49.245-6.061a8.951,8.951,0,0,1,7.857-8.924l-.443-98.725a8.936,8.936,0,0,1-10.811-8.715l-49.239,10.464A8.951,8.951,0,0,1,398.321,436.678Zm3.454,2.437a12.493,12.493,0,0,0,6.752-8.377l43.393-9.221a12.433,12.433,0,0,0,10.115,8.16l.415,92.534a12.42,12.42,0,0,0-7.465,8.479l-43.356,5.336a12.446,12.446,0,0,0-9.443-8.318Z" transform="translate(-388.164 -387.403)" fill="#9bc1f9"/>
          <path id="Path_505" data-name="Path 505" d="M398.995,1224.348l.2,112.416h.016a8.951,8.951,0,0,1,8.95,8.935l12.868-.023a8.951,8.951,0,0,1,8.935-8.95V1223.205q-.394.034-.781.034a8.951,8.951,0,0,1-8.938-8.951l-13.067,1.126A8.95,8.95,0,0,1,398.995,1224.348Zm3.447,2.73a12.55,12.55,0,0,0,7.756-8.468l7.167-.618a12.432,12.432,0,0,0,9.155,8.4v107.38a12.453,12.453,0,0,0-8.449,8.464l-6.961.012a12.453,12.453,0,0,0-8.478-8.448Z" transform="translate(-388.685 -1003.192)" fill="#9bc1f9"/>
          <path id="Path_506" data-name="Path 506" d="M560.521,1210.9v115.515h.016a8.95,8.95,0,0,1,8.95,8.95l10.51-.019a8.951,8.951,0,0,1,8.934-8.882l.89-116.478q-.394.034-.781.033A8.951,8.951,0,0,1,580.1,1201l-11.4.983A8.95,8.95,0,0,1,560.521,1210.9Zm3.442,2.749a12.285,12.285,0,0,0,7.774-8.473l5.462-.47a12.441,12.441,0,0,0,9.156,8.465l-.843,110.339a12.49,12.49,0,0,0-8.449,8.4l-4.621.008a12.444,12.444,0,0,0-8.479-8.464Z" transform="translate(-513.506 -992.923)" fill="#9bc1f9"/>
        </g>
      </g>
      <g id="Group_103" data-name="Group 103" transform="translate(87.886 168.201)">
        <ellipse id="Ellipse_204" data-name="Ellipse 204" cx="3.615" cy="7.012" rx="3.615" ry="7.012" transform="translate(10.064 3.556)" fill="#f7cc7f"/>
        <path id="Path_507" data-name="Path 507" d="M623.857,1061.143v5.529h7.576a12.732,12.732,0,0,0,.349-3.01,12.876,12.876,0,0,0-.242-2.518Z" transform="translate(-617.178 -1053.044)" fill="#f47458"/>
        <path id="Path_508" data-name="Path 508" d="M600.9,1036.068c0,5.836,2.439,10.567,5.448,10.567s5.448-4.731,5.448-10.567-2.439-10.567-5.448-10.567S600.9,1030.232,600.9,1036.068Z" transform="translate(-599.437 -1025.501)" fill="#fae0b2"/>
        <ellipse id="Ellipse_205" data-name="Ellipse 205" cx="5.448" cy="10.567" rx="5.448" ry="10.567" fill="#fae0b2"/>
      </g>
      <g id="Group_104" data-name="Group 104" transform="translate(0 357.064)">
        <path id="Path_509" data-name="Path 509" d="M210.138,1863.712H738.194c1.34,0,2.426-1.588,2.426-3.547s-1.086-3.547-2.426-3.547H210.138c-1.34,0-2.426,1.588-2.426,3.547S208.8,1863.712,210.138,1863.712Z" transform="translate(-207.712 -1856.617)"/>
      </g>
      <g id="Group_109" data-name="Group 109" transform="translate(340.286 65.799)">
        <path id="Path_510" data-name="Path 510" d="M2249.995,1728.521s.037.34.037.907a12.04,12.04,0,0,1-2.991,8.219c-3.547,3.69-3.568,8.28.179,9.064s12.683-.251,12.683-.251,2.02-3.51.64-12.887-2.18-19.66-2.18-19.66l-10.181-1.59Z" transform="translate(-2121.866 -1453.849)" fill="#ff7243"/>
        <path id="Path_511" data-name="Path 511" d="M2242.389,1799.416s-3.777,5.125-4.661,7.264-.694,7.457,0,8c6.107,4.822,17.686.482,17.686.482a68.977,68.977,0,0,0,1.2-7.875c.4-4.339.175-8.383-1.2-8.383s-1.614,2.276-4.749,1.633S2245.6,1798.773,2242.389,1799.416Z" transform="translate(-2116.255 -1520.757)"/>
        <path id="Path_512" data-name="Path 512" d="M2256.376,1845.31a40.606,40.606,0,0,1-8.522,2.419c-3.172.453-7.443-.959-10.666-2.378-.167,2.273.072,4.821.541,5.191,6.107,4.822,17.686.482,17.686.482S2255.96,1848.6,2256.376,1845.31Z" transform="translate(-2116.256 -1556.615)" fill="#fff"/>
        <path id="Path_513" data-name="Path 513" d="M2256.557,1845.31c-8.761,2.632-10.374,3.1-19.188.041a26.8,26.8,0,0,0,4.608,1.948,13.121,13.121,0,0,0,7.5.484A32.5,32.5,0,0,0,2256.557,1845.31Z" transform="translate(-2116.436 -1556.615)" fill="#957447"/>
        <path id="Path_514" data-name="Path 514" d="M1807.537,969.5c2.506.943,5.829,2.342,5.829,2.342.43-1.034-7.844-2.8-9-5.321-.621-1.348,9.494,3.614,10.2,3.023.292-.245-11.441-4.065-10.9-4.987.455-.775,12.336,3.413,12.4,2.833.091-.806-10.287-2.887-9.358-4.046.476-.594,13.072,2.813,14.431,3.011,1.663,0-4.354-4.087-2.3-4.634,2.783-.742,9.774,7.271,10.32,7.384,1.583.328,15.056,1.978,21.652-2.337,5.328-3.485,10.5-8.844,11.763-13.458,1.241-4.524,2.96-10.986,1.49-15.971a65.45,65.45,0,0,1,17.914-.4c.37,7.486-8.592,37.147-12.34,39.588-8.244,5.37-22.953,4.056-33.323,3.2-8.358-.688-16.543-2.334-24.07-6.155-1.682-.854-3.937-1.81-5.239-3.3A.491.491,0,0,1,1807.537,969.5Z" transform="translate(-1781.268 -854.328)" fill="#ffd1c1"/>
        <path id="Path_515" data-name="Path 515" d="M2059.914,799.153c-4.466,4.613-8.976,32.253-7.316,38.841,2.866,5.351,15.845,6.275,20.042,8.813,9.682-3.981,3.049-21.834,3.049-21.834l3.53-34.775A29.944,29.944,0,0,0,2059.914,799.153Z" transform="translate(-1973.38 -741.265)" fill="#233b4b"/>
        <path id="Path_516" data-name="Path 516" d="M2064.428,1734.263a10.621,10.621,0,0,1-3.372,11.475,17.842,17.842,0,0,1-4.064,2.507c-5.931,2.593-13.613,2.01-14.683,7.335s37.608-1.495,37.608-1.495-2.684-12.953-2.857-15.123.237-10.137.237-10.137l-14.937-1.072Z" transform="translate(-1965.685 -1465.772)" fill="#ff7243"/>
        <path id="Path_517" data-name="Path 517" d="M2076.507,1794.387s.473,2.057,1.556,5.544a15.118,15.118,0,0,1,.407,6.772s-36.228,1.716-37.695.569-.713-5.324-.343-5.694,4.968-1.612,7.326-3.066,10.411-6.959,13.131-6.736,3.977,2.232,9.144,2.462S2075.223,1793.383,2076.507,1794.387Z" transform="translate(-1963.845 -1515.239)"/>
        <path id="Path_518" data-name="Path 518" d="M2040.776,1840.629c1.466,1.147,37.695-.569,37.695-.569a15.163,15.163,0,0,0,.036-4.828c-18.911,3.5-38.073-.3-38.073-.3C2040.062,1835.3,2039.309,1839.482,2040.776,1840.629Z" transform="translate(-1963.845 -1548.597)" fill="#fff"/>
        <path id="Path_519" data-name="Path 519" d="M2080.294,1835.233a98.841,98.841,0,0,1-38.073-.3,132.53,132.53,0,0,0,34.52.782Z" transform="translate(-1965.634 -1548.597)" fill="#957447"/>
        <path id="Path_520" data-name="Path 520" d="M2108.324,1152.01c6.216,22.729-1.5,124.684-1.5,124.684l-18.609-1.273s-4.233-101.426-7.3-104.5a1.876,1.876,0,0,0-2.605-.1,4.035,4.035,0,0,0-1.54,2.16c-1.915,6.258-12.861,42.688-10.654,50.665,2.417,8.735,13.2,55.53,13.2,55.53l-15.614.624s-21.408-35.749-21.408-60.706,3.482-58.04,13.6-71.5c4.6-6.126,27.274-10.866,27.274-10.866S2106.382,1144.911,2108.324,1152.01Z" transform="translate(-1965.684 -1009.05)" fill="#233b4b"/>
        <g id="Group_105" data-name="Group 105" transform="translate(95.518 138.243)">
          <path id="Path_521" data-name="Path 521" d="M2139.019,1389.228s-10.782-49.9-13.2-59.209c-1.755-6.763,4.807-32.708,8.531-46.409a5.984,5.984,0,0,1,9.433-3.163h0s-15.764,44.558-13.348,53.293,13.2,55.53,13.2,55.53l-15.614.624-.114-.192Z" transform="translate(-2125.528 -1257.386)"/>
          <path id="Path_522" data-name="Path 522" d="M2308.255,1183.225c2,1.56,3.438,3.164,3.863,4.717,6.216,22.729-1.5,124.684-1.5,124.684l-4.608-.315C2306.266,1308.623,2312.948,1212.657,2308.255,1183.225Z" transform="translate(-2264.995 -1183.225)"/>
        </g>
        <path id="Path_523" data-name="Path 523" d="M2086.4,1183.59a34.663,34.663,0,0,1,3.574-6.095,9.946,9.946,0,0,1,2.271-2.073,69.988,69.988,0,0,0,11.11,4.284c14.918,4.587,31,2.142,37.685-.185a6.466,6.466,0,0,1,1.373,2.391,52,52,0,0,1,1.317,7.584c-3.336,2.482-22.73,8.477-40.375,2.861C2092.156,1188.794,2087.983,1186.635,2086.4,1183.59Z" transform="translate(-1999.773 -1038.952)" fill="#233b4b"/>
        <path id="Path_524" data-name="Path 524" d="M2255.029,1747.569c-4.768,1.548-16.244,1.164-18.985,0-2.527-1.073-2.7-10.473,0-10.983,3.791-.716,14.535-.637,18.985,0C2257.747,1736.975,2257.641,1746.721,2255.029,1747.569Z" transform="translate(-2113.898 -1472.205)"/>
        <path id="Path_525" data-name="Path 525" d="M2130.5,1729.09c-4.768,1.548-16.245,1.164-18.985,0-2.527-1.074-2.7-10.473,0-10.983,3.79-.716,14.535-.637,18.985,0C2133.222,1718.5,2133.116,1728.242,2130.5,1729.09Z" transform="translate(-2017.67 -1457.925)"/>
        <path id="Path_526" data-name="Path 526" d="M2111.766,783.555s15.518-.8,21.861,6.718,5.824,86.475,3.257,88.678-24.622,8.859-42.139,3.675-18.633-12.3-18.633-12.3,4.661-53.1,4.661-67.614S2094.943,779.65,2111.766,783.555Z" transform="translate(-1991.823 -735.402)" fill="#ff7243"/>
        <path id="Path_527" data-name="Path 527" d="M2263.505,876.206c1.371-3.813-.1-15.939-1.657-24.713-1.221.234-2.4.511-3.506.832-1.875-5.8-3.526-20.864-3.582-30.332-.1-17.761,8.888-22.926,8.888-22.926,1.782-.407,4.632,1.27,9.091,5.911,5.15,14.08,4.071,79.606,1.658,81.677-1.029.883-3.042,6.421-8.231,7.521C2264.817,888.879,2262.237,879.73,2263.505,876.206Z" transform="translate(-2129.874 -748.073)" fill="#233b4b"/>
        <path id="Path_528" data-name="Path 528" d="M2176.361,783.415c3.365,3.093,3.626,3.152.13,7.211s-15.072,8.672-16.723,7.893c-4.1-1.934-.284-8.392,2.443-13.037C2163.063,784.031,2173,780.322,2176.361,783.415Z" transform="translate(-2055.08 -735.099)" fill="#233b4b"/>
        <path id="Path_529" data-name="Path 529" d="M2171.345,650.271s-.906,21.369,0,22.305,13.893-3.588,15.025-6.239-4.732-41.283-4.732-41.283Z" transform="translate(-2065.104 -613.649)" fill="#f7a491"/>
        <path id="Path_530" data-name="Path 530" d="M2170.99,684.507c2.3-.414,4.272-1,4.852-1.653,5.3-5.984,1.328-15.695,1.744-18.22.829-5.026,2.517-9.178,1.67-13.511l-7.875,19.293S2171.054,678.142,2170.99,684.507Z" transform="translate(-2065.141 -633.794)" fill="#fe875e" opacity="0.6"/>
        <g id="Group_107" data-name="Group 107" transform="translate(0 44.264)">
          <path id="Path_531" data-name="Path 531" d="M1865.48,838.321c-.883,2.226.953,4.383,2.876,3.427a2.079,2.079,0,0,0,.984-1.1c.886-2.227-.953-4.387-2.876-3.428A2.08,2.08,0,0,0,1865.48,838.321Z" transform="translate(-1828.879 -821.687)" fill="#fff"/>
          <path id="Path_532" data-name="Path 532" d="M1858.612,787.361l.657.922.4-1.1c.519-1.439,4.931-14.143.06-17.033a2.558,2.558,0,0,0-3.719.75C1853.879,773.957,1854.54,781.649,1858.612,787.361Zm-1.634-15.562a1.347,1.347,0,0,1,1.691-.6,2.77,2.77,0,0,1,.49.234c2.96,1.757,1.092,9.855-.244,14.024C1855.661,780.173,1855.528,773.885,1856.978,771.8Z" transform="translate(-1820.819 -769.657)" fill="#fff"/>
          <g id="Group_106" data-name="Group 106" transform="translate(38.408 8.092)">
            <path id="Path_533" data-name="Path 533" d="M1874.209,814.174l1.016.22a13.032,13.032,0,0,0,2.746.293c4.521,0,8.469-2.336,9.424-5.034a3.174,3.174,0,0,0-1.111-3.742c-4.056-3.152-10.689,6.243-11.432,7.327Zm2.322-1.015c1.9-2.52,5.41-6.45,7.868-6.45a1.88,1.88,0,0,1,1.19.4,1.64,1.64,0,0,1,.654,2C1885.486,811.244,1881.343,813.738,1876.531,813.159Z" transform="translate(-1874.209 -805.268)" fill="#fff"/>
          </g>
          <path id="Path_717" data-name="Path 717" d="M26.629,0H46.52A26.631,26.631,0,0,1,73.15,26.631v1.939A26.629,26.629,0,0,1,46.521,55.2H26.63A26.63,26.63,0,0,1,0,28.569v-1.94A26.629,26.629,0,0,1,26.629,0Z" transform="translate(73.15 73.189) rotate(180)" fill="#eecd76"/>
          <path id="Path_534" data-name="Path 534" d="M1709.974,848.826h22.863v55.2h-22.863c-2.643,0-4.786-3.425-4.786-7.65v-39.9C1705.188,852.251,1707.331,848.826,1709.974,848.826Z" transform="translate(-1705.188 -830.836)" fill="#eecd76"/>
          <path id="Path_535" data-name="Path 535" d="M1917.351,848.826h1.8c9.757,17.615,3.78,48.471,2.308,55.2h-1.408c1.009-4.533,7.98-38.093-2.621-55.036A1.14,1.14,0,0,1,1917.351,848.826Z" transform="translate(-1869.139 -830.836)" fill="#fff"/>
          <path id="Path_536" data-name="Path 536" d="M1759.03,903.816a1.657,1.657,0,0,1,.013.209h-1.337c-3.937-31.448.407-48.084,3.341-55.2h1.654C1760.032,854.772,1754.912,871.162,1759.03,903.816Z" transform="translate(-1744.556 -830.836)" fill="#fff"/>
        </g>
        <g id="Group_108" data-name="Group 108" transform="translate(120.436 144.422)">
          <path id="Rectangle_2143" data-name="Rectangle 2143" d="M6.874,0H41.82a6.874,6.874,0,0,1,6.874,6.874V25.835a6.873,6.873,0,0,1-6.873,6.873H6.873A6.873,6.873,0,0,1,0,25.835V6.874A6.874,6.874,0,0,1,6.874,0Z" transform="translate(49.736 32.708) rotate(180)" fill="#20a3d5"/>
          <rect id="Rectangle_2144" data-name="Rectangle 2144" width="41.244" height="25.174" transform="translate(44.144 28.941) rotate(180)" fill="#fff"/>
          <rect id="Rectangle_2145" data-name="Rectangle 2145" width="4.349" height="14.394" rx="2.174" transform="translate(4.349 23.551) rotate(180)" fill="#f29913"/>
        </g>
        <path id="Path_537" data-name="Path 537" d="M2299.278,994.209c-3.07,9.342,7.74,29.547,3.35,36.014s-2.181,13.256,3.139,16.622,11.933-1.351,11.4-3.914l-2.625-12.616c-.656-3.154,11.719-28.423,3.008-43.747-5.169-9.093,2.474-24.744-1.563-34.856-3.614,6.734-20.719,2.526-19.739,9.917C2297.81,967.941,2301,988.959,2299.278,994.209Z" transform="translate(-2161.905 -866.077)" fill="#ffd1c1"/>
        <path id="Path_538" data-name="Path 538" d="M2131.591,635.046A60.137,60.137,0,0,0,2129.364,649c0,6.289.149,17.18,4.6,17.18s10.84-1.227,12.325-10.124,0-18.713-4.455-21.014S2131.591,635.046,2131.591,635.046Z" transform="translate(-2032.974 -620.58)" fill="#f7a491"/>
        <path id="Path_539" data-name="Path 539" d="M2122.345,612.261a1.654,1.654,0,0,1,2.208,1.887c-.367,2.1-.277,4.406,1.69,4.886,3.786.924,5.575,0,6.195.64s-1.79,4.053,0,4.693,2.754-5.475,4.337-5.475,1.927,8.816,0,10.807.275,4.693,2.822,4.693-.322,3.2,3.109,4.266,6.184,1.066,7.285-3.271,0-6.754,0-6.754,3.507-4.1,2.616-8.153a32.805,32.805,0,0,0-2.775-6.3,59.418,59.418,0,0,1-2.25-7.583c-.482-2.773-7.308-5.546-11.983-6.044s-2.335-3.342-6.259-3.342-4.462,5.182-4.462,5.182-5.6-3.349-5.863-3.191c-3.261,1.986-.551,5.475-.551,5.475s-2.685.284-3.235,3.768,1.721,5.617,5.3,4.479C2121.208,612.7,2121.812,612.481,2122.345,612.261Z" transform="translate(-2021.989 -592.129)" fill="#100062"/>
        <path id="Path_540" data-name="Path 540" d="M2129.695,607.7a19.78,19.78,0,0,1,2.689.642c1.677.933,3.722,2.156,3.722,2.156a92.282,92.282,0,0,1,11.5,4.044,128.907,128.907,0,0,1,13.238,7.151c.132.372.212.592.212.592s.839,1.49,1.609,3.165c-3.327-.727-9.824-3.232-17.071-6.686C2137.414,614.859,2129.234,608.086,2129.695,607.7Z" transform="translate(-2033.215 -600.235)" fill="#0c004a"/>
        <path id="Path_541" data-name="Path 541" d="M2197.611,683.285s1.893-3.486,3.579-1.541.8,10.169-1.789,10.169S2196.694,685.489,2197.611,683.285Z" transform="translate(-2085.31 -657.001)" fill="#f7a491"/>
        <path id="Path_542" data-name="Path 542" d="M2274.148,798.541s-5.277,4.017-5.182,21.778c.05,9.468,2.83,25.512,4.542,31.315,7.108-2.247,17.133-2.392,24.391,0,.979-7.749-1-24.285-2.23-29.627C2292.64,808.869,2281.69,795.535,2274.148,798.541Z" transform="translate(-2140.852 -747.382)" fill="#ff7243"/>
        <path id="Path_543" data-name="Path 543" d="M2149.95,583.252a14.911,14.911,0,0,1,26.92,12.83c-.135.284-.281.559-.432.829l-26.861-12.8C2149.693,583.822,2149.815,583.536,2149.95,583.252Z" transform="translate(-2048.595 -574.866)" fill="#fcb500"/>
        <path id="Path_544" data-name="Path 544" d="M2155.534,586.612c.115-.288.237-.574.372-.858a14.8,14.8,0,0,1,16.055-8.141,15.163,15.163,0,0,0-2.2-1.282,14.842,14.842,0,0,0-19.815,6.92c-.135.284-.257.57-.373.858l26.861,12.8C2176.488,596.823,2155.534,586.612,2155.534,586.612Z" transform="translate(-2048.595 -574.866)" fill="#fcc332"/>
        <path id="Path_545" data-name="Path 545" d="M2096.765,591.842c.286-.6,14.271,5.1,23.212,9.366s15.958,8.2,15.672,8.8-15.116-2.883-24.057-7.144S2096.479,592.442,2096.765,591.842Z" transform="translate(-2007.775 -587.951)" fill="#fc9700"/>
      </g>
      <g id="Group_112" data-name="Group 112" transform="translate(146.436 64.094)">
        <path id="Path_546" data-name="Path 546" d="M874.035,1724.918s-3.16,3.126-3.232,4.273-.28,13.437,1.01,14.584,5.08,1.961,3.862,3.252c-.921.975-8.006.766-12.7.505-1.371-.076-3.089-11.161-3.632-12.791-.788-2.366-3.279-8.319-2.563-9.968.349-.8,2.594-1.832,4.948-3.373a21.7,21.7,0,0,0,4.846-5.232Z" transform="translate(-855.622 -1455.114)" fill="#f7a491"/>
        <path id="Path_547" data-name="Path 547" d="M1106.048,1787.873s-2.828,8.1-2.831,8.119c-.211,1.283-1.039,4.454-1.039,5.62,0,4.382,19.5-3.719,15.127-5.661a4.687,4.687,0,0,1-1.766-3.071c-.2-2.3,1.642-5.18,1.642-5.18Z" transform="translate(-1045.355 -1510.391)" fill="#f7a491"/>
        <g id="Group_110" data-name="Group 110" transform="translate(7.933 121.718)">
          <path id="Path_548" data-name="Path 548" d="M938.169,1126.551l-10.093,11.776-9.9,61.6-31.148,57.47s4.684,7.19,9.713,8.322l44.209-58.085,23.959-72.715-.841-16.156Z" transform="translate(-887.031 -1115.185)" fill="#184655"/>
          <path id="Path_549" data-name="Path 549" d="M1103.2,1103l6.977,21.515s6.141,64.092,5.267,68.508c-2.131,10.77-23.665,69.421-23.665,69.421l-13.8-1.757,15.141-69.345L1067.9,1126.2Z" transform="translate(-1026.799 -1103)" fill="#355389"/>
        </g>
        <path id="Path_550" data-name="Path 550" d="M1251.819,773.945c-3.262,3.6-2.553,4.031-2.983,4.48-.51.532-9.976,2.549-9.976,2.549s-27.859,6.137-29.376,6.413l-28.9-6.574-7.036,14s31.615,6.28,33.32,6.307,38.387-12.857,41.653-13.883c0,0,4.344.282,7.076.367s5.346-1.105,6.118-1.206a23.3,23.3,0,0,0,5.637-1.98c2.563-1.272-.44-1.3-.44-1.3s-5.165,1.462-5.21,1.016c-.035-.344,2.833-.968,5.684-2.345.734-.354,1.456-.706,2.116-1.035,1.734-.863,1.71-2.227-.247-1.627a18.578,18.578,0,0,0-2.6.985,15.263,15.263,0,0,1-2.494.773,20.1,20.1,0,0,1-2.576.78c.017-.1-.347-.223.419-.624a46.791,46.791,0,0,0,4.4-1.871c.738-.464,2.338-1.337,2.338-1.337s2.669-1.745,2.409-2.106c-.568-.787-2.434.01-3.357.779a12.523,12.523,0,0,0-2.489,1.14s-3.782,1.166-3.954.608c-.07-.222,1.881-1.353,3.83-2.7,2.06-1.428,3.476-2.56,3.278-3.019-.313-.732-2.049.284-2.049.284s-1.531.9-2.061,1.153c-.622.3-2.553,1.054-2.553,1.054s-6.841,2.291-6.961,1.747a3.685,3.685,0,0,1,.477-2.351c.375-.3,1.339-.458,1.714-.754s1.12-1.009.8-1.522-3.165.173-3.165.173A7.531,7.531,0,0,0,1251.819,773.945Z" transform="translate(-1100.506 -725.468)" fill="#f8a492"/>
        <path id="Path_551" data-name="Path 551" d="M1106.477,797.1s-.994,6.139-1.635,8.41c-.531,1.887-4.271,9.649-4.271,9.649s-13.4-4.393-19.734-6.907c-7.682-3.049-16.563-9.615-15.987-10.447a14.224,14.224,0,0,1,7.916-5.976C1085.523,788.637,1106.477,797.1,1106.477,797.1Z" transform="translate(-1016.49 -740.263)" fill="#3c8f7c"/>
        <path id="Path_552" data-name="Path 552" d="M1092.789,878.35c-12.785,5.047-42.836,2.134-42.836,2.134s1.9-13.121,2.577-21.983-4.966-22.878-7.348-47.211c-.5-5.16,1.514-19.1,8.747-23.47a11.97,11.97,0,0,1,4.1-1.737c.067,0,9.953-2.018,15-.463,1.433,1.278,5.9,4.965,8.472,9.279a85.42,85.42,0,0,1,6.8,14.467c2.914,9.649,4.152,37.588,4.152,42.856S1092.789,878.35,1092.789,878.35Z" transform="translate(-1001.255 -735.568)" fill="#50bfa5"/>
        <path id="Path_553" data-name="Path 553" d="M1125.406,745.532c-.007.007-.021.007-.034.013-4.912,1.527-23.444-8.775-23.444-8.775l.007-.054,2.247-14.7s11.567-2.724,10.894,1.454,1.568,12.515,1.568,12.515c.074.075.168.162.289.264C1118.368,737.531,1122.835,741.219,1125.406,745.532Z" transform="translate(-1045.163 -686.202)" fill="#f7a491"/>
        <path id="Path_554" data-name="Path 554" d="M1122.1,723.479c.673-4.175-10.9-1.45-10.9-1.45l-.187,1.223a6.79,6.79,0,0,0,1.255,2.055,15.279,15.279,0,0,0,10.116,4.547A22.6,22.6,0,0,1,1122.1,723.479Z" transform="translate(-1052.184 -686.208)" fill="#fe875e"/>
        <g id="Group_111" data-name="Group 111" transform="translate(46.746)">
          <path id="Path_555" data-name="Path 555" d="M1098.708,608.6c-.354-.128-2.839,18.191,1.877,23.232s13.9,6.69,17.2,2.721c3.645-4.391,3.462-24.08-3.869-29.265S1098.708,608.6,1098.708,608.6Z" transform="translate(-1088.672 -595.37)" fill="#f7a491"/>
          <path id="Path_556" data-name="Path 556" d="M1080.288,567.476a20.382,20.382,0,0,0-10.685,6.054c-2.573.3-6.07,1.714-9.681,7.653-4.441,7.3-1.162,15.4,4.007,19.365s5.11,8.578,5.11,8.578,8.758-4.495,7.908-11.419c-.357-2.906-1.617-3.565-.673-5.841.98-2.362.247-6.034.429-9.223l.526-2.01s3.668-2.836,7.256-2.036S1087.558,566,1080.288,567.476Z" transform="translate(-1057.837 -567.363)" fill="#13375b"/>
          <path id="Path_557" data-name="Path 557" d="M1128.874,669.836c.037,2.235-.417,4.025-1.716,4.047s-1.665-.853-2.741-4.007c-1.008-2.957.216-4.065,1.515-4.087S1128.836,667.6,1128.874,669.836Z" transform="translate(-1109.001 -643.423)" fill="#f7a491"/>
        </g>
        <path id="Path_558" data-name="Path 558" d="M858.381,1738.846s6.6,20.28,9.452,21.284c.757.266,5.073,1.451,5.758,3.079a.837.837,0,0,1,.043.146,1.7,1.7,0,0,1-1.7,1.984H858.409s-1.92-9.16-2.679-13.184c0,0-4.019-9.833-3.573-10.727S858.381,1738.846,858.381,1738.846Z" transform="translate(-852.123 -1472.638)" fill="#3c8f7c"/>
        <path id="Path_559" data-name="Path 559" d="M1097.3,1830.975l2.233-7.149s4.689,2.011,7.033,1.676a70.455,70.455,0,0,0,6.922-1.676c9.357,3.122,17.024,4.637,15.629,7.149H1097.3Z" transform="translate(-1041.584 -1538.308)" fill="#3c8f7c"/>
        <path id="Path_560" data-name="Path 560" d="M1228.775,877.615a25.05,25.05,0,0,0-4.613,3.244c-.664.379-10.9-.069-10.9-.069s-30.168-1.126-31.795-1.243l-27.821-13.5-10.963,11.58s30.677,13.9,32.415,14.349,42.75-2.642,46.369-2.8c0,0,4.372,1.356,7.146,2.12s5.77.285,6.586.383a26.478,26.478,0,0,0,6.3-.475c2.966-.57-.1-1.346-.1-1.346s-5.681.1-5.607-.336c.057-.336,3.16-.213,6.448-.811.846-.154,1.679-.309,2.445-.456,2.007-.39,2.348-1.695.184-1.612a20.883,20.883,0,0,0-2.931.287,17.366,17.366,0,0,1-2.761.111,21.282,21.282,0,0,1-2.753.1c.045-.089-.39-.3.5-.487,1.073-.228,3.458-.225,5.01-.68.88-.257,2.752-.688,2.752-.688a15.43,15.43,0,0,0,2.206-1.5c-.082-.954-1.668-.5-2.819,0a14.091,14.091,0,0,0-2.854.462s-4.185.165-4.211-.41c-.01-.22,2.4-.383,4.894-1.175,2.851-.907,3.558-2.185,3.477-2.692-.124-.775-1.73-.048-1.73-.048a24.553,24.553,0,0,1-2.812,1.114c-.718.131-10.122.3-10.1-.244s.93-1.264,1.393-1.452,1.345-.443,1.809-.631a1.619,1.619,0,0,0,.594-1.715c-.188-.569-2.234-.262-2.234-.262A9.528,9.528,0,0,0,1228.775,877.615Z" transform="translate(-1076.658 -798.177)" fill="#f8a492"/>
        <path id="Path_561" data-name="Path 561" d="M1088.787,846.631s5.475-6.9,7.383-9.7a119.28,119.28,0,0,0,6.8-11.542s-15.253-8.785-20.937-11.78c-20.859-10.995-20.374,5.4-19.4,9.04C1064.8,830.786,1088.787,846.631,1088.787,846.631Z" transform="translate(-1014.521 -754.762)" fill="#96d9c9"/>
        <path id="Path_562" data-name="Path 562" d="M1519.542,798.3c1.8-1.028,3.2-2.641,2.741-4.671C1523.829,795.241,1521.88,798.209,1519.542,798.3Z" transform="translate(-1367.878 -742.216)" fill="#fe875e"/>
      </g>
    </g>
  </g>
</svg>
